<svg xmlns="http://www.w3.org/2000/svg" width="718.061" height="311.333" viewBox="0 0 718.061 311.333"><g data-name="Gruppe 26"><path data-name="Vereinigungsmenge 3" d="M-9870.173,25.458l4.9-16.028,28.9,8.835L-9825.65-16.8l-79.993-24.459,4.983-16.3,108.971-88.455,23.836,7.285L-9801.9-27.361l28.9,8.835-4.982,16.3-28.9-8.838L-9817.605,24l28.9,8.838-4.9,16.025ZM-9880.8-51.483l60.133,18.384,27.264-89.173Zm-312.8,63.548,28.744-9.338-11.331-34.876-79.558,25.85-5.266-16.211,38.529-134.962,23.7-7.7,35.985,110.751,28.744-9.34,5.267,16.211-28.742,9.34,11.331,34.873,28.744-9.34,5.179,15.938-76.15,24.745Zm-47.659-40.992,59.8-19.432-28.813-88.681Zm194.6.906q-18.062-7.668-27.492-20.462a65.733,65.733,0,0,1-12.07-28.386,93.369,93.369,0,0,1,.693-33.161,170.371,170.371,0,0,1,10.666-34.84,161.536,161.536,0,0,1,17.852-31.793,99.7,99.7,0,0,1,23.56-23.609,64.607,64.607,0,0,1,28.794-11.2q15.751-2.105,33.552,5.452t27.229,20.349a65.874,65.874,0,0,1,12.08,28.546,95.211,95.211,0,0,1-.618,33.349,167.251,167.251,0,0,1-10.6,34.87,167.273,167.273,0,0,1-17.721,31.845,95.407,95.407,0,0,1-23.372,23.535,65.047,65.047,0,0,1-28.736,11.066,52,52,0,0,1-6.894.453Q-10032.5-22-10046.668-28.02Zm-20.764-54.094q3.207,28.743,27.2,38.931,22.679,9.626,43.572-4.769t35.444-48.676a141.238,141.238,0,0,0,6.451-18.5,142.4,142.4,0,0,0,3.615-17.684Zm45.869-103.847q-20.692,14.478-35.246,48.758a146.253,146.253,0,0,0-10.607,37.822l116.658-50.847q-1.291-14.555-7.9-24.827a40.859,40.859,0,0,0-19-15.536,46.843,46.843,0,0,0-18.379-3.988Q-10009.245-194.58-10021.562-185.961Z" transform="translate(-601.001 -357.668) translate(10974.015 570.096)" fill="#2e2e2e" stroke="rgba(0,0,0,0)" stroke-miterlimit="10"/><path data-name="Vereinigungsmenge 4" d="M-10314-118.964h0Zm593.917-18.448,20.768.256ZM-9814.6-149.5l44.413,12.091Zm-372.264.005,73.888,9.981Zm167.329,3.59-48.392,3.016Zm339.015-21.9-38.956,22.1Zm-113.149,7.432,21.88,10.419Zm83.062-8.014-13.52,15.471Zm-322.542,1.822-21.867,10.45Zm-116.784-.127,21.878,10.419Zm119.036-35.721-41.074,37.282Zm84.255-15.909,39.787,1.727Zm20.8-15.684-13.788,5.878Z" transform="translate(-601.001 -357.668) translate(10916.502 786.464)" fill="rgba(0,0,0,0)" stroke="#2e2e2e" stroke-linecap="round" stroke-linejoin="round" stroke-width="3"/></g></svg>