<svg id="Layer_1" data-name="Layer 1" xmlns="http://www.w3.org/2000/svg" viewBox="0 0 1661.38 362.25"><defs><style>.cls-1{fill:#27aae1}</style></defs><path class="cls-1" d="M490.47 111.44a97.11 97.11 0 0166.17 26 199.26 199.26 0 0127.59-49.34 153.2 153.2 0 100 241.9 199.37 199.37 0 01-27.59-49.33 97.58 97.58 0 11-66.17-169.23zM174 0a24.44 24.44 0 00-22.25 14.39L0 350.62h60.42l22-48.07h183.42l21.68 48.07h60.41L196.21 14.39A24.45 24.45 0 00174 0zm-67.47 248.51L174 99.06l67.46 149.45zM899.22 208.94c0-84.11-65.32-149.66-146.84-153.09h-.89c-2.73-.19-3.49 1.15-2.55 3.15.14.33.28.64.44 1 5.39 11.4 19.25 39.23 43.53 58.38 31.35 24.7 50.37 54 50.37 90.64 0 46.54-36.47 97.43-96.17 97.43s-96.17-50.89-96.17-97.43c0-36.66 19-65.94 50.38-90.64 24.74-19.51 38.92-47.86 43.8-58.95 1-2.16.46-3.61-2.07-3.66h-.48c-83 1.77-150 69.85-150 153.25 0 68.36 57.91 147.87 151.39 147.87 41.71 0 77.08-12.73 103.5-34.27l29.07 27.52h84l-76.89-72.79c10.1-20.35 15.58-43.45 15.58-68.41zM1269.38 61.62h57.74v289.01h-57.74zM1157.76 206.59c0 59.72-30.35 96.83-79.26 96.83s-79.39-37.11-79.39-96.83V61.79h-58v144.8c0 88.18 57.61 152.19 136.91 152.19 79.79 0 137.75-64 137.75-152.19v-145h-58.14zM1604.3 61.62v44.32l-11-11.35c-26.41-27.42-56.57-41.31-89.63-41.31-38.48 0-71 14.47-96.57 43-25.77 28.71-38.83 65.21-38.83 108.49 0 44.15 13.07 81.35 38.83 110.63 25.77 28.56 58.91 43 98.44 43 31.11 0 60.73-13 88-38.47l10.73-10v39.82h57.08V61.62zm-21.08 218.75c-17 19-39.65 28.68-67.15 28.68-25.93 0-47.71-10-64.78-29.73-16.37-19.2-24.69-44.28-24.69-74.56 0-28.43 8.55-52.71 25.4-72.19 17.26-19.45 39-29.32 64.69-29.32 27.11 0 49.52 9.77 66.61 29.08 16.82 19.45 25.34 44.33 25.34 74s-8.55 54.53-25.42 74.04z"/></svg>