<svg xmlns="http://www.w3.org/2000/svg" width="197.524" height="52.367"><defs><linearGradient id="a"><stop offset="0" stop-color="#c43a23"/><stop offset="1" stop-color="#ffaa4c"/></linearGradient><linearGradient id="b"><stop offset="0" stop-color="#c43a23"/><stop offset="1" stop-color="#ffaa4c"/></linearGradient></defs><g fill="#004d91"><path d="M674.44212-162.11567c-8.21508-2.76777-14.12997-9.60017-17.19573-17.43393-6.63836-16.95711-18.26532-16.59075-18.26532-16.59075l0 35.34297c0 2.00226 1.63501 3.63636 3.63545 3.63636l31.8256-.003 4.52047 0c1.9999 0 3.63599-1.63142 3.63599-3.63368-2.92499 0-5.64689-.46957-8.15646-1.31829M797.06575-157.17128c-6.75058 0-7.62328-4.65601-7.62328-10.71236l0-1.04761 3.20112 0 0 .87256c0 4.54047.23054 8.3212 4.42216 8.3212 3.37806 0 4.19486-2.73188 4.19486-6.28434 0-2.79212-1.10739-5.47073-2.73682-8.26562l-6.63555-11.11804c-1.10692-1.9203-2.15518-4.65615-2.15518-6.86885 0-4.71607 2.03691-8.38333 7.33269-8.38333 6.28951 0 7.2195 4.94882 7.2195 10.3618l0 .69913-3.14245 0 0-.5239c0-4.65684-.52297-7.97392-4.13249-7.97392-2.73728 0-4.07474 2.03644-4.07474 5.82022 0 1.86223.86993 3.90094 2.38617 6.40271l6.11073 10.13058c1.86181 3.08359 3.02741 6.22636 3.02741 9.77753 0 5.00754-1.62897 8.79224-7.39413 8.79224M813.79113-185.46342c-3.49079 0-3.60998 4.71446-3.60998 13.38668 0 7.92185.11919 12.46071 3.60998 12.46071 3.60905 0 3.55223-4.53886 3.55223-12.46071 0-8.73016.0568-13.38668-3.55223-13.38668zm0 28.11742c-6.51866 0-6.6374-6.63873-6.6374-14.73074 0-9.42836.11874-15.65726 6.6374-15.65726 6.52004 0 6.57964 5.93761 6.57964 15.65726 0 7.86013.0582 14.73074-6.57964 14.73074M833.87424-157.87295l-.11458-2.7322c-.75904 1.74235-2.03921 3.19779-4.53996 3.19779-3.78646 0-4.66008-2.78944-4.66008-5.99356l0-23.80882 2.97059 0 0 23.05485c0 2.38447.40655 4.30551 2.85278 4.30551 1.92002 0 3.31708-1.80467 3.31708-5.18384l0-22.17652 2.97012 0 0 23.45997c0 1.80518 0 3.20145.1155 5.87682l-2.91145 0M848.37052-184.70853c-3.08701 0-3.84421 1.98096-3.84421 5.94016l0 20.89542-2.96874 0 0-23.39991c0-.58234-.0568-3.37469-.17555-5.93688l2.9133 0 .11642 2.91016c.7572-1.97916 2.32703-3.16444 3.8978-3.16444.58118 0 1.3661.0976 1.94959.4127l-.86022 2.56856c-.4024-.18461-.87594-.22577-1.02839-.22577M857.30954-157.346c-6.22992 0-6.45999-6.28647-6.45999-14.84532 0-11.06033 1.16329-15.54268 6.51727-15.54268 5.00704 0 6.05483 3.66759 6.05483 8.61535l0 .46577-2.96967 0 0-.40839c0-3.89928-.46429-6.40215-3.08516-6.40215-2.90914 0-3.48986 3.0847-3.48986 13.32893 0 8.32753.28967 12.51846 3.43258 12.51846 2.50213 0 3.14244-2.21126 3.14244-6.46299l0-.40872 3.02742 0 0 .58289c0 4.31183-.81495 8.55885-6.16986 8.55885M872.85315-185.46342c-3.60952 0-3.60952 5.29591-3.60952 11.52611l7.15851 0c0-6.11128.0582-11.52611-3.54899-11.52611zm-3.60952 13.79452c0 .41057 0 1.92321 0 1.92321 0 6.05423.29244 10.12966 3.60952 10.12966 2.85093 0 3.37621-3.02783 3.4335-6.46299l3.02649 0c-.23285 4.01985-1.04779 8.73302-6.45999 8.73302-6.52236.0577-6.63739-6.80889-6.63739-14.84532 0-9.02305.11503-15.54268 6.63739-15.54268 6.75196 0 6.57502 6.28665 6.57502 16.0651l-10.18454 0" transform="matrix(.82149 0 0 .82149 -524.914 173.033)"/></g><g fill="#4e9ad9"><path d="M678.96259-200.77918l-36.34607 0c-2.00044 0-3.63545 1.63498-3.63545 3.63447 2.91973 0 5.6413.47631 8.15572 1.29819 7.71664 2.5183 13.48268 8.30688 16.99088 13.71593 4.02545 6.21033 9.87575 10.40126 18.47091 10.40126l0-25.41538c0-1.99949-1.63609-3.63447-3.63599-3.63447M714.78972-157.346c-6.22807 0-6.45999-6.28647-6.45999-14.84532 0-11.06033 1.16421-15.54268 6.51959-15.54268 5.00518 0 6.05343 3.66759 6.05343 8.61535l0 .46577-2.96966 0 0-.40839c0-3.89928-.46522-6.40215-3.08377-6.40215-2.91053 0-3.49264 3.0847-3.49264 13.32893 0 8.32753.29105 12.51846 3.43304 12.51846 2.50398 0 3.14337-2.21126 3.14337-6.46299l0-.40872 3.02834 0 0 .58289c0 4.31183-.81541 8.55885-6.17171 8.55885M724.89295-157.87295l2.90403 0 0-42.08574-2.90403 0 0 42.08574zM732.68578-157.87295l0-29.33679 2.96966 0 0 29.33679-2.96966 0zm0-37.9745l0-3.58734 2.96966 0 0 3.58734M747.12292-185.28856c-3.43442 0-3.60905 4.77258-3.60905 10.59363l0 3.49435c0 6.9289.11596 11.58455 3.66726 11.58455 3.49218 0 3.60906-4.30698 3.60906-12.98318 0-8.38255-.17417-12.68935-3.66727-12.68935zm.69899 27.8812c-2.15333 0-3.66819-1.10387-4.30804-3.02454l0 13.54509-2.9692 0 0-35.43329c0-.5244-.17464-4.30804-.17464-4.88964l2.96921 0 .0582 2.85149c.81448-2.03709 2.212-3.31676 4.48267-3.31676 5.06386 0 5.93794 4.01589 5.93794 15.0758 0 10.07445-.75858 15.19185-5.99615 15.19185M763.48056-157.28825c-5.53139 0-6.52005-3.66773-6.52005-8.03463l0-.98949 3.02741 0 0 .98949c0 3.55246.58118 5.7628 3.49264 5.7628 2.32796 0 3.31661-1.68788 3.31661-4.77115 0-2.56403-.98865-3.90251-2.61855-5.59043l-3.0847-3.14314c-2.32888-2.32764-3.90103-4.48147-3.90103-7.97489 0-3.7836 2.03783-6.69431 6.34495-6.69431 4.94836 0 6.1694 3.20126 6.1694 7.85847l0 .69913-3.0251 0 0-.75614c0-2.79503-.11688-5.53088-3.1443-5.53088-2.38755 0-3.31754 1.8626-3.31754 4.36598 0 2.61961 1.39706 4.19185 3.26026 6.1116l2.91145 3.02695c2.67722 2.73474 3.49263 4.30804 3.49263 7.56941 0 4.3073-2.1561 7.10123-6.40408 7.10123M779.72038-185.46342c-3.60859 0-3.60859 5.29591-3.60859 11.52611l7.15944 0c0-6.11128.0587-11.52611-3.55085-11.52611zm-3.60859 13.79452c0 .41057 0 1.92321 0 1.92321 0 6.05423.29013 10.12966 3.60859 10.12966 2.85186 0 3.37806-3.02783 3.43443-6.46299l3.02833 0c-.23469 4.01985-1.04963 8.73302-6.46276 8.73302-6.52004.0577-6.63462-6.80889-6.63462-14.84532 0-9.02305.11458-15.54268 6.63462-15.54268 6.75382 0 6.5778 6.28665 6.5778 16.0651l-10.18639 0M692.42069-159.84813c.002 1.31759.6611 1.97661 1.9787 1.97846l12.2755-.003 0-2.7322-10.25245 0c-.51096 0-.85838-.34741-.85838-.85847l0-17.01421 9.79739 0 0-2.67805-9.79739 0 0-15.209c0-.51049.34742-.85745.85838-.85745l10.6918 0 0-2.73636c0 0-11.8708-.001-12.71485 0-1.3176.002-1.97685.66111-1.9787 1.97824l0 38.13232" transform="matrix(.82149 0 0 .82149 -524.914 173.033)"/></g><path fill="none" d="M77.5 35.247H85V44.272H77.5z" transform="translate(0 8.095)"/><path fill="none" d="M821.113 309.966H828.613V318.991H821.113z" transform="translate(-776.618 -309.966)"/></svg>