<svg xmlns="http://www.w3.org/2000/svg" viewBox="0 0 1842.52 566.93"><radialGradient id="A" cx="386.041" cy="136.339" r="345.66" gradientTransform="matrix(0.9856 0 0 0.9856 12.0728 3.909)" gradientUnits="userSpaceOnUse"><stop offset="0" stop-color="#f7bfa4"/><stop offset=".43" stop-color="#e60012"/><stop offset="1" stop-color="#a00000"/></radialGradient><path fill="url(#A)" d="M298.16 372.22s.85-.66.4-1.76h.02C243.08 249.23 167.16 157.3 167.16 157.3s-41.3 39.2-38.36 78.47c1.57 29.7 23.93 47.3 23.93 47.3 36.02 35.1 123.23 79.4 143.5 89.47.27.1 1.3.44 1.93-.34z"/><radialGradient id="B" cx="386.038" cy="136.273" r="345.715" gradientTransform="matrix(0.9856 0 0 0.9856 12.0728 3.909)" gradientUnits="userSpaceOnUse"><stop offset="0" stop-color="#f7bfa4"/><stop offset=".43" stop-color="#e60012"/><stop offset="1" stop-color="#a00000"/></radialGradient><path fill="url(#B)" d="M284.67 402.24c-.36-1.3-1.87-1.3-1.87-1.3v-.05l-145.18 5.07c15.74 28.07 42.26 49.88 69.88 43.18 19.06-4.76 62.24-34.88 76.5-45.06l-.04-.03c1.1-1 .72-1.8.72-1.8z"/><radialGradient id="C" cx="386.037" cy="136.348" r="345.637" gradientTransform="matrix(0.9856 0 0 0.9856 12.0728 3.909)" gradientUnits="userSpaceOnUse"><stop offset="0" stop-color="#f7bfa4"/><stop offset=".43" stop-color="#e60012"/><stop offset="1" stop-color="#a00000"/></radialGradient><path fill="url(#C)" d="M286.87 389.2c.7-1.14-.55-2.16-.55-2.16l.01-.01C222.56 344 98.97 277.97 98.97 277.97c-11.23 34.78 3.92 62.8 3.92 62.8 15.74 33.3 45.8 43.38 45.8 43.38 13.9 5.7 27.77 6.1 27.77 6.1 2.17.4 86.34.05 108.9-.06.97-.02 1.5-1 1.5-1z"/><radialGradient id="D" cx="386.028" cy="136.357" r="345.643" gradientTransform="matrix(0.9856 0 0 0.9856 12.0728 3.909)" gradientUnits="userSpaceOnUse"><stop offset="0" stop-color="#f7bfa4"/><stop offset=".43" stop-color="#e60012"/><stop offset="1" stop-color="#a00000"/></radialGradient><path fill="url(#D)" d="M296.5 94.6c-6.32.56-23.37 4.44-23.37 4.44-38.43 9.93-47.52 44.8-47.52 44.8-7 21.96.2 46.05.2 46.05 12.83 56.93 75.96 150.47 89.54 170.12.96.96 1.72.6 1.72.6 1.46-.4 1.36-1.8 1.36-1.8l.02.02C339.3 149.97 296.5 94.6 296.5 94.6z"/><radialGradient id="E" cx="386.103" cy="136.359" r="346.03" gradientTransform="matrix(0.9856 0 0 0.9856 12.0728 3.909)" gradientUnits="userSpaceOnUse"><stop offset="0" stop-color="#f7bfa4"/><stop offset=".43" stop-color="#e60012"/><stop offset="1" stop-color="#a00000"/></radialGradient><path fill="url(#E)" d="M344.57 360.6c1.4.54 2.1-.8 2.1-.8l.01.02c13.93-20.14 76.7-113.18 89.47-169.9 0 0 6.92-27.45.23-46.05 0 0-9.5-35.42-47.98-44.78 0 0-11.08-2.8-22.86-4.47 0 0-43.02 55.4-22.1 264.38h.03c.15 1.32 1.1 1.6 1.1 1.6z"/><radialGradient id="F" cx="386.105" cy="136.356" r="346.013" gradientTransform="matrix(0.9856 0 0 0.9856 12.0728 3.909)" gradientUnits="userSpaceOnUse"><stop offset="0" stop-color="#f7bfa4"/><stop offset=".43" stop-color="#e60012"/><stop offset="1" stop-color="#a00000"/></radialGradient><path fill="url(#F)" d="M378.93 401.03s-1.27.16-1.63 1.12c0 0-.3 1.3.56 1.96l-.02.01c13.9 9.97 56.03 39.42 76.33 45.14 0 0 37.53 12.8 70.13-43.2l-145.37-5.02z"/><radialGradient id="G" cx="386.103" cy="136.366" r="346.008" gradientTransform="matrix(0.9856 0 0 0.9856 12.0728 3.909)" gradientUnits="userSpaceOnUse"><stop offset="0" stop-color="#f7bfa4"/><stop offset=".43" stop-color="#e60012"/><stop offset="1" stop-color="#a00000"/></radialGradient><path fill="url(#G)" d="M562.95 277.67s-123.4 66.23-187.22 109.27l.02.02s-1.15.76-.75 2.1c0 0 .6 1.1 1.5 1.1v.01l111.5-.27s11.18-.44 25-5.75c0 0 30.75-9.78 46.73-44.7.01.01 14.25-28.5 3.23-61.77z"/><radialGradient id="H" cx="386.104" cy="136.371" r="346.002" gradientTransform="matrix(0.9856 0 0 0.9856 12.0728 3.909)" gradientUnits="userSpaceOnUse"><stop offset="0" stop-color="#f7bfa4"/><stop offset=".43" stop-color="#e60012"/><stop offset="1" stop-color="#a00000"/></radialGradient><path fill="url(#H)" d="M364.07 372.22s1 .75 1.95.14v.01c20.8-10.33 107.35-54.36 143.2-89.3 0 0 22.7-18.23 23.9-47.5 2.62-40.65-38.3-78.27-38.3-78.27s-75.7 91.63-131.17 212.6l.03-.01s-.66 1.4.4 2.3z"/><path d="M774.76 284.24h-82.2v-72.38h-36.4v179.4h36.4V318.4h82.2v72.86h36.4v-179.4h-36.4zm205.06 30.3c0 29.17-14.48 44.75-40.78 44.75-26.45 0-41.02-16.02-41.02-46V211.97h-36.4v102.58c0 50.46 28.04 79.4 76.93 79.4 49.36 0 77.66-29.48 77.66-80.9v-101.2h-36.4v102.67zm420.68 20.68l-40.73-123.4h-29.7l-40.73 123.4-39.63-123.28h-38.74l62.52 179.33h30.15l40.8-117.8 40.78 117.8h30.4L1478 211.94h-37.75zm142.74-21.16h66.2v-32.68h-66.2v-36.72h96.1v-32.68h-132v179.17h135.47v-32.67h-99.56zm142.96-102.2h35.9v179.17h-35.9zm-572.5.01l-79.04 179.3h37.15l16.34-37.34h82.1l16.1 37.34h38.15l-78.76-179.3h-32.05zm-12 109.6l27.43-64.2 27.6 64.2h-55.04z" fill="#231815"/></svg>