<?xml version="1.0" encoding="utf-8"?>
<!-- Generator: Adobe Illustrator 22.0.0, SVG Export Plug-In . SVG Version: 6.00 Build 0)  -->
<svg version="1.1" id="Layer_1" focusable="false" xmlns="http://www.w3.org/2000/svg" xmlns:xlink="http://www.w3.org/1999/xlink"
	 x="0px" y="0px" viewBox="0 0 15.8 12" style="enable-background:new 0 0 15.8 12;" xml:space="preserve">
<style type="text/css">
	.st0{display:none;fill:#626262;}
	.st1{fill:#626262;}
	.st2{display:none;}
</style>
<path class="st0" d="M12.8,4.9C12.6,2.4,10.9,0,7.7,0C4.8,0,2.6,2.1,2.5,5C0.9,5.5,0,7.2,0,8.4C0,10.3,1.6,12,3.4,12h9
	c1.8,0,3.4-2,3.4-3.6C15.8,6.5,14.2,5,12.8,4.9z M12.4,11.6h-9c-1.6,0-3-1.5-3-3.2c0-1.1,1-3.2,3-3.2H4c0.1,0,0.2-0.1,0.2-0.2
	S4.1,4.9,4,4.9H3.4c-0.2,0-0.4,0-0.5,0.1C3,2.7,4.7,0.4,7.7,0.4c3.2,0,4.7,2.5,4.7,4.9v0.6c0,0.1,0.1,0.2,0.2,0.2s0.2-0.1,0.2-0.2
	V5.2v0c1.1,0.1,2.6,1.3,2.6,3.2C15.4,9.9,14,11.6,12.4,11.6z"/>
<g>
	<path class="st1" d="M5.1,3.7V3.2L0.2,5.8v0.4l4.9,2.5V8.3L0.7,6.1l0,0V5.9"/>
</g>
<g>
	<path class="st1" d="M9.2,2.1l-3,7.8h0.4l3-7.8H9.2z"/>
</g>
<g>
	<path class="st1" d="M15.2,5.9v0.2l0,0l-4.4,2.2v0.4l4.9-2.5V5.8l-4.9-2.5v0.4"/>
</g>
<rect x="0" class="st2" width="15.8" height="12"/>
</svg>
