<svg xmlns="http://www.w3.org/2000/svg" xmlns:xlink="http://www.w3.org/1999/xlink" width="1em" height="1em" aria-hidden="true" focusable="false" preserveAspectRatio="xMidYMid meet" viewBox="0 0 32 32" style="-ms-transform:rotate(360deg);-webkit-transform:rotate(360deg);transform:rotate(360deg)"><g fill="#626262"><path d="M28.354 1.354a.5.5 0 0 0-.141-.805 5.984 5.984 0 0 0-6.798 1.191c-1.698 1.709-2.291 4.393-1.499 6.637L8.377 19.916a5.908 5.908 0 0 0-1.996-.336c-1.714 0-3.376.682-4.559 1.872a6.082 6.082 0 0 0-1.281 6.747.498.498 0 0 0 .813.153l3.491-3.509c.23-.232.601-.263.793-.068l1.507 1.577c.219.221.209.562-.022.795l-3.478 3.5a.499.499 0 0 0 .141.804 6.034 6.034 0 0 0 2.591.588c1.572 0 3.065-.632 4.207-1.78 1.698-1.708 2.291-4.392 1.498-6.636l11.539-11.54a5.918 5.918 0 0 0 1.997.336c1.714 0 3.376-.682 4.559-1.872A6.082 6.082 0 0 0 31.458 3.8a.498.498 0 0 0-.813-.153l-3.491 3.509a.569.569 0 0 1-.801-.01l-1.499-1.499a.551.551 0 0 1-.001-.794l3.501-3.499zm-4.208 5l1.499 1.499c.599.602 1.625.605 2.218.009l2.93-2.944a5.091 5.091 0 0 1-1.324 4.926c-.997 1.003-2.399 1.577-3.85 1.577-.683 0-1.33-.128-1.923-.38a.5.5 0 0 0-.549.106l-12 12a.499.499 0 0 0-.107.547c.803 1.91.314 4.375-1.163 5.861a4.956 4.956 0 0 1-4.985 1.258l2.941-2.96c.621-.625.631-1.594.029-2.198l-1.506-1.577c-.581-.585-1.614-.549-2.218.062l-2.93 2.944a5.091 5.091 0 0 1 1.324-4.926c.997-1.003 2.399-1.577 3.85-1.577.683 0 1.33.128 1.923.38a.498.498 0 0 0 .549-.106l12-12a.499.499 0 0 0 .107-.547c-.803-1.91-.314-4.376 1.163-5.862a4.957 4.957 0 0 1 4.982-1.258l-2.96 2.961a1.546 1.546 0 0 0 0 2.205z"/><path d="M29.21 30.647a.595.595 0 0 1-.827-.002l-10.03-10a.501.501 0 0 0-.706.709l10.029 9.998c.3.301.698.467 1.122.467.424 0 .822-.166 1.128-.474l1.429-1.493a1.549 1.549 0 0 0-.001-2.206l-10-10a.5.5 0 0 0-.707.707l9.999 9.999c.229.23.229.564-.007.802l-1.429 1.493z"/><path d="M5.854 3.146l-3-3a.5.5 0 0 0-.707 0l-2 2a.5.5 0 0 0 0 .707l3 3a.502.502 0 0 0 .707.001l.646-.647 7.646 7.646a.5.5 0 1 0 .708-.706L5.207 4.5l.646-.646a.5.5 0 0 0 .001-.708zM3.5 4.793L1.207 2.5 2.5 1.207 4.793 3.5 3.5 4.793z"/></g><rect width="32" height="32" x="0" y="0" fill="rgba(0, 0, 0, 0)"/></svg>