<svg xmlns="http://www.w3.org/2000/svg" xmlns:xlink="http://www.w3.org/1999/xlink" width="1.32em" height="1em" aria-hidden="true" focusable="false" preserveAspectRatio="xMidYMid meet" viewBox="0 0 42 32" style="-ms-transform:rotate(360deg);-webkit-transform:rotate(360deg);transform:rotate(360deg)"><path fill="#626262" d="M33.958 12.988C33.531 6.376 28.933 0 20.5 0 12.787 0 6.839 5.733 6.524 13.384 2.304 14.697 0 19.213 0 22.5 0 27.561 4.206 32 9 32h24c4.847 0 9-5.224 9-9.5 0-5.167-4.223-9.208-8.042-9.512zM33 31H9c-4.262 0-8-3.972-8-8.5C1 19.449 3.674 14 9 14h1.5a.5.5 0 0 0 0-1H9c-.509 0-.99.057-1.459.139C7.933 7.149 12.486 1 20.5 1 29.088 1 33 7.739 33 14v1.5a.5.5 0 0 0 1 0V14v-.009c3.019.331 7 3.571 7 8.509 0 3.826-3.691 8.5-8 8.5z"/><rect width="42" height="32" x="0" y="0" fill="rgba(0, 0, 0, 0)"/></svg>