<svg xmlns="http://www.w3.org/2000/svg" width="174.42" height="112.8" viewBox="0 0 174.42 112.8"><g data-name="Gruppe 22" transform="translate(-390.271 -2051.2)"><g data-name="Rechteck 7" transform="translate(390.271 2084.057)" fill="none" stroke="#2e2e2e" stroke-width="1"><rect width="110.054" height="66.853" rx="2" stroke="none"/><rect x=".5" y=".5" width="109.054" height="65.853" rx="1.5" fill="none"/></g><g transform="translate(449.761 2051.73)"><path data-name="Pfad 10" d="M337.58,291.623c-24.476,0-26.4-.782-30.828-2.808S292.847,270,312.315,260.568c0,0-1.837-24.118,25.408-21.473,0,0,13.622-18.515,37.772-11.9,0,0,23.531,4.848,19.815,27.331,0,0,17.541,1.834,19.91,15.783,0,0,2.9,17.9-17.107,21.055,0,0-55.531,1.053-61.058.263" transform="translate(-300.997 -225.766)" fill="#fff" stroke="#2e2e2e" stroke-miterlimit="10" stroke-width="1"/></g><line data-name="Linie 5" x2="109" transform="translate(390.5 2145.5)" fill="none" stroke="#2e2e2e" stroke-width="1"/><path data-name="Pfad 33" d="M4753.063,2378.406l1.236,3.691,3.029,9.042h-14.572s3.343-9.676,4.543-12.733" transform="translate(-4305 -228)" fill="none" stroke="#2e2e2e" stroke-width="1"/><line data-name="Linie 6" x2="26" transform="translate(432.5 2163.5)" fill="none" stroke="#2e2e2e" stroke-width="1"/></g></svg>