<svg xmlns="http://www.w3.org/2000/svg" xmlns:xlink="http://www.w3.org/1999/xlink" width="78.938" height="78.938" viewBox="0 0 78.938 78.938">
  <defs>
    <clipPath id="clip-logo">
      <rect width="78.938" height="78.938"/>
    </clipPath>
  </defs>
  <g id="logo" clip-path="url(#clip-logo)">
    <g id="Group_6998" data-name="Group 6998" transform="translate(-2347 -8330.844)">
      <circle id="Ellipse_6852" data-name="Ellipse 6852" cx="39.469" cy="39.469" r="39.469" transform="translate(2347 8330.844)" fill="#1483f3"/>
      <g id="Group_6997" data-name="Group 6997" transform="translate(2365.726 8348.956)">
        <circle id="Ellipse_6642" data-name="Ellipse 6642" cx="1.967" cy="1.967" r="1.967" transform="translate(43.222 38.77)" fill="#fff"/>
        <g id="Group_6159" data-name="Group 6159">
          <path id="Path_28043" data-name="Path 28043" d="M784.316,1353.73h-9.544a.339.339,0,0,1-.248-.57l5.157-5.526a27.31,27.31,0,0,0,3.98-5.124q.133-.257.281-.5a.918.918,0,0,0,.049-.1,9.117,9.117,0,0,0,.755-3.668,7.845,7.845,0,0,0-2.207-5.561,7.963,7.963,0,0,0-5.956-2.363,8.347,8.347,0,0,0-6.174,2.514,8.825,8.825,0,0,0-2.62,5.923.813.813,0,0,0,.217.607.827.827,0,0,0,.6.261h1.6a.821.821,0,0,0,.81-.719,6.507,6.507,0,0,1,1.669-3.864,5.045,5.045,0,0,1,3.748-1.506,4.926,4.926,0,0,1,3.595,1.392,4.487,4.487,0,0,1,1.46,3.4,5.608,5.608,0,0,1-.834,2.933l-.029.048-.015.055a.618.618,0,0,1-.108.191,43.216,43.216,0,0,1-3.554,4.368l-8.514,9.088a1.161,1.161,0,0,0-.234,1.216h0a1.161,1.161,0,0,0,1.081.738h15.032a.817.817,0,0,0,.817-.817v-1.595A.817.817,0,0,0,784.316,1353.73Z" transform="translate(-742.991 -1330.01)" fill="#fff" fill-rule="evenodd"/>
          <rect id="Rectangle_2519" data-name="Rectangle 2519" width="3.376" height="26.734" rx="1.688" transform="translate(0 0)" fill="#fff"/>
          <path id="Path_28044" data-name="Path 28044" d="M746.6,1355.041l-12.092-11.88a.713.713,0,0,1,0-1.016l11.18-11.039a.819.819,0,0,0,.053-1.108.865.865,0,0,0-.678-.291h-1.8a2.585,2.585,0,0,0-1.823.749l-11.729,11.617a.817.817,0,0,0,0,1.162l12.629,12.456a2.6,2.6,0,0,0,1.828.75h1.809a.863.863,0,0,0,.679-.293A.82.82,0,0,0,746.6,1355.041Z" transform="translate(-724.075 -1329.708)" fill="#fff" fill-rule="evenodd"/>
        </g>
        <g id="Group_6160" data-name="Group 6160" transform="translate(0.017 31.439)">
          <path id="Path_28045" data-name="Path 28045" d="M724.189,1403.08a1.173,1.173,0,0,1-1.142-.782l-4.082-9.165a.933.933,0,0,1,.023-.963.943.943,0,0,1,.806-.367,1.019,1.019,0,0,1,.68.2,1.488,1.488,0,0,1,.383.586l3.363,7.8,3.363-7.82a1.591,1.591,0,0,1,.407-.571.993.993,0,0,1,.657-.2.863.863,0,0,1,.759.375.929.929,0,0,1-.008.955l-4.082,9.165a1.454,1.454,0,0,1-.43.587A1.126,1.126,0,0,1,724.189,1403.08Z" transform="translate(-718.845 -1391.803)" fill="#fff"/>
          <path id="Path_28046" data-name="Path 28046" d="M744.239,1403.08a.9.9,0,0,1-1-1.032v-9.212a1,1,0,1,1,2,0v9.212A.9.9,0,0,1,744.239,1403.08Z" transform="translate(-730.888 -1391.803)" fill="#fff"/>
          <path id="Path_28047" data-name="Path 28047" d="M753.477,1403.076a.94.94,0,0,1-1.064-1.064v-8.9a.94.94,0,0,1,1.064-1.063h5.584q.813,0,.813.782a.719.719,0,0,1-.813.814h-4.723v3.034h4.379a.8.8,0,1,1,0,1.6h-4.379v3.206h4.723a.8.8,0,1,1,0,1.6Z" transform="translate(-735.417 -1391.925)" fill="#fff"/>
          <path id="Path_28048" data-name="Path 28048" d="M774.562,1403.08a1.1,1.1,0,0,1-1.1-.845l-3.269-9.244a.894.894,0,0,1,.07-.845.936.936,0,0,1,.821-.344.994.994,0,0,1,.657.2,1.332,1.332,0,0,1,.376.618l2.5,7.445,2.628-7.429a1.047,1.047,0,0,1,1-.829.84.84,0,0,1,.594.2,1.613,1.613,0,0,1,.376.641l2.581,7.523,2.58-7.554a1.39,1.39,0,0,1,.376-.61.946.946,0,0,1,.641-.2.83.83,0,0,1,.736.344.91.91,0,0,1,.062.845l-3.3,9.259a1.424,1.424,0,0,1-.406.625,1.213,1.213,0,0,1-1.345,0,1.414,1.414,0,0,1-.406-.641l-2.55-7.241-2.564,7.257a1.46,1.46,0,0,1-.4.625A1,1,0,0,1,774.562,1403.08Z" transform="translate(-744.163 -1391.803)" fill="#fff"/>
        </g>
      </g>
    </g>
  </g>
</svg>
