<svg xmlns="http://www.w3.org/2000/svg" viewBox="0 0 32 32" preserveAspectRatio="xMidYMid meet">
  <!-- Text bubble representing language -->
  <path d="M6 8 C6 6, 8 4, 10 4 L22 4 C24 4, 26 6, 26 8 L26 18 C26 20, 24 22, 22 22 L16 22 L12 26 L12 22 L10 22 C8 22, 6 20, 6 18 Z" fill="none" stroke="#626262" stroke-width="1.2"/>
  
  <!-- Text lines representing language/data -->
  <line x1="10" y1="9" x2="22" y2="9" stroke="#626262" stroke-width="1"/>
  <line x1="10" y1="13" x2="18" y2="13" stroke="#626262" stroke-width="1"/>
  <line x1="10" y1="17" x2="20" y2="17" stroke="#626262" stroke-width="1"/>
  
  <!-- Neural network nodes -->
  <circle cx="8" cy="26" r="1.5" fill="#626262"/>
  <circle cx="13" cy="28" r="1.5" fill="#626262"/>
  <circle cx="19" cy="28" r="1.5" fill="#626262"/>
  <circle cx="24" cy="26" r="1.5" fill="#626262"/>
  
  <!-- Connection lines between nodes -->
  <line x1="8" y1="26" x2="13" y2="28" stroke="#626262" stroke-width="0.8"/>
  <line x1="8" y1="26" x2="19" y2="28" stroke="#626262" stroke-width="0.8"/>
  <line x1="8" y1="26" x2="24" y2="26" stroke="#626262" stroke-width="0.8"/>
  <line x1="13" y1="28" x2="19" y2="28" stroke="#626262" stroke-width="0.8"/>
  <line x1="13" y1="28" x2="24" y2="26" stroke="#626262" stroke-width="0.8"/>
  <line x1="19" y1="28" x2="24" y2="26" stroke="#626262" stroke-width="0.8"/>
</svg>
