<?xml version="1.0" encoding="iso-8859-1"?>
<!-- Generator: Adobe Illustrator 19.0.0, SVG Export Plug-In . SVG Version: 6.00 Build 0)  -->
<svg version="1.1" id="Layer_1" xmlns="http://www.w3.org/2000/svg" xmlns:xlink="http://www.w3.org/1999/xlink" x="0px" y="0px"
	 viewBox="0 0 501.982 501.982" style="enable-background:new 0 0 501.982 501.982;" xml:space="preserve">

			<g fill="#626262">
				<path d="M416.688,302.979c-5.522,0-10,4.477-10,10v131.356H20V57.647h396.688c5.522,0,10-4.477,10-10s-4.478-10-10-10H10
					c-5.522,0-10,4.477-10,10v406.688c0,5.523,4.478,10,10,10h406.688c5.522,0,10-4.477,10-10V312.979
					C426.688,307.456,422.21,302.979,416.688,302.979z"/>
				<path d="M416.688,229.983c-5.522,0-10,4.477-10,10v26.65c0,5.523,4.478,10,10,10s10-4.477,10-10v-26.65
					C426.688,234.46,422.21,229.983,416.688,229.983z"/>
				<path d="M490.587,67.597c-15.193-15.19-39.913-15.19-55.106,0L209.288,293.79l-70.933-70.933
					c-15.191-15.191-39.913-15.192-55.106,0c-15.192,15.193-15.192,39.914,0,55.106l98.486,98.486
					c7.359,7.359,17.145,11.413,27.553,11.413s20.193-4.053,27.554-11.413l253.746-253.746
					C505.78,107.512,505.78,82.791,490.587,67.597z M476.445,108.563L222.7,362.308c-3.583,3.582-8.346,5.555-13.412,5.555
					s-9.829-1.973-13.411-5.555l-98.485-98.486c-7.395-7.395-7.395-19.428-0.001-26.823c3.698-3.698,8.555-5.546,13.412-5.546
					c4.856,0,9.714,1.849,13.411,5.545l78.003,78.004c1.876,1.875,4.419,2.929,7.071,2.929s5.195-1.054,7.071-2.929L449.622,81.741
					c7.396-7.394,19.428-7.395,26.823,0C483.84,89.135,483.84,101.168,476.445,108.563z"/>
			</g>

</svg>
