<svg xmlns="http://www.w3.org/2000/svg" viewBox="0 0 229.33 160.74"><defs><style>.cls-1{fill:#03234b;}</style></defs><title>Asset 1</title><g id="Layer_2" data-name="Layer 2"><g id="Logo"><path class="cls-1" d="M70,152.81A6.39,6.39,0,1,1,70,140a6.34,6.34,0,0,1,6.24,6.42A6.23,6.23,0,0,1,70,152.81M76.13,141A7.39,7.39,0,0,0,70,138a8.45,8.45,0,1,0,0,16.9,7.47,7.47,0,0,0,6.13-3v2.63H78.4v-16.1H76.13Z"/><path class="cls-1" d="M94.69,146.92c0,2.82-.77,3.82-1.62,4.68a4.39,4.39,0,0,1-3.28,1.25,4.58,4.58,0,0,1-3.6-1.47,6.46,6.46,0,0,1-1.11-4.11v-8.86H82.81v8.89a8.12,8.12,0,0,0,1.42,5.18,6.82,6.82,0,0,0,5.55,2.42,5.48,5.48,0,0,0,5-2.62v2.22H97V138.4H94.68v8.52Z"/><path class="cls-1" d="M107.92,152.81a6.39,6.39,0,1,1,6.18-6.36c0,2.56-2,6.36-6.18,6.36M114,141a7.33,7.33,0,0,0-6.07-3.07,8.49,8.49,0,0,0-8.42,8.54,8.41,8.41,0,0,0,8.42,8.36c2,0,4.76-.83,6.07-3.07v1.07c0,4.28-3,5.81-5.63,5.81a6.05,6.05,0,0,1-5.84-3.93l0-.08H100.1l0,.15c1.61,5.5,6.72,5.92,8.24,5.92.43,0,4.31-.08,6.4-3a9.16,9.16,0,0,0,1.47-5.88V138.4H114V141Z"/><path class="cls-1" d="M136.85,138a6.21,6.21,0,0,0-5.34,2.91,6.23,6.23,0,0,0-5.35-2.91,5.29,5.29,0,0,0-4.21,2V138.4h-2.27v16.12H122V145.2a6,6,0,0,1,.71-3.25,4.19,4.19,0,0,1,7,0,6,6,0,0,1,.71,3.25v9.32h2.27V145.2a6,6,0,0,1,.71-3.25,4.19,4.19,0,0,1,7,0,6,6,0,0,1,.71,3.25v9.32h2.27V145c0-5.5-4.07-7-6.48-7"/><path class="cls-1" d="M148.34,145.24a6.13,6.13,0,0,1,12.11,0Zm6-7.26a8.54,8.54,0,0,0-8.36,8.48,8.38,8.38,0,0,0,16.31,2.77l.06-.16H160l0,.08a5.89,5.89,0,0,1-5.58,3.67,6.21,6.21,0,0,1-6-5.51h14.45v-.11a8.51,8.51,0,0,0-1.23-5.09,8.38,8.38,0,0,0-7.2-4.13"/><path class="cls-1" d="M172.91,138a5.86,5.86,0,0,0-4.82,2.26v-1.86h-2.27v16.12h2.27v-8.86a5.72,5.72,0,0,1,1.45-4.27,5,5,0,0,1,3.37-1.33,5,5,0,0,1,3.37,1.33,5.87,5.87,0,0,1,1.47,4.27v8.86H180v-8.86a7.7,7.7,0,0,0-2-5.69,6.67,6.67,0,0,0-5.1-2"/><polygon class="cls-1" points="188.13 132.78 185.86 132.78 185.86 138.4 182.53 138.4 182.53 140.47 185.86 140.47 185.86 154.52 188.13 154.52 188.13 140.47 191.94 140.47 191.94 138.4 188.13 138.4 188.13 132.78"/><path class="cls-1" d="M195.58,145.23a6.13,6.13,0,0,1,12.12,0Zm6-7.26a8.54,8.54,0,0,0-8.36,8.48,8.38,8.38,0,0,0,16.31,2.77l.06-.16h-2.4l0,.08a5.88,5.88,0,0,1-5.58,3.67,6.22,6.22,0,0,1-6-5.51H210v-.11a8.51,8.51,0,0,0-1.23-5.09,8.39,8.39,0,0,0-7.2-4.13"/><path class="cls-1" d="M220.93,152.82a6.39,6.39,0,1,1,0-12.77,6.34,6.34,0,0,1,6.24,6.42,6.23,6.23,0,0,1-6.24,6.35m6.12-20V141a7.72,7.72,0,0,0-6.13-3,8.45,8.45,0,1,0,0,16.9,7.62,7.62,0,0,0,6.13-3v2.62h2.27V132.8h-2.27Z"/><rect class="cls-1" x="12.23" y="132.23" width="2.16" height="3.24"/><polygon class="cls-1" points="4.88 132.79 0.17 132.79 0.17 134.82 2.73 134.82 2.73 152.48 0 152.48 0 154.51 7.41 154.51 7.41 152.48 4.88 152.48 4.88 132.79"/><polygon class="cls-1" points="14.91 138.4 10.2 138.4 10.2 140.44 12.76 140.44 12.76 152.48 10.14 152.48 10.14 154.51 17.46 154.51 17.46 152.48 14.91 152.48 14.91 138.4"/><path class="cls-1" d="M23.79,133.82c-1.41,1.26-1.46,2.71-1.52,4.47v.11H19.71v2.09H22.3v12H19.71v2h7.35v-2H24.45v-12h2.61V138.4H24.45v-.35c0-1.16.05-2.17,1-2.9a3.58,3.58,0,0,1,2.05-.73h.11v-1.95h-.12a5.76,5.76,0,0,0-3.73,1.35"/><path class="cls-1" d="M32.26,145.56a6.12,6.12,0,0,1,12.09,0Zm5.9-7.16A8.23,8.23,0,1,0,45.79,150l.07-.17H43.53l0,.06a6.07,6.07,0,0,1-11.25-2.51h14.2v-.71a8.19,8.19,0,0,0-8.28-8.29"/><path class="cls-1" d="M53.8,154.94A2.79,2.79,0,1,0,51,152.15a2.79,2.79,0,0,0,2.79,2.79"/><path class="cls-1" d="M227.69,0H71A29,29,0,0,0,44.41,17.27L13.47,91.8a1.61,1.61,0,0,0-.13.63A1.64,1.64,0,0,0,15,94.05H85.75c5,0,7.22-4.84,3.3-8.71L63.06,61C49.4,47.63,55.26,16.58,83.63,16.58H222.18a1.64,1.64,0,0,0,1.55-1.09l5.48-13.25a1.59,1.59,0,0,0,.12-.62A1.62,1.62,0,0,0,227.69,0Z"/><path class="cls-1" d="M212.08,37.93l-26.61,0a4.3,4.3,0,0,0-4,2.63l-29.81,72a1.58,1.58,0,0,0-.19.75,1.63,1.63,0,0,0,1.64,1.61h9.93A29,29,0,0,0,189.87,97.3l0,0,23.69-57.19a1.73,1.73,0,0,0,.12-.6A1.62,1.62,0,0,0,212.08,37.93Z"/><path class="cls-1" d="M159.78,39.55a1.63,1.63,0,0,0-1.64-1.62H82.71c-4.09,0-7.67,5-3.34,9l24.92,23.19s10.09,9.3,7.93,22.61c-1.91,11.72-9.9,18.89-15.69,21.47h0a.4.4,0,0,0,.18.77h29.07a4.29,4.29,0,0,0,4-2.63l29.92-72.24A1.39,1.39,0,0,0,159.78,39.55Z"/></g></g></svg>