<?xml version="1.0" encoding="utf-8"?>
<!-- Generator: Adobe Illustrator 24.0.2, SVG Export Plug-In . SVG Version: 6.00 Build 0)  -->
<svg version="1.1" id="Logo" xmlns="http://www.w3.org/2000/svg" xmlns:xlink="http://www.w3.org/1999/xlink" x="0px" y="0px"
	 viewBox="0 0 323.38 248.66" style="enable-background:new 0 0 323.38 248.66;" xml:space="preserve">
<style type="text/css">
	.st0{fill:#03234B;}
</style>
<g>
	<g>
		<g>
			<path class="st0" d="M117.08,199.94c-3.64,0-6.39-2.72-6.39-6.33c0-4.23,3.21-6.45,6.39-6.45c3.44,0,6.24,2.88,6.24,6.42
				C123.32,197.15,120.58,199.94,117.08,199.94 M123.2,188.11c-1.88-2.71-4.89-3.01-6.13-3.01c-5.42,0-8.65,4.28-8.65,8.42
				c0,4.76,3.8,8.48,8.65,8.48c1.22,0,4.22-0.3,6.13-2.99v2.63h2.27v-16.1h-2.27V188.11z"/>
			<path class="st0" d="M141.76,194.05c0,2.82-0.77,3.82-1.62,4.68c-0.84,0.84-1.91,1.25-3.28,1.25c-1.53,0-2.74-0.5-3.6-1.47
				c-0.74-0.93-1.11-2.28-1.11-4.11v-8.86h-2.27v8.89c0,2.28,0.48,4.02,1.42,5.18c0.73,0.91,2.41,2.42,5.55,2.42
				c3.15,0,4.56-1.81,5.02-2.62v2.22h2.15v-16.1h-2.27V194.05z"/>
			<path class="st0" d="M154.99,199.94c-3.39,0-6.15-2.85-6.15-6.36c0-3.54,2.76-6.42,6.15-6.42c3.41,0,6.18,2.88,6.18,6.42
				C161.18,196.14,159.21,199.94,154.99,199.94 M161.06,188.17c-1.94-2.77-4.87-3.07-6.07-3.07c-4.05,0-8.42,3.26-8.42,8.54
				c0,5.17,4.37,8.36,8.42,8.36c2,0,4.76-0.83,6.07-3.07V200c0,4.28-3.04,5.81-5.63,5.81c-3.85,0-5.37-2.75-5.84-3.93l-0.03-0.08
				h-2.39l0.04,0.15c1.61,5.5,6.72,5.92,8.24,5.92c0.43,0,4.31-0.08,6.4-2.98c1.47-1.98,1.47-4.14,1.47-5.88v-13.48h-2.27V188.17z"
				/>
			<path class="st0" d="M183.92,185.12c-1.42,0-4.09,0.62-5.34,2.91c-1.25-2.29-3.93-2.91-5.35-2.91c-1.45,0-3.27,0.62-4.21,1.96
				v-1.55h-2.27v16.12h2.27v-9.32c0-1.65,0.28-2.49,0.71-3.25c0.72-1.22,1.96-1.89,3.5-1.89c1.54,0,2.78,0.67,3.5,1.89
				c0.43,0.76,0.71,1.61,0.71,3.25v9.32h2.27v-9.32c0-1.65,0.28-2.49,0.71-3.25c0.72-1.22,1.96-1.89,3.5-1.89
				c1.54,0,2.78,0.67,3.5,1.89c0.43,0.76,0.71,1.61,0.71,3.25v9.32h2.27v-9.56C190.4,186.59,186.33,185.12,183.92,185.12"/>
			<path class="st0" d="M195.41,192.37c0.6-3.41,3.47-5.19,6.04-5.19c2.47,0,5.4,1.63,6.07,5.19H195.41z M201.42,185.11
				c-4.61,0.09-8.36,3.89-8.36,8.48c0,4.64,3.77,8.42,8.39,8.42c3.56,0,6.75-2.27,7.92-5.65l0.06-0.16h-2.4l-0.03,0.08
				c-0.61,1.65-2.44,3.61-5.58,3.67c-3.04,0-5.82-2.56-6.03-5.51h14.45l0.01-0.11c0.11-1.9-0.31-3.61-1.23-5.09
				C207.48,187.26,205,185.14,201.42,185.11"/>
			<path class="st0" d="M219.98,185.12c-2.38,0-4.04,1.16-4.82,2.26v-1.86h-2.27v16.12h2.27v-8.86c-0.03-1.83,0.49-3.34,1.45-4.27
				c1.27-1.24,2.9-1.33,3.37-1.33c0.47,0,2.1,0.1,3.37,1.33c0.95,0.92,1.47,2.44,1.47,4.27v8.86h2.27v-8.86
				c0-2.44-0.69-4.41-2.01-5.69C223.72,185.73,222.15,185.12,219.98,185.12"/>
			<polygon class="st0" points="235.2,179.91 232.93,179.91 232.93,185.53 229.6,185.53 229.6,187.6 232.93,187.6 232.93,201.65 
				235.2,201.65 235.2,187.6 239.01,187.6 239.01,185.53 235.2,185.53 			"/>
			<path class="st0" d="M242.65,192.36c0.6-3.41,3.48-5.19,6.05-5.19c2.47,0,5.4,1.63,6.07,5.19H242.65z M248.67,185.1
				c-4.61,0.09-8.36,3.89-8.36,8.48c0,4.64,3.76,8.42,8.39,8.42c3.56,0,6.74-2.27,7.92-5.65l0.06-0.16h-2.4l-0.03,0.08
				c-0.61,1.65-2.43,3.61-5.58,3.67c-3.03,0-5.82-2.56-6.03-5.51h14.45l0.01-0.11c0.11-1.9-0.31-3.61-1.23-5.09
				C254.73,187.25,252.24,185.13,248.67,185.1"/>
			<path class="st0" d="M268,199.95c-3.64,0-6.39-2.72-6.39-6.33c0-4.23,3.21-6.44,6.39-6.44c3.44,0,6.24,2.88,6.24,6.42
				C274.24,197.16,271.5,199.95,268,199.95 M274.12,179.92v8.17c-2.04-2.75-5.19-2.97-6.13-2.97c-5.42,0-8.65,4.28-8.65,8.42
				c0,4.75,3.8,8.48,8.65,8.48c1.95,0,4.57-0.8,6.13-2.99v2.62h2.27v-21.72H274.12z"/>
		</g>
		<g>
			<rect x="59.3" y="179.36" class="st0" width="2.16" height="3.24"/>
			<polygon class="st0" points="51.95,179.92 47.24,179.92 47.24,181.95 49.8,181.95 49.8,199.61 47.07,199.61 47.07,201.64 
				54.48,201.64 54.48,199.61 51.95,199.61 			"/>
			<polygon class="st0" points="61.98,185.53 57.27,185.53 57.27,187.57 59.83,187.57 59.83,199.61 57.21,199.61 57.21,201.64 
				64.53,201.64 64.53,199.61 61.98,199.61 			"/>
			<path class="st0" d="M70.86,180.95c-1.41,1.26-1.46,2.71-1.52,4.47v0.11h-2.56v2.09h2.59v11.98h-2.59v2.04h7.35v-2.04h-2.61
				v-11.98h2.61v-2.09h-2.61l0-0.35c0.03-1.16,0.05-2.17,1.03-2.9c0.52-0.43,1.2-0.66,2.05-0.73l0.11-0.01v-1.95l-0.12,0.01
				C72.9,179.72,71.75,180.13,70.86,180.95"/>
			<path class="st0" d="M79.33,192.69c0.42-2.85,3.02-5.15,5.87-5.15c3.14,0,5.74,2.16,6.22,5.15H79.33z M85.23,185.53
				c-4.47,0-8.11,3.73-8.11,8.32c0,4.49,3.69,8.14,8.23,8.14c3.24,0,6.19-1.9,7.51-4.84l0.07-0.17h-2.33l-0.04,0.06
				c-1.08,1.88-3.01,2.96-5.28,2.96c-3.14,0-5.73-2.39-5.97-5.47h14.2v-0.71C93.52,189.17,89.88,185.53,85.23,185.53"/>
			<path class="st0" d="M100.87,202.07c1.54,0,2.79-1.25,2.79-2.79c0-1.54-1.25-2.79-2.79-2.79c-1.54,0-2.79,1.25-2.79,2.79
				C98.08,200.82,99.33,202.07,100.87,202.07"/>
		</g>
	</g>
	<path class="st0" d="M274.76,47.13l-156.74,0.01c0,0,0.01,0.01,0.01,0.01c-11.89,0-22.11,7.11-26.55,17.25l-30.94,74.53
		c-0.08,0.19-0.13,0.4-0.13,0.63c0,0.89,0.74,1.62,1.64,1.62l70.77,0c5.03,0,7.22-4.84,3.3-8.71l-25.99-24.32
		c-13.66-13.39-7.8-44.44,20.57-44.44h138.55c0.72,0,1.33-0.46,1.55-1.09l5.48-13.25c0.08-0.19,0.12-0.4,0.12-0.62
		C276.4,47.85,275.67,47.13,274.76,47.13z"/>
	<path class="st0" d="M259.15,85.06l-26.61,0.03c-1.79,0-3.34,1.08-3.98,2.63l-29.81,72.03c-0.12,0.22-0.19,0.48-0.19,0.75
		c0,0.89,0.74,1.61,1.64,1.61l9.93,0l0-0.01c12.06,0,22.47-7.3,26.81-17.67c0,0,0.02,0.01,0.03,0.02l23.69-57.19
		c0.07-0.19,0.12-0.39,0.12-0.6C260.78,85.78,260.05,85.06,259.15,85.06z"/>
	<path class="st0" d="M206.85,86.68c0-0.9-0.74-1.62-1.64-1.62h-75.43c-4.09,0-7.67,5.03-3.34,9.02l24.92,23.19
		c0,0,10.09,9.3,7.93,22.61c-1.91,11.72-9.9,18.89-15.69,21.47l-0.02,0c-0.14,0.07-0.23,0.21-0.23,0.36c0,0.22,0.18,0.41,0.41,0.41
		l29.07,0c1.8,0,3.34-1.08,3.98-2.63l29.92-72.24C206.81,87.07,206.85,86.88,206.85,86.68z"/>
</g>
</svg>
