<svg xmlns="http://www.w3.org/2000/svg" viewBox="0 0 512 512"><path d="M392.4 136.5c66.1 0 119.6 53.5 119.6 119.6 0 66-53.5 119.6-119.6 119.6H128.7c-9.4 0-17.1-7.6-17.1-17.1 0-9.4 7.6-17.1 17.1-17.1h61.4c9.4 0 17-7.6 17-17.1s-7.6-17.1-17-17.1h-13.7c-9.4 0-17.1-7.6-17.1-17.1 0-9.4 7.6-17.1 17.1-17.1h41c9.5 0 16.8-7.8 17.1-17.1 0-9.4-7.6-17.1-17.1-17.1H74c-9.4 0-17.1-7.6-17.1-17.1 0-9.4 7.6-17.1 17.1-17.1h105.8c9.5 0 16.8-7.8 17.1-17.1 0-9.4-7.6-17.1-17.1-17.1H156c-9.4 0-17.1-7.6-17.1-17.1 0-9.4 7.6-17.5 17.1-17.5l236.4.6zm-19.1 39.8c-36.7 0-66.4 29.8-66.4 66.4v26.6c0 36.7 29.7 66.4 66.4 66.4s66.4-29.7 66.4-66.4v-26.6c0-36.6-29.8-66.4-66.4-66.4zm22.7 62.9c8.8 0 16 7.2 16 16v2.1c0 8.8-7.2 16-16 16h-49.9c-8.8 0-16-7.2-16-16v-2.1c0-8.8 7.2-16 16-16H396zM75.1 341.6c8.9 0 16 7.1 16 16v2.1c0 8.8-7.1 16-16 16H16c-8.8 0-16-7.2-16-16v-2.1c0-8.9 7.2-16 16-16h59.1z"/><path d="M102.4 136.7c8.8 0 16 7.2 16 16v2.1c0 8.8-7.1 16-16 16H36.5c-8.8 0-16-7.1-16-16v-2.1c0-8.8 7.2-16 16-16h65.9zM122.9 273.3c8.8 0 16 7.2 16 16v2.1c0 8.8-7.2 16-16 16H86.7c-8.8 0-16-7.2-16-16v-2.1c0-8.8 7.2-16 16-16h36.2z"/></svg>