<?xml version="1.0" encoding="utf-8"?>
<!-- Generator: Adobe Illustrator 25.4.1, SVG Export Plug-In . SVG Version: 6.00 Build 0)  -->
<svg version="1.1" id="Layer_1" xmlns="http://www.w3.org/2000/svg" xmlns:xlink="http://www.w3.org/1999/xlink" x="0px" y="0px"
	 viewBox="0 0 465.4 99.2" style="enable-background:new 0 0 465.4 99.2;" xml:space="preserve">
<style type="text/css">
	.st0{fill:url(#SVGID_1_);}
	.st1{clip-path:url(#SVGID_00000159471022870742911200000012307638804059765151_);fill:#00ADEE;}
	.st2{clip-path:url(#SVGID_00000159471022870742911200000012307638804059765151_);}
	.st3{fill:#00ADEE;}
	.st4{clip-path:url(#SVGID_00000163775093204414607100000011621143813505874059_);fill:#FFFFFF;}
	.st5{fill:#FFFFFF;}
	.st6{fill:#26A9E0;}
</style>
<linearGradient id="SVGID_1_" gradientUnits="userSpaceOnUse" x1="-37.23" y1="48.5085" x2="404.2002" y2="48.5085" gradientTransform="matrix(1.0221 0 0 1 65.7326 0)">
	<stop  offset="0.4731" style="stop-color:#231F20"/>
	<stop  offset="0.566" style="stop-color:#1B3D4C;stop-opacity:0.8237"/>
	<stop  offset="0.7185" style="stop-color:#106A8D;stop-opacity:0.5342"/>
	<stop  offset="0.8469" style="stop-color:#078BBD;stop-opacity:0.2905"/>
	<stop  offset="0.9446" style="stop-color:#029FDB;stop-opacity:0.1051"/>
	<stop  offset="1" style="stop-color:#00A7E6;stop-opacity:0"/>
</linearGradient>
<path class="st0" d="M406.4,88.2H143.9c-19.7,0-35.6-16-35.6-35.6v-8.1c0-19.7,16-35.6,35.6-35.6h262.4c19.7,0,35.6,16,35.6,35.6
	v8.1C442,72.2,426,88.2,406.4,88.2z"/>
<g>
	<defs>
		<rect id="SVGID_00000000918901735223884010000000021387515353330343_" x="17.6" y="8.6" width="546.2" height="79.9"/>
	</defs>
	<clipPath id="SVGID_00000018935395237782446660000002205928825309730746_">
		<use xlink:href="#SVGID_00000000918901735223884010000000021387515353330343_"  style="overflow:visible;"/>
	</clipPath>
	<path style="clip-path:url(#SVGID_00000018935395237782446660000002205928825309730746_);fill:#00ADEE;" d="M41.4,77.4
		c2.7,0,5.1,2.4,5.1,5.3v0.6c0,2.9-2.3,5.3-5.1,5.3H22.7c-2.7,0-5.1-2.4-5.1-5.3v-0.6c0-2.9,2.3-5.3,5.1-5.3H41.4"/>
	<path style="clip-path:url(#SVGID_00000018935395237782446660000002205928825309730746_);" d="M142.5,119.6c2.7,0,5.1,2.4,5.1,5.3
		v0.6c0,2.9-2.3,5.3-5.1,5.3h-18.8c-2.7,0-5.1-2.4-5.1-5.3v-0.6c0-2.9,2.3-5.3,5.1-5.3H142.5"/>
	<path style="clip-path:url(#SVGID_00000018935395237782446660000002205928825309730746_);" d="M142.5,119.6c2.7,0,5.1,2.4,5.1,5.3
		v0.6c0,2.9-2.3,5.3-5.1,5.3h-18.8c-2.7,0-5.1-2.4-5.1-5.3v-0.6c0-2.9,2.3-5.3,5.1-5.3H142.5"/>
	<path style="clip-path:url(#SVGID_00000018935395237782446660000002205928825309730746_);fill:#00ADEE;" d="M136.2,22.6L136.2,22.6
		c-11.7,0-21.1,9.8-21.1,22.1v8.8c0,12.3,9.4,22.1,21.1,22.1s21.1-9.8,21.1-22.1v-8.8C157.3,32.6,147.7,22.6,136.2,22.6z
		 M143.4,43.5c2.7,0,5.1,2.5,5.1,5.3v0.6c0,2.9-2.3,5.3-5.1,5.3h-15.8c-2.7,0-5.1-2.5-5.1-5.3v-0.6c0-2.9,2.3-5.3,5.1-5.3H143.4z
		 M142.1,8.6C163,8.6,180,26.5,180,48.4s-17,39.8-37.9,39.8H58.2c-2.9,0-5.5-2.5-5.5-5.7c0-3.1,2.3-5.7,5.5-5.7h19.5
		c2.9,0,5.5-2.5,5.5-5.7c0-3.1-2.3-5.7-5.5-5.7h-4.3c-2.9,0-5.5-2.5-5.5-5.7c0-3.1,2.3-5.7,5.5-5.7h13.1c2.9,0,5.3-2.7,5.5-5.7
		c0-3.1-2.3-5.7-5.5-5.7H41c-2.9,0-5.5-2.5-5.5-5.7c0-3.3,2.3-5.7,5.5-5.7h33.6c2.9,0,5.3-2.7,5.5-5.7c0-3.1-2.3-5.7-5.5-5.7H67
		c-2.9,0-5.6-2.5-5.5-5.7c0.2-5.4,4.3-4.9,3.2-4.9C63.7,8.6,142.1,8.6,142.1,8.6"/>
</g>
<path class="st3" d="M54.9,53.8c2.7,0,5,2.5,5,5.4v0.6c0,2.9-2.3,5.4-5,5.4H43.5c-2.7,0-5-2.5-5-5.4v-0.6c0-2.9,2.3-5.4,5-5.4H54.9"
	/>
<g>
	<g>
		<defs>
			<rect id="SVGID_00000019679326680683782260000003368750967886858405_" x="46.8" y="26" width="314.2" height="44.1"/>
		</defs>
		<clipPath id="SVGID_00000063612783806240767140000007797484579729460396_">
			<use xlink:href="#SVGID_00000019679326680683782260000003368750967886858405_"  style="overflow:visible;"/>
		</clipPath>
		<path style="clip-path:url(#SVGID_00000063612783806240767140000007797484579729460396_);fill:#FFFFFF;" d="M343.4,26.5
			c0,0,1.9,0,2.7,0.6c0,0,0.8,0.6,1.5,2.4l13.4,39.1c0,0,0.2,0.4,0,0.9c0,0-0.1,0.5-0.8,0.5h-5.7c0,0-0.7,0-1.1-0.1
			c0,0-0.4-0.1-0.7-0.8l-2.7-8.4h-15.7l-2.6,8.3c0,0-0.2,0.6-0.6,0.8c0,0-0.3,0.2-1.1,0.2h-5.7c0,0-0.7,0-0.9-0.5c0,0-0.2-0.4,0-0.9
			l13.4-39.1c0,0,0.3-0.9,0.7-1.5c0,0,0.3-0.6,0.8-0.9c0,0,0.4-0.3,1.1-0.4c0,0,0.6-0.1,1.5-0.1H343.4 M342.1,34.9h-0.3l-2.6,8.5
			L335.9,54h11.9l-3.3-10.3L342.1,34.9z"/>
	</g>
	<path class="st5" d="M231.9,26.3c0,0,0.9,0,1.1,0.2c0,0,0.3,0.2,0.3,1.1v16.1h19.2V27.5c0,0,0-0.8,0.3-1c0,0,0.3-0.2,1.1-0.2h4.7
		c0,0,0.9,0,1.1,0.2c0,0,0.2,0.2,0.2,1.1v40.7c0,0,0,0.9-0.2,1.1c0,0-0.2,0.2-1.1,0.2H254c0,0-0.8,0-1.1-0.2c0,0-0.3-0.2-0.3-1V50.1
		h-19.2v18.2c0,0,0,0.9-0.3,1.1c0,0-0.3,0.2-1.1,0.2h-4.7c0,0-0.7,0-1-0.2c0,0-0.3-0.2-0.3-1V27.8c0,0,0-0.8,0.3-1
		c0,0,0.3-0.2,1-0.2h4.7V26.3"/>
	<path class="st5" d="M219.3,26.4c0,0,0.7,0,0.9,0.2c0,0,0.2,0.2,0.2,0.9v4.3c0,0,0,0.7-0.2,0.9c0,0-0.2,0.2-0.9,0.2h-11.7v35.4
		c0,0,0,0.9-0.2,1.1c0,0-0.2,0.2-1.1,0.2h-4.8c0,0-0.8,0-1.1-0.2c0,0-0.3-0.2-0.3-1V32.9h-11.5c0,0-0.7,0-0.9-0.2
		c0,0-0.2-0.2-0.2-0.9v-4.3c0,0,0-0.7,0.2-0.9c0,0,0.2-0.2,0.9-0.2H219.3"/>
	<path class="st5" d="M296.8,26.4c0,0,0.8,0,1,0.3c0,0,0.2,0.3,0.2,1.1v3.9c0,0,0,0.8-0.2,1.1c0,0-0.2,0.2-1,0.2h-16.4
		c0,0-2.4,0-3.3,1c0,0-0.9,1-0.9,3v6.5h18.7c0,0,0.8,0,1,0.3c0,0,0.2,0.3,0.2,1.1v3.4c0,0,0,0.8-0.2,1.1c0,0-0.2,0.3-1,0.3h-18.7v9
		c0,0,0,2,1,3c0,0,1,1,3.3,1h16.9c0,0,0.9,0,1.1,0.3c0,0,0.2,0.3,0.2,1.1v3.8c0,0,0,0.7-0.2,1c0,0-0.2,0.3-1,0.3h-17.7
		c0,0-3.3,0-5.4-0.9c0,0-2.1-0.9-3.4-2.5c0,0-1.2-1.6-1.8-3.5c0,0-0.4-2-0.4-4.2V37.5c0,0,0-2.1,0.6-4.2c0,0,0.6-2,1.9-3.6
		c0,0,1.3-1.6,3.5-2.5c0,0,2.1-0.9,5.1-0.9H296.8"/>
	<path class="st5" d="M313.8,26.3c0,0,0.9,0,1.1,0.2c0,0,0.3,0.2,0.3,1.1v40.7c0,0,0,0.9-0.3,1.1c0,0-0.3,0.2-1.1,0.2h-4.7
		c0,0-0.8,0-1.1-0.2c0,0-0.3-0.2-0.3-1V27.5c0,0,0-0.8,0.3-1c0,0,0.3-0.2,1.1-0.2H313.8"/>
</g>
<circle class="st6" cx="413.6" cy="48.9" r="40.1"/>
<g>
	<g>
		<g>
			<path class="st5" d="M424.4,58.9V35.1h3.7l9.7,15.7V35.1h4.6v23.8h-3.7l-9.7-15.7v15.7H424.4z"/>
		</g>
	</g>
	<g>
		<g>
			<path class="st5" d="M391.8,59.1c-1.4,0-2.6-0.2-3.6-0.5c-1-0.3-1.9-0.9-2.6-1.8c-0.7-0.9-1.3-2.1-1.6-3.7
				c-0.4-1.6-0.5-3.7-0.5-6.2c0-2.5,0.2-4.5,0.6-6.1c0.4-1.6,0.9-2.8,1.7-3.7c0.7-0.9,1.6-1.5,2.7-1.8c1-0.3,2.2-0.5,3.5-0.5
				c1,0,2,0.1,2.9,0.2c0.9,0.1,1.7,0.3,2.5,0.4c0.7,0.2,1.3,0.3,1.9,0.5v3.7c-0.4-0.1-0.9-0.2-1.5-0.3c-0.6-0.1-1.4-0.2-2.2-0.2
				c-0.8-0.1-1.7-0.1-2.6-0.1c-0.9,0-1.6,0.1-2.2,0.3c-0.6,0.2-1.1,0.6-1.5,1.1c-0.4,0.5-0.6,1.3-0.8,2.4s-0.3,2.4-0.3,4
				c0,1.6,0.1,2.9,0.2,3.9c0.2,1,0.4,1.8,0.8,2.4c0.4,0.6,0.8,1,1.5,1.2c0.6,0.2,1.4,0.3,2.3,0.3c1.6,0,2.9,0,3.9-0.1
				c1-0.1,1.8-0.1,2.4-0.2v3.7c-0.6,0.2-1.2,0.4-1.9,0.5c-0.7,0.1-1.5,0.2-2.4,0.3C393.9,59.1,392.9,59.1,391.8,59.1z"/>
		</g>
	</g>
	<g>
		<g>
			<path class="st5" d="M411.6,59.3c-1.6,0-3-0.2-4.2-0.5c-1.2-0.3-2.2-0.9-3-1.7c-0.8-0.8-1.4-2.1-1.8-3.7
				c-0.4-1.6-0.6-3.7-0.6-6.2c0-2.6,0.2-4.6,0.6-6.2c0.4-1.6,1-2.8,1.8-3.7c0.8-0.9,1.8-1.4,3-1.8c1.2-0.3,2.6-0.5,4.2-0.5
				s3,0.2,4.2,0.5c1.2,0.3,2.2,0.9,3,1.8c0.8,0.9,1.4,2.1,1.8,3.7c0.4,1.6,0.6,3.7,0.6,6.2c0,2.6-0.2,4.6-0.6,6.2
				c-0.4,1.6-1,2.8-1.8,3.7c-0.8,0.8-1.8,1.4-3,1.7C414.6,59.2,413.2,59.3,411.6,59.3z M411.6,55.1c0.9,0,1.7-0.1,2.4-0.3
				c0.6-0.2,1.1-0.6,1.5-1.1c0.4-0.5,0.6-1.3,0.8-2.4c0.2-1,0.3-2.3,0.3-4c0-1.7-0.1-3.1-0.3-4.1c-0.2-1-0.4-1.8-0.8-2.4
				c-0.4-0.5-0.9-0.9-1.5-1.1c-0.6-0.2-1.4-0.3-2.4-0.3c-0.9,0-1.7,0.1-2.3,0.3c-0.6,0.2-1.1,0.6-1.5,1.1c-0.4,0.5-0.7,1.3-0.8,2.4
				c-0.2,1-0.3,2.4-0.3,4.1c0,1.6,0.1,3,0.2,4c0.2,1,0.4,1.8,0.8,2.4c0.4,0.5,0.9,0.9,1.5,1.1C409.9,54.9,410.7,55.1,411.6,55.1z"/>
		</g>
	</g>
</g>
</svg>
