<svg viewBox="0 0 512 128" xmlns="http://www.w3.org/2000/svg" fill-rule="evenodd" clip-rule="evenodd" stroke-linejoin="round" stroke-miterlimit="2"><path d="M272.291 127.992h-23.935V.008h40.083c9.264 0 17.196.9 23.796 2.699 6.599 1.8 12.012 4.322 16.239 7.568a29.516 29.516 0 019.293 11.637 38.756 38.756 0 012.955 14.541v1.229c-.009.284-.009.568-.039.851v-.001a38.701 38.701 0 01-1.974 10.512 34.805 34.805 0 01-5.823 10.44 38.552 38.552 0 01-9.389 8.232c-3.725 2.36-6.042 4.453-10.802 5.869 3.194 1.714 4.22 3.015 6.528 6.202L352.848 128l-22.544-.008a11.605 11.605 0 01-5.582-1.239 11.147 11.147 0 01-3.9-3.544l-28.534-40.976a9.748 9.748 0 00-3.52-3.276c-1.28-.649-3.172-.974-5.676-.977h-10.801v50.012zM101.328 23.809H62.707V128h-23.88V23.809H.025V.008h101.303v23.801zm318.838 104.165l-.177.009v-.01c-37.122-.226-67.141-28.783-67.141-63.977l.002-.992c0-29.483 19.473-54.498 48.339-62.343.276-.109.558-.203.844-.281 2.76-.742 5.368 0 5.823 1.647a2.233 2.233 0 01-.304 1.736c-22.355 5.929-38.877 26.864-38.877 51.781a54.798 54.798 0 004.134 20.96 51.235 51.235 0 003.074 6.252c8.98 15.635 25.46 26.145 44.327 26.247 18.867-.102 35.347-10.612 44.327-26.247a75.612 75.612 0 00.463-.819 51.235 51.235 0 002.969-6.325 54.798 54.798 0 003.776-20.068c0-24.917-16.522-45.852-38.877-51.781a2.225 2.225 0 01-.304-1.736c.455-1.647 3.062-2.389 5.823-1.647.286.078.568.172.844.281 28.866 7.845 48.339 32.86 48.339 62.343l.001.992c0 35.194-30.018 63.751-67.14 63.977v.01a5.242 5.242 0 01-.177-.009h-.088zm-251.521 0l-.177.009v-.01c-37.122-.226-67.14-28.783-67.14-63.977l.001-.992c0-29.483 19.473-54.498 48.339-62.343.276-.109.558-.203.844-.281 2.761-.742 5.368 0 5.824 1.647a2.233 2.233 0 01-.304 1.736c-22.356 5.929-38.877 26.864-38.877 51.781a54.776 54.776 0 003.996 20.624l.137.336a51.235 51.235 0 002.611 5.433l.271.485.192.334c8.98 15.635 25.46 26.145 44.327 26.247 18.868-.102 35.348-10.612 44.327-26.247a46.062 46.062 0 00.463-.819 51.235 51.235 0 002.611-5.433l.138-.336a54.798 54.798 0 003.996-20.624c0-24.917-16.521-45.852-38.877-51.781a2.233 2.233 0 01-.304-1.736c.455-1.647 3.063-2.389 5.823-1.647.286.078.568.172.844.281 28.866 7.845 48.339 32.86 48.339 62.343l.002.992c0 35.194-30.019 63.751-67.141 63.977v.01a5.32 5.32 0 01-.176-.009h-.089zM288.784 19.543h-16.713l.22 41.357h15.773c14.516.256 21.746-5.679 25.327-11.617 4.282-7.107 3.333-14.214 3.377-10.695l-.001-.11.001.11h-.001v-.197c-.098-14.319-10.857-18.848-27.983-18.848zm27.983 18.935v-.087.041l.001.156-.001-.11zm194.118-21.891a12.057 12.057 0 01-2.54 3.798 11.884 11.884 0 01-3.808 2.538 11.785 11.785 0 01-9.241 0 11.678 11.678 0 01-6.336-6.336 11.763 11.763 0 010-9.246 11.684 11.684 0 016.336-6.336 11.803 11.803 0 019.241 0 11.903 11.903 0 013.808 2.539 12.033 12.033 0 012.54 3.799 11.836 11.836 0 010 9.244zm-1.958-8.423a9.657 9.657 0 00-5.203-5.202 9.697 9.697 0 00-7.603 0 9.66 9.66 0 00-5.203 5.202 9.71 9.71 0 000 7.598 9.655 9.655 0 005.203 5.201 9.688 9.688 0 007.603 0 9.652 9.652 0 005.203-5.201 9.71 9.71 0 000-7.598zm-11.052 5.526v4.649a.383.383 0 01-.128.306.397.397 0 01-.301.121h-1.799a.405.405 0 01-.403-.403l.001-.024V5.586l-.001-.022c0-.221.182-.403.402-.403H499.571a7.369 7.369 0 012.521.32 3.432 3.432 0 011.786 1.449 4.645 4.645 0 01.089 4.589 3.604 3.604 0 01-1.536 1.454c.052.09.09.161.122.214l2.726 4.955a.409.409 0 01-.019.411l-.365.213h-2.016a.366.366 0 01-.364-.227l-2.586-4.849h-2.054zm2.156-2.405c.498.032.986-.146 1.344-.491.343-.381.518-.884.487-1.395a1.682 1.682 0 00-.794-1.607 3.6 3.6 0 00-1.561-.239h-1.632v3.732h2.156z" fill="#5eb6e4"/></svg>