<?xml version="1.0" encoding="UTF-8"?>
<!DOCTYPE svg PUBLIC "-//W3C//DTD SVG 1.1//EN" "http://www.w3.org/Graphics/SVG/1.1/DTD/svg11.dtd">
<svg version="1.1" xmlns="http://www.w3.org/2000/svg" xmlns:xlink="http://www.w3.org/1999/xlink" x="0" y="0" width="707" height="147" viewBox="0, 0, 707, 147">
  <g id="Layer_1">
    <g>
      <path d="M14.35,100.441 C4.581,81.313 4.228,64.219 10.202,49.197 C17.149,31.726 32.66,17.175 51.824,5.554 L54.489,3.939 L54.471,7.051 L54.351,29.185 C64.673,29.387 73.82,31.586 82.943,33.78 C96.641,37.073 108.075,40.494 121.434,38.509 C132.906,36.813 107.466,60.966 72.062,68.215 C49.346,72.869 37.572,85.814 34.149,99.317 C32.244,106.828 32.909,114.511 35.698,121.016 C38.462,127.459 43.319,132.744 49.823,135.533 C58.136,139.097 69.192,138.612 82.13,131.367 C87.016,131.199 91.904,130.596 96.785,129.641 C97.501,129.502 98.217,129.354 98.931,129.2 L97.821,130.085 C77.49,146.313 59.681,148.23 46.813,142.488 C38.645,138.843 32.496,132.111 28.965,123.977 C25.458,115.898 24.532,106.425 26.778,97.234 C30.701,81.182 44.246,65.979 70.507,60.599 C77.866,59.091 85.8,57.193 93.152,54.336 C98.749,52.16 104.019,49.423 108.442,45.874 C102.186,45.826 94.971,44.094 86.921,42.162 C75.543,39.429 62.438,36.282 48.387,37.108 L46.532,37.219 L46.541,35.359 L46.64,17.995 C32.266,27.792 21.545,39.766 16.8,53.488 C13.086,64.226 13.029,76.09 17.74,88.885 C17.036,90.682 16.461,92.505 16.014,94.338 C15.432,96.719 15.063,99.121 14.896,101.512 z" fill="#FFFFFF"/>
      <path d="M55.279,45.686 L61.074,39.553 L69.262,46.444 z" fill="#FFFFFF"/>
      <path d="M38.318,108.433 C58.868,118.053 77.639,116.24 95.294,108.881 C113.157,101.433 129.984,88.29 146.356,75.496 C151.429,71.533 156.462,67.602 161.479,63.865 L135.319,72.098 L148.183,41.564 L146.221,42.148 C141.931,45.838 137.859,50.307 134.001,55.545 C127.699,64.101 121.975,74.699 116.819,87.291 C113.227,89.664 109.598,91.901 105.93,93.947 C112,77.135 118.97,63.185 126.857,52.166 C135.608,39.939 145.509,31.292 156.58,26.319 C167.902,21.236 180.068,20.495 193.35,23.699 C200.593,25.135 247.155,48.235 234.627,47.45 C207.535,37.484 180.831,58.384 153.841,79.512 L151.14,81.624 C134.388,94.713 117.181,108.156 98.591,116.022 C79.808,123.97 59.728,126.192 37.527,116.607 L36.69,116.246 L36.508,115.343 C36.337,114.495 36.194,113.628 36.083,112.753 C35.968,111.855 35.886,110.972 35.836,110.109 L35.669,107.194 z" fill="#FFFFFF"/>
    </g>
    <path d="M671.246,85.157 L661.756,68.816 L647.47,68.816 L647.47,69.207 L663.32,92.591 L646.492,116.759 L646.492,117.053 L660.777,117.053 L671.246,100.908 L681.715,117.053 L696,117.053 L696,116.759 L679.171,92.591 L695.023,69.207 L695.023,68.816 L680.737,68.816 z M611.205,78.699 C619.229,78.699 624.316,85.743 624.316,92.984 C624.316,100.322 619.913,107.171 611.205,107.171 C602.498,107.171 598.095,100.322 598.095,92.984 C598.095,85.743 602.595,78.699 611.205,78.699 M611.107,67.837 C595.746,67.837 586.157,79.188 586.157,92.984 C586.157,106.877 595.55,118.128 611.205,118.128 C626.86,118.128 636.351,106.877 636.351,92.984 C636.351,79.188 626.469,67.837 611.107,67.837 M537.662,117.053 L537.662,91.711 L572.005,91.711 L572.005,79.774 L537.662,79.774 L537.662,61.086 L573.961,61.086 L573.961,48.66 L524.748,48.66 L524.748,117.053 z M460.622,90.929 C461.7,79.088 470.309,72.338 480.289,72.338 C491.933,72.338 499.76,78.992 499.859,90.929 z M480.289,117.739 C488.019,117.739 496.433,114.606 501.129,108.442 L497.705,105.703 C494.085,110.497 486.65,113.041 480.289,113.041 C470.309,113.041 461.601,106.486 460.622,95.136 L504.163,95.136 C506.022,76.252 493.889,67.935 480.289,67.935 C466.69,67.935 455.731,78.405 455.731,92.886 C455.731,108.246 466.69,117.739 480.289,117.739 M393.466,137.209 L393.466,105.898 C397.574,113.922 405.206,117.934 413.425,117.934 C427.026,117.934 437.985,109.127 437.985,92.886 C437.985,77.328 427.613,68.522 414.502,68.033 C405.108,68.033 397.379,72.828 393.564,80.167 L393.564,68.719 L388.867,68.719 L388.867,137.209 z M413.425,113.334 C402.37,113.334 393.857,104.822 393.857,92.984 C393.857,81.143 402.173,72.631 413.425,72.631 C424.384,72.631 433.19,79.285 433.19,92.886 C433.19,106.486 424.384,113.334 413.425,113.334 M365.642,68.719 L353.509,97.191 L347.932,111.281 L342.256,97.289 L331.005,68.719 L325.818,68.719 L345.192,116.466 L336.289,137.209 L341.375,137.209 L370.827,68.719 z M290.754,117.053 L296.037,117.053 L296.037,53.357 L320.791,53.357 L320.791,48.66 L266,48.66 L266,53.357 L290.754,53.357 z" fill="#FFFFFF"/>
  </g>
</svg>
