<?xml version="1.0" encoding="UTF-8"?>
<!DOCTYPE svg PUBLIC "-//W3C//DTD SVG 1.1//EN" "http://www.w3.org/Graphics/SVG/1.1/DTD/svg11.dtd">
<svg version="1.1" xmlns="http://www.w3.org/2000/svg" xmlns:xlink="http://www.w3.org/1999/xlink" x="0" y="0" width="1000" height="1000" viewBox="-250, -250, 1500, 1500">
  <defs>
    <linearGradient id="grad" x1="100%" y1="100%" x2="0%" y2="0%">
      <stop offset="15%" style="stop-color:rgb(85, 160, 224);stop-opacity:1" />
      <stop offset="85%" style="stop-color:rgb(63, 72, 196);stop-opacity:1" />
    </linearGradient>
  </defs>
  <g id="Page-1" stroke="url(#grad)" stroke-width="28" fill-opacity="0">
    <path d="M417.053,257.113 L520.884,283.474 C522.558,283.899 523.818,285.28 524.088,286.986 L577.169,622.541 C577.345,624.13 576.954,625.053 575.945,626.236 C575.926,626.264 575.937,626.253 575.916,626.27 C575.618,626.62 575.821,626.409 575.249,626.842 L575.227,626.856 L575.082,626.98 L478.541,689.615 C477.042,690.588 475.098,690.537 473.652,689.486 L273.506,544.099 L181.268,637.841 C180.326,638.798 178.993,639.263 177.661,639.099 L138.856,634.321 C136.489,634.03 134.806,631.874 135.098,629.507 C135.19,628.758 135.476,628.046 135.929,627.443 L224.909,508.797 L104.528,421.352 C102.599,419.95 102.171,417.249 103.573,415.319 C103.937,414.817 104.406,414.399 104.947,414.094 L138.295,395.305 C139.941,394.633 138.933,394.904 141.395,394.862 L142.404,395.234 L263.111,457.858 L412.439,258.744 C413.26,257.761 414.491,256.901 415.86,257.039 L416.188,256.984 L417.053,257.113 z M430.704,384.337 L326.172,490.574 L457.773,558.85 L430.704,384.337 z" />
    <path d="M595.104,115.831 L797.424,163.82 L897.191,773.374 L897.252,773.373 L717.586,884.169 L110.981,784.251 L700.674,776.092 L595.104,115.831 z" />
  </g>
</svg>
