<?xml version="1.0" standalone="no"?>
<!DOCTYPE svg PUBLIC "-//W3C//DTD SVG 1.1//EN" "http://www.w3.org/Graphics/SVG/1.1/DTD/svg11.dtd">
<svg xmlns="http://www.w3.org/2000/svg">
<metadata>Copyright (C) 2017 by original authors @ fontello.com</metadata>
<defs>
<font id="ui-icons" horiz-adv-x="1000" >
<font-face font-family="ui-icons" font-weight="400" font-stretch="normal" units-per-em="1000" ascent="850" descent="-150" />
<missing-glyph horiz-adv-x="1000" />
<glyph glyph-name="cassette-player" unicode="&#xe800;" d="M729 517h-375c-34 0-62-28-62-63v-21h-63c-11 0-21-9-21-20v-250c0-12 10-21 21-21h63v-230c0-34 28-62 62-62h375c35 0 63 28 63 62v542c0 35-28 63-63 63z m-437-125v-84h-42v84h42z m-42-209v84h42v-84h-42z m500-271c0-11-9-20-21-20h-375c-11 0-21 9-21 20v542c0 12 10 21 21 21h375c12 0 21-9 21-21v-542z m-62 63h-292c-12 0-21-9-21-21s9-21 21-21h292c11 0 20 10 20 21s-9 21-20 21z m0 458h-292c-12 0-21-9-21-20v-375c0-12 9-21 21-21h292c11 0 20 9 20 21v375c0 11-9 20-20 20z m-21-375h-250v334h250v-334z m-167 792c-276 0-500-224-500-500v-125c0-11 9-21 21-21h21v-41c0-35 28-63 62-63s63 28 63 63v125c0 34-28 62-63 62s-62-28-62-62v62c0 253 205 458 458 458s458-205 458-458v-62c0 34-28 62-62 62s-63-28-63-62v-125c0-35 28-63 63-63s62 28 62 63v41h21c12 0 21 10 21 21v125c0 276-224 500-500 500z m-417-562c0 11 10 20 21 20 12 0 21-9 21-20v-125c0-12-9-21-21-21-11 0-21 9-21 21v125z m834-125c0-12-10-21-21-21-11 0-21 9-21 21v125c0 11 10 20 21 20 11 0 21-9 21-20v-125z" horiz-adv-x="1000" />

<glyph glyph-name="charlie-chaplin" unicode="&#xe801;" d="M979 413c-11 0-21-10-21-21 0-78-53-142-125-161v286c0 184-149 333-333 333s-333-149-333-333v-286c-72 19-125 83-125 161 0 11-10 21-21 21s-21-10-21-21c0-115 94-209 208-209h584c115 0 208 94 208 209 0 11-9 21-21 21z m-479 395c161 0 292-130 292-291v-167h-584v167c0 161 131 291 292 291z m-292-583v83h584v-83h-584z m230-292l-42-83h208l-41 83z" horiz-adv-x="1000" />

<glyph glyph-name="chef-hat" unicode="&#xe802;" d="M729 746c-19 0-39-4-57-10-31 65-112 114-193 114-81 0-163-49-194-114-18 6-37 10-57 10-92 0-167-75-167-167 0-86 63-155 146-165v-541c0-11 9-20 21-20h501c12 0 21 9 21 20v541c83 10 146 79 146 165 0 92-75 167-167 167z m-480-852v125h459v-125h-459z m480 560c-11 0-21-9-21-21v-372h-83v146c0 11-10 21-21 21s-21-10-21-21v-146h-84v187c0 12-10 21-21 21s-21-9-21-21v-187h-83v146c0 11-9 21-21 21s-20-10-20-21v-146h-84v372c0 12-10 21-21 21-70 0-125 55-125 125 0 69 56 125 125 125 21 0 41-5 59-15 6-3 12-3 18 0 6 2 10 7 12 13 16 58 90 106 162 106 71 0 145-48 161-106 2-6 6-11 12-13 6-3 13-3 18 0 18 10 38 15 59 15 69 0 125-56 125-125 0-70-55-125-125-125z" horiz-adv-x="1000" />

<glyph glyph-name="clock" unicode="&#xe803;" d="M625 350h-125v208c0 12-9 21-21 21s-21-9-21-21v-229c0-11 10-21 21-21h146c12 0 21 10 21 21s-9 21-21 21z m188 500h-625c-104 0-188-84-188-187v-625c0-104 84-188 188-188h625c103 0 187 84 187 188v625c0 103-84 187-187 187z m145-812c0-81-65-146-145-146h-625c-81 0-146 65-146 146v625c0 80 65 145 146 145h625c80 0 145-65 145-145v-625z m-458 687c-207 0-375-168-375-375s168-375 375-375 375 168 375 375-168 375-375 375z m0-708c-184 0-333 149-333 333s149 333 333 333 333-149 333-333-149-333-333-333z" horiz-adv-x="1000" />

<glyph glyph-name="coffee-machine" unicode="&#xe804;" d="M917 850h-771c-12 0-21-9-21-21v-416c0-12 9-21 21-21h62v-104h-20c-12 0-21-10-21-21v-42h-146c-12 0-21-9-21-21s9-21 21-21h146v-20c0-12 9-21 21-21h62v-21c0-12 9-21 21-21s21 9 21 21v21h62c12 0 21 9 21 21v104c0 11-9 21-21 21h-21v104h84v-375h-396c-12 0-21-10-21-21v-125c0-12 9-21 21-21h958c12 0 21 9 21 21v896c0 46-37 83-83 83z m-584-667h-125v63h125v-63z m-41 105h-42v104h42v-104z m-250-313h396c11 0 20 9 20 21v417c0 11-9 20-20 20h-271v375h750c23 0 41-18 41-41v-125h-229c-11 0-21-10-21-21s10-21 21-21h229v-42h-229c-11 0-21-9-21-20s10-21 21-21h229v-42h-229c-11 0-21-9-21-21s10-21 21-21h229v-83h-187c-12 0-21-9-21-21v-437h-708v83z m750-83v416h166v-416h-166z m-500 875c-46 0-84-38-84-84s38-83 84-83c46 0 83 37 83 83s-37 84-83 84z m0-125c-23 0-42 18-42 41s19 42 42 42 41-19 41-42-18-41-41-41z" horiz-adv-x="1000" />

<glyph glyph-name="cog" unicode="&#xe805;" d="M979 433h-119c-8 33-19 70-32 98l85 84c3 4 6 9 6 15 0 5-3 11-6 15l-118 118c-8 8-22 8-30 0l-85-85c-27 13-64 24-97 32v119c0 12-9 21-20 21h-125c-12 0-21-9-21-21v-119c-33-8-70-19-97-32l-85 85c-8 8-21 8-30 0l-117-118c-4-4-7-10-7-15 0-6 3-11 7-15l84-84c-13-28-24-65-32-98h-119c-12 0-21-9-21-20v-125c0-12 9-21 21-21h119c8-33 19-70 32-97l-84-85c-4-4-7-9-7-15 0-5 3-11 7-15l117-118c8-7 22-7 30 0l85 85c27-13 64-24 97-32v-119c0-12 9-21 21-21h125c11 0 20 9 20 21v119c33 8 70 19 97 32l85-85c8-8 22-8 30 0l118 118c8 9 8 22 0 30l-85 85c13 27 24 64 32 97h119c12 0 21 9 21 21v125c0 11-9 20-21 20z m-21-125h-114c-10 0-18-6-20-16-6-23-21-85-40-115-5-8-3-19 3-26l81-81-88-88-81 81c-7 7-18 8-26 3-30-19-92-34-115-40-10-2-16-10-16-20v-114h-84v114c0 10-6 18-16 20-23 6-85 21-115 40-9 5-19 4-26-3l-81-81-88 88 81 81c7 7 8 17 3 26-19 30-34 92-40 115-2 10-10 16-20 16h-114v84h114c10 0 18 6 20 16 6 23 21 85 40 115 5 9 4 19-3 26l-81 81 88 88 81-81c7-6 17-8 26-3 31 19 92 34 115 40 10 2 16 10 16 20v114h84v-114c0-10 6-18 16-20 36-9 88-23 115-40 9-5 19-3 26 3l81 81 88-88-81-81c-6-7-8-17-3-26 19-30 34-92 40-115 2-10 10-16 20-16h114v-84z m-458 250c-115 0-208-93-208-208s93-208 208-208 208 93 208 208-93 208-208 208z m0-375c-92 0-167 75-167 167s75 167 167 167 167-75 167-167-75-167-167-167z" horiz-adv-x="1000" />

<glyph glyph-name="computer-imac" unicode="&#xe806;" d="M917 725h-834c-46 0-83-39-83-87v-618c0-48 37-87 83-87h396v-41h-271c-11 0-20-10-20-21s9-21 20-21h584c11 0 21 9 21 21s-10 21-21 21h-271v41h396c46 0 83 39 83 87v618c0 48-37 87-83 87z m-834-42h834c23 0 41-20 41-45v-496h-916v496c0 25 18 45 41 45z m834-708h-834c-23 0-41 20-41 45v80h916v-80c0-25-18-45-41-45z" horiz-adv-x="1000" />

<glyph glyph-name="computer-network" unicode="&#xe807;" d="M229 475h-170c-9 0-17 9-17 21v21h479c11 0 21 9 21 21v250c0 34-27 62-60 62h-423c-32 0-59-28-59-62v-292c0-35 27-63 59-63h170c12 0 21 10 21 21s-9 21-21 21z m-170 333h423c10 0 18-9 18-20v-230h-458v230c0 11 8 20 17 20z m170-416h-125c-11 0-21-10-21-21s10-21 21-21h125c12 0 21 9 21 21s-9 21-21 21z m684 83h-534c-48 0-87-43-87-96v-350c0-53 39-96 87-96h246v-41h-146c-11 0-21-10-21-21s10-21 21-21h334c11 0 20 9 20 21s-9 21-20 21h-146v41h246c48 0 87 43 87 96v350c0 53-39 96-87 96z m-580-96c0 30 21 54 46 54h534c25 0 45-24 45-54v-279h-625v279z m580-404h-534c-25 0-46 24-46 54v29h625v-29c0-30-20-54-45-54z" horiz-adv-x="1000" />

<glyph glyph-name="computer-pc" unicode="&#xe808;" d="M917 183h-834c-46 0-83-37-83-83v-229c0-12 9-21 21-21h958c12 0 21 9 21 21v229c0 46-37 83-83 83z m41-291h-916v208c0 23 18 42 41 42h834c23 0 41-19 41-42v-208z m-819 333h722c54 0 97 47 97 104v417c0 57-43 104-97 104h-722c-54 0-97-47-97-104v-417c0-57 43-104 97-104z m-56 521c0 34 25 62 56 62h722c31 0 56-28 56-62v-417c0-34-25-62-56-62h-722c-31 0-56 28-56 62v417z m63-438h708c12 0 21 10 21 21v417c0 11-9 21-21 21h-708c-12 0-21-10-21-21v-417c0-11 9-21 21-21z m21 417h666v-375h-666v375z m187-625h-250c-11 0-21-9-21-21s10-21 21-21h250c12 0 21 10 21 21s-9 21-21 21z m-125-83h-125c-11 0-21-10-21-21s10-21 21-21h125c12 0 21 9 21 21s-9 21-21 21z m667 83h-375c-12 0-21-9-21-21v-83c0-12 9-21 21-21h375c11 0 21 9 21 21v83c0 12-10 21-21 21z m-21-83h-333v41h333v-41z" horiz-adv-x="1000" />

<glyph glyph-name="computer-screen-1" unicode="&#xe809;" d="M917 767h-834c-46 0-83-38-83-84v-625c0-46 37-83 83-83h284l-28-83h-131c-11 0-20-10-20-21s9-21 20-21h584c11 0 21 9 21 21s-10 21-21 21h-131l-28 83h284c46 0 83 37 83 83v625c0 46-37 84-83 84z m-300-875h-234l28 83h178l28-83z m341 166c0-23-18-41-41-41h-834c-23 0-41 18-41 41v625c0 23 18 42 41 42h834c23 0 41-19 41-42v-625z m-62 625h-792c-11 0-21-9-21-20v-500c0-12 10-21 21-21h792c11 0 21 9 21 21v500c0 11-10 20-21 20z m-21-500h-750v459h750v-459z" horiz-adv-x="1000" />

<glyph glyph-name="check" unicode="&#xe80a;" d="M0 339q0-35 24-60l246-239q24-25 60-25 36 0 60 25l505 495q25 24 25 59t-25 58q-25 25-60 25t-60-25l-445-435-185 181q-25 24-60 24t-61-24q-24-24-24-59z" horiz-adv-x="920.4" />

<glyph glyph-name="computer-screen-2" unicode="&#xe80b;" d="M938 725h-875c-35 0-63-28-63-63v-499c0-34 26-64 58-70l338-59v-86c-83-9-158-29-214-59-11-5-14-18-9-28 5-10 18-14 28-9 73 39 182 60 299 60 28 0 56-1 82-3l1-1 1 1c84-8 160-28 215-57 3-1 7-2 10-2 7 0 15 4 18 11 6 10 2 23-9 28-56 30-131 50-214 59v86l338 59c32 6 58 36 58 70v499c0 35-28 63-62 63z m-375-773c-21 1-42 2-63 2s-42-1-62-2v75l17-3c13-2 28-3 45-3s33 1 45 3l18 3v-75z m395 211c0-13-11-27-23-29l-351-61-1 0-5-1-40-7c-20-3-56-3-75 0l-41 7-5 1-1 0-351 61c-12 2-23 16-23 29v499c0 12 9 21 21 21h875c11 0 20-9 20-21v-499z m-62 479h-792c-11 0-21-10-21-21v-417c0-11 10-21 21-21h792c11 0 21 10 21 21v417c0 11-10 21-21 21z m-21-417h-750v375h750v-375z" horiz-adv-x="1000" />

<glyph glyph-name="contact-book" unicode="&#xe80c;" d="M604 642h-250c-11 0-21-10-21-21v-167c0-11 10-21 21-21h250c12 0 21 10 21 21v167c0 11-9 21-21 21z m-21-167h-208v125h208v-125z m313 250h-104v63c0 11-10 20-21 20h-625c-12 0-21-9-21-20v-105h-21c-11 0-21-9-21-20s10-21 21-21h21v-84h-21c-11 0-21-9-21-20s10-21 21-21h21v-84h-21c-11 0-21-9-21-20s10-21 21-21h21v-84h-21c-11 0-21-9-21-20s10-21 21-21h21v-84h-21c-11 0-21-9-21-20s10-21 21-21h21v-84h-21c-11 0-21-9-21-20s10-21 21-21h21v-105c0-11 9-20 21-20h625c11 0 21 9 21 20v105h104c11 0 21 9 21 21v666c0 12-10 21-21 21z m-21-333h-83v125h83v-125z m-83-42h83v-125h-83v125z m83 333v-125h-83v125h83z m-125-750h-583v84h21c11 0 20 9 20 21s-9 20-20 20h-21v84h21c11 0 20 9 20 21s-9 20-20 20h-21v84h21c11 0 20 9 20 21s-9 20-20 20h-21v84h21c11 0 20 9 20 21s-9 20-20 20h-21v84h21c11 0 20 9 20 21s-9 20-20 20h-21v84h21c11 0 20 9 20 21s-9 20-20 20h-21v84h583v-834z m125 125h-83v125h83v-125z" horiz-adv-x="1000" />

<glyph glyph-name="content-download" unicode="&#xe80d;" d="M354-108h-250c-34 0-62 28-62 62v709c17-13 39-21 62-21h688v-167c0-11 9-21 21-21s20 10 20 21v188c0 11-9 20-20 20h-709c-34 0-62 28-62 63s28 62 62 62h709c11 0 20 10 20 21s-9 21-20 21h-709c-57 0-104-47-104-104l1-14-1-7v-771c0-57 47-104 104-104h250c12 0 21 9 21 21s-9 21-21 21z m292 500c-149 0-271-122-271-271s122-271 271-271 271 121 271 271-122 271-271 271z m0-500c-126 0-229 102-229 229s103 229 229 229 229-103 229-229-103-229-229-229z m68 223l-47-48v158c0 12-10 21-21 21s-21-9-21-21v-158l-48 48c-8 8-21 8-29 0-8-8-8-22 0-30l83-83 7-5 8-1 8 1 7 5 83 83c8 8 8 22 0 30-8 8-21 8-30 0z m-610 652c-11 0-21-10-21-21s10-21 21-21h667c11 0 21 9 21 21s-10 21-21 21h-667z" horiz-adv-x="1000" />

<glyph glyph-name="cooking-pot" unicode="&#xe80e;" d="M605 100c-8 1-14-3-18-9l-24-35-45 76c-8 12-28 12-36 0l-45-76-24 35c-4 6-10 10-18 9-7 0-14-4-17-11-11-19-65-118-65-156 0-46 37-83 83-83h208c46 0 84 37 84 83 0 38-55 137-66 156-3 7-10 11-17 11z m-1-208h-208c-23 0-42 18-42 41 0 15 21 61 44 106l22-34c4-6 11-9 18-9 7 0 14 4 17 10l45 74 45-74c3-6 10-10 17-10 7 0 14 3 18 9l22 34c23-45 44-91 44-106 0-23-19-41-42-41z m209 750h-63v83h21c11 0 21 9 21 21s-10 21-21 21h-169c-10 47-52 83-102 83-50 0-92-36-102-83h-169c-11 0-21-10-21-21s10-21 21-21h21v-83h-62c-12 0-21-10-21-21s9-21 21-21h62v-312c0-58 47-105 104-105h292c57 0 104 47 104 105v312h63c11 0 20 9 20 21s-9 21-20 21z m-313 166c27 0 50-17 59-41h-118c9 24 32 41 59 41z m208-520c0-35-28-63-62-63h-292c-34 0-62 28-62 63v437h416v-437z" horiz-adv-x="1000" />

<glyph glyph-name="crop" unicode="&#xe80f;" d="M994 814c8 9 8 22 0 30-8 8-21 8-30 0l-285-286h-429v63c0 11-9 21-21 21h-125c-11 0-21-10-21-21v-63h-62c-12 0-21-9-21-20v-125c0-12 9-21 21-21h62v-438c0-11 10-21 21-21h438v-62c0-12 9-21 21-21h125c11 0 20 9 20 21v62h63c11 0 21 10 21 21v125c0 12-10 21-21 21h-63v429l286 285z m-869-214h83v-42h-83v42z m-83-167v84h625v-417h-84v313l-1 8c-2 5-6 9-12 11l-7 1h-521z m208-41h262l-262-262v262z m292-30v-262h-262l262 262z m41-470v41h84v-41h-84z m167 166v-83h-625v417h83v-313l2-8c2-5 6-9 11-11l8-2h521z" horiz-adv-x="1000" />

<glyph glyph-name="crown" unicode="&#xe810;" d="M915 7c54 51 85 122 85 197 0 150-121 271-271 271-40 0-78-9-114-26-29 14-61 22-94 25v45c59 10 104 61 104 123 0 69-56 125-125 125s-125-56-125-125c0-62 45-113 104-123v-45c-33-3-65-11-94-25-36 17-74 26-114 26-149 0-271-121-271-271 0-75 32-146 86-197-29-14-44-44-44-74 0-41 29-83 83-83h750c54 0 83 42 83 83 0 30-15 60-43 74z m-415 718c39 0 71-27 80-62h-160c9 35 41 62 80 62z m-80-104h160c-9-36-41-63-80-63s-71 27-80 63z m-378-417c0 127 103 229 229 229 24 0 47-4 69-11-67-49-111-128-111-218 0-31 5-61 15-90 4-10 16-16 27-12 11 3 17 15 13 26-9 25-13 50-13 76 0 127 103 229 229 229s229-102 229-229c0-26-4-52-13-77-4-11 1-23 12-27l7-1c9 0 17 5 20 14 11 29 16 60 16 91 0 90-44 169-111 218 22 7 45 11 69 11 127 0 229-102 229-229 0-75-36-144-97-187h-722c-61 43-97 112-97 187z m833-312h-750c-30 0-41 22-41 41 0 19 11 42 41 42h750c30 0 41-23 41-42 0-19-11-41-41-41z" horiz-adv-x="1000" />

<glyph glyph-name="designer-cup" unicode="&#xe811;" d="M771 350h-21v63c0 11-9 20-21 20h-11l53 142c41 6 72 43 79 97 8 68-26 152-121 175-8 2-17-1-22-8-5-7-5-17 0-24 22-33 9-53-15-83-9-11-17-22-23-34-9-23-10-48-1-69 4-10 10-18 18-26l-94-170h-9v396c0 12-9 21-20 21h-167c-12 0-21-9-21-21v-396h-9l-98 177-1 1 0 2-6 5 0 0 0 0-1 0-103 62c-7 5-16 4-23 0-7-5-10-13-9-21l21-125 0-1 1-2 1-3 48-95h-8c-12 0-21-9-21-20v-459c0-57 46-104 104-104h375c57 0 104 47 104 104v104h21c80 0 146 66 146 146s-66 146-146 146z m-63 332c3 7 10 15 17 24 16 20 37 47 35 83 39-27 53-73 48-112-3-29-18-62-50-62-8 0-16 2-24 5-14 6-23 15-27 25-5 11-5 24 1 37z m14-101l6-2-55-146h-33l82 148z m-305 227h125v-41h-63c-11 0-21-10-21-21s10-21 21-21h63v-42h-21c-12 0-21-9-21-20s9-21 21-21h21v-42h-63c-11 0-21-9-21-21s10-21 21-21h63v-41h-21c-12 0-21-10-21-21s9-21 21-21h21v-42h-125v375z m-204-210l-31-23-8 46 39-23z m-20-67l50 38 76-136h-77l-49 98z m515-577c0-34-28-62-62-62h-375c-35 0-63 28-63 62v438h500v-438z m63 146h-21v208h21c57 0 104-46 104-104s-47-104-104-104z" horiz-adv-x="1000" />

<glyph glyph-name="diving-gear" unicode="&#xe812;" d="M83 683c0-46 38-83 84-83h62c34 0 65 17 84 42 19-25 49-42 83-42h62c46 0 84 37 84 83 11 0 21 10 21 21v42c0 11-10 21-21 21l-7-2c-17 49-63 85-118 85h-209c-54 0-101-36-117-85l-8 2c-11 0-20-10-20-21v-42c0-11 9-21 20-21z m417 42v-42c0-23-19-41-42-41h-62c-35 0-63 28-63 62v104h84c46 0 83-37 83-83z m-375 0c0 46 37 83 83 83h84v-104c0-34-28-62-63-62h-62c-23 0-42 18-42 41v42z m792-265v78c0 11-10 20-21 20h-23c-11 47-54 84-102 84h-42c-98 0-146-55-146-167v-323c0-173-80-260-239-260-144 0-261 117-261 260v156c0 75 57 136 129 144 10-34 42-60 80-60 46 0 83 37 83 83s-37 83-83 83c-40 0-73-27-81-64-95-9-169-89-169-186v-156c0-167 135-302 302-302 181 0 281 107 281 302v323c0 110 50 125 104 125h42c23 0 48-17 58-42h-16c-12 0-21-9-21-20v-78c-49-23-84-73-84-131v-396c0-46 38-83 84-83h125c46 0 83 37 83 83v396c0 58-34 108-83 131z m-625 57c23 0 41-19 41-42s-18-42-41-42-42 19-42 42 19 42 42 42z m458-209h208v-333h-208v333z m83 167v42h42v-42h-42z m21-42c51 0 93-35 102-83h-204c10 48 52 83 102 83z m63-541h-125c-23 0-42 18-42 41h208c0-23-18-41-41-41z" horiz-adv-x="1000" />

<glyph glyph-name="drink-cocktail" unicode="&#xe813;" d="M854 767c-80 0-146-66-146-146 0-7 1-14 2-21h-388l-140 160c-4 4-9 7-15 7h-167v-42h157l110-125h-79c-9 0-16-5-20-13-3-8-1-17 5-22l327-328v-345h-146c-11 0-21-10-21-21s10-21 21-21h334c11 0 20 9 20 21s-9 21-20 21h-146v345l251 252c19-9 40-14 61-14 81 0 146 65 146 146s-65 146-146 146z m-50-209l-283-283-283 283h566z m50-41c-10 0-19 1-29 4l44 43c6 6 8 15 4 23-3 8-10 13-19 13h-102c-1 7-2 14-2 21 0 57 47 104 104 104s104-47 104-104-46-104-104-104z" horiz-adv-x="1000" />

<glyph glyph-name="drink-coffee" unicode="&#xe814;" d="M833 725h-26l-37 111c-3 8-11 14-20 14h-500c-9 0-17-6-20-14l-37-111h-26c-12 0-21-9-21-21v-166c0-12 9-21 21-21h22l40-648c1-11 10-19 21-19h500c11 0 20 8 21 19l40 648h22c12 0 21 9 21 21v166c0 12-9 21-21 21z m-568 83h470l28-83h-526l28 83z m-24-458h518l-13-208h-492l-13 208z m29-458l-13 208h487l-13-208h-461z m492 500h-524l-7 125h539l-8-125z m51 166h-625v125h625v-125z m-209-291h-208c-12 0-21-10-21-21s9-21 21-21h208c12 0 21 9 21 21s-9 21-21 21z" horiz-adv-x="1000" />

<glyph glyph-name="e-mail" unicode="&#xe815;" d="M917 683h-834c-46 0-83-37-83-83v-500c0-46 37-83 83-83h834c46 0 83 37 83 83v500c0 46-37 83-83 83z m41-583c0-23-18-42-41-42h-834c-23 0-41 19-41 42v500c0 23 18 42 41 42h834c23 0 41-19 41-42v-500z m-86 407c-7 10-19 13-29 6l-343-221-343 221c-9 7-22 4-29-6-6-9-3-22 7-29l354-229c3-2 7-3 11-3 4 0 8 1 11 3l355 229c9 7 12 20 6 29z m-591-222l-145-84c-10-5-14-18-8-28 4-7 11-10 18-10 3 0 7 0 10 2l146 84c10 5 14 18 8 28-6 10-19 14-29 8z m584-84l-146 84c-10 6-23 2-29-8-5-10-2-23 8-28l146-84c3-2 7-2 10-2 7 0 14 3 18 10 6 10 3 23-7 28z" horiz-adv-x="1000" />

<glyph glyph-name="envelope" unicode="&#xe816;" d="M917-126v955l-2 9 0 0-1 1c-1 2-3 5-6 7l-2 1c-3 2-6 3-10 3h-750c-4 0-7-1-10-3l-2-1c-3-2-5-5-7-7l0-1 0 0-2-9v-958l2-9 0 0 1-1 6-7 2-1c3-2 6-3 10-3h751c11 0 21 9 21 21l-1 3z m-667 143c-6 0-12-3-16-8l-67-81v845l89-103c21-25 71-28 81-28h163v-625h-250z m292 625h163c10 0 60 3 80 28l90 103v-845l-67 81c-4 5-10 8-16 8h-250v625z m308 166l-97-111c-5-7-30-13-49-14h-366c-19 1-44 6-50 14l-96 111h658z m-660-916l70 83h522l69-83h-661z" horiz-adv-x="1000" />

<glyph glyph-name="eyedropper" unicode="&#xe817;" d="M729 517h-62v146c0 103-75 187-167 187s-167-84-167-187v-146h-62c-12 0-21-10-21-21s9-21 21-21h62v-354c0-77 41-143 84-172v-78c0-12 9-21 21-21h125c11 0 20 9 20 21v78c43 29 84 95 84 172v354h62c12 0 21 9 21 21s-9 21-21 21z m-354 146c0 80 56 145 125 145s125-65 125-145v-146h-250v146z m250-542c0-72-42-126-72-141-7-4-11-11-11-19v-69h-84v69c0 8-4 15-11 19-30 15-72 69-72 141v62h63c11 0 20 10 20 21s-9 21-20 21h-63v42h63c11 0 20 9 20 21s-9 20-20 20h-63v42h63c11 0 20 9 20 21s-9 21-20 21h-63v83h250v-354z" horiz-adv-x="1000" />

<glyph glyph-name="fork-knife" unicode="&#xe818;" d="M655 848c-3 1-6 2-9 2-12 0-21-9-21-21l0-2v-956c0-12 9-21 21-21s21 9 21 21v312h104c11 0 21 10 21 21 0 255-49 620-137 644z m12-623v554c34-73 81-276 83-554h-83z m-188 625c-11 0-21-9-21-21v-208c0-50-35-92-83-102v310c0 12-9 21-21 21s-21-9-21-21v-310c-47 10-83 52-83 102v208c0 12-9 21-21 21s-21-9-21-21v-208c0-73 55-134 125-144v-606c0-12 10-21 21-21s21 9 21 21v606c71 10 125 71 125 144v208c0 12-9 21-21 21z" horiz-adv-x="1000" />

<glyph glyph-name="forklift" unicode="&#xe819;" d="M229 642c-34 0-62-28-62-63v-479h-104c-12 0-21-9-21-21s9-21 21-21h104v-166h-146c-12 0-21-10-21-21s9-21 21-21h250c11 0 21 9 21 21v708c0 35-28 63-63 63z m-21-750v687c0 12 10 21 21 21s21-9 21-21v-687h-42z m784 287l-75 56v219c0 58-47 104-104 104h-84c-218 0-396-177-396-395v-230c0-11 10-21 21-21h89c27-37 70-62 120-62 49 0 93 25 119 62h77c16-36 53-62 95-62s79 26 96 62h29c12 0 21 10 21 21v230c0 6-3 12-8 16z m-617-225v137l167 167 6-6c4-4 9-6 15-6 5 0 10 2 14 6 8 8 8 21 0 29l-41 42c-9 8-22 8-30 0-8-8-8-21 0-29l6-6-137-138v13c0 195 159 354 354 354h84c34 0 62-28 62-63v-208h-98l35 141c3 11-4 22-15 25-12 3-23-4-25-15l-38-151h-67c-6 0-11-2-15-6l-99-99c-76-5-136-68-136-145 0-15 3-29 7-42h-49z m188-62c-58 0-105 46-105 104s47 104 105 104 104-47 104-104-47-104-104-104z m291 0c-29 0-53 20-60 47l-1 3-1 12c0 35 28 63 62 63s63-28 63-63l-1-12-1-3c-7-27-32-47-61-47z m104 62c0 58-46 104-104 104s-104-46-104-104h-48c4 13 6 27 6 42 0 65-43 120-102 138l69 70h214l69-52v-198z" horiz-adv-x="1000" />

<glyph glyph-name="fountain-pen-head-1" unicode="&#xe81a;" d="M809 403l-160 261 78 156c3 6 3 14-1 20-4 6-10 10-18 10h-479c-7 0-14-4-18-11-4-6-3-14 1-21l97-156-160-259c-4-6-4-14-1-20l250-521c3-7 11-12 19-12h125c8 0 15 5 19 12l250 521c3 6 2 14-2 20z m-134 405l-63-125h-267l-78 125h408z m-196-458c-34 0-62 28-62 63s28 62 62 62 63-28 63-62-28-63-63-63z m50-458h-29v418c48 10 83 52 83 103 0 57-46 104-104 104s-104-47-104-104c0-51 36-93 83-103v-418h-28l-240 499 155 251h268l155-251-239-499z" horiz-adv-x="1000" />

<glyph glyph-name="fountain-pen-head-2" unicode="&#xe81b;" d="M563 585v57h20c10 0 18 6 21 16l41 166c2 6 0 13-4 18s-10 8-16 8h-292c-6 0-12-3-16-8-4-5-5-12-4-18l42-166c2-10 10-16 20-16h21v-57c-97-34-167-126-167-235 0-131 203-475 211-490 4-6 11-10 18-10h42c7 0 13 3 17 9 51 74 212 374 212 491 0 109-69 201-166 235z m-203 223h238l-31-125h-176l-31 125z m78-166h83v-46c-14 3-28 4-42 4-14 0-28-1-41-4v46z m41-375c-23 0-41 18-41 41s18 42 41 42c23 0 42-19 42-42s-19-41-42-41z m21-358v319c36 9 63 42 63 80 0 46-38 84-84 84s-83-38-83-84c0-38 27-71 62-80v-315c-49 87-187 339-187 437 0 115 93 208 208 208s209-93 209-208c0-92-126-340-188-441z" horiz-adv-x="1000" />

<glyph glyph-name="gauge" unicode="&#xe81c;" d="M500 850c-276 0-500-224-500-500s224-500 500-500 500 224 500 500-224 500-500 500z m0-958c-253 0-458 205-458 458s205 458 458 458 458-205 458-458-205-458-458-458z m265 723c-8 8-21 8-29 0l-194-193c-12 7-27 11-42 11-46 0-83-37-83-83s37-83 83-83 83 37 83 83c0 15-4 30-11 42l193 194c8 8 8 21 0 29z m-265-307c-23 0-42 19-42 42s19 42 42 42c23 0 42-19 42-42s-19-42-42-42z m-294 34c0 12-9 21-21 21h-83c-12 0-21-9-21-21s9-21 21-21h83c12 0 21 10 21 21z m-3-92l-77-32c-10-5-15-17-11-27 3-8 11-13 19-13l8 1 77 32c11 5 16 17 12 27-5 11-17 16-28 12z m671-32l-77 32c-11 4-23-1-27-12-5-10 0-22 11-27l77-32 8-1c8 0 16 5 19 13 4 10-1 22-11 27z m22 153l-83 0c-12 0-21-9-21-21s9-21 21-21l83 0c11 0 21 10 21 21s-10 21-21 21z m-126 91c3-8 11-13 19-13l8 1 77 32c10 5 15 17 11 27-4 11-17 16-27 12l-77-32c-11-4-16-17-11-27z m-158 158l8-2c8 0 16 5 19 13l32 77c4 10-1 23-11 27-11 4-23-1-28-11l-32-77c-4-11 1-23 12-27z m-114 14c11 0 21 9 21 21v83c0 12-10 21-21 21s-21-9-21-21v-83c0-12 9-21 21-21z m-137-3c4-8 11-13 19-13l8 2c11 4 16 16 12 27l-32 77c-5 10-17 15-27 11-11-4-16-17-12-27l32-77z m-67-45l-59 59c-8 8-21 8-30 0-8-8-8-22 0-30l59-59c4-4 10-6 15-6 5 0 11 2 15 6 8 8 8 22 0 30z m-75-97l-77 32c-10 4-22-1-27-11-4-11 1-23 11-28l77-32 8-1c8 0 16 5 20 13 4 10-1 22-12 27z m469-306h-375c-12 0-21-9-21-20v-125c0-12 9-21 21-21h375c11 0 20 9 20 21v125c0 11-9 20-20 20z m-21-125h-334v84h334v-84z" horiz-adv-x="1000" />

<glyph glyph-name="globe" unicode="&#xe81d;" d="M438 122c195 0 354 158 354 354 0 195-159 354-354 354-196 0-355-159-355-354 0-196 159-354 355-354z m0 666c172 0 312-140 312-312 0-173-140-313-312-313s-313 140-313 313 140 312 313 312z m338-651c182 182 187 474 14 662l16 16c8 8 8 21 0 29-8 8-21 8-30 0l-58-59c-9-8-9-21 0-29 4-4 9-6 14-6 6 0 11 2 15 6l14 14c156-172 152-438-14-604-166-165-432-170-603-14l14 14c8 8 8 22 0 30-8 8-22 8-30 0l-29-29 0-1 0 0-30-29c-8-8-8-21 0-30 4-4 10-6 15-6 5 0 11 2 15 6l15 16c81-74 180-115 282-124v-26c-80-7-155-36-220-85-7-5-10-15-7-23 3-9 11-14 19-14h499c9 0 17 5 20 14 3 8 0 18-8 23-65 49-140 78-220 85v26c109 9 215 55 297 138z m-515-245c109 55 244 55 353 0h-353z" horiz-adv-x="1000" />

<glyph glyph-name="grid" unicode="&#xe81e;" d="M979 350c12 0 21 9 21 21s-9 21-21 21h-271v166h271c12 0 21 10 21 21s-9 21-21 21h-271v229c0 12-9 21-20 21s-21-9-21-21v-229h-167v229c0 12-9 21-21 21s-21-9-21-21v-229h-166v229c0 12-10 21-21 21s-21-9-21-21v-229h-229c-12 0-21-9-21-21s9-21 21-21h229v-166h-229c-12 0-21-10-21-21s9-21 21-21h229v-167h-229c-12 0-21-9-21-20s9-21 21-21h229v-271c0-12 9-21 21-21s21 9 21 21v271h166v-271c0-12 10-21 21-21s21 9 21 21v271h167v-271c0-12 9-21 21-21s20 9 20 21v271h271c12 0 21 9 21 21s-9 20-21 20h-271v167h271z m-312 208v-166h-167v166h167z m-375 0h166v-166h-166v166z m0-375v167h166v-167h-166z m375 0h-167v167h167v-167z" horiz-adv-x="1000" />

<glyph glyph-name="griller" unicode="&#xe81f;" d="M458 288c0 11-9 20-20 20h-84c-11 0-21-9-21-20s10-21 21-21h84c11 0 20 9 20 21z m-270 145h375c11 0 20 10 20 21s-9 21-20 21h-375c-12 0-21-9-21-21s9-21 21-21z m478-82c117 10 209 109 209 228 0 120-92 218-208 228v22c0 12-10 21-21 21s-21-9-21-21v-437h-479c-12 0-21-10-21-21 0-104 58-194 144-239l-40-258c-1-11 7-22 18-24l3 0c10 0 19 7 21 18l22 149h192l0-9c-28-13-47-42-47-75 0-46 37-83 83-83s83 37 83 83c0 44-34 80-78 83l-5 115c81 43 138 125 145 220z m167 228c0-96-73-176-166-186v373c93-11 166-90 166-187z m-665-229h456c-7-83-59-152-131-186l-4-2c-29-13-60-20-93-20-119 0-218 91-228 208z m395-417c0-23-19-41-42-41-23 0-42 18-42 41s19 42 42 42c23 0 42-19 42-42z m-80 125h-183l8 57c28-10 57-15 88-15 29 0 58 5 85 14l2-56z" horiz-adv-x="1000" />

<glyph glyph-name="handbag" unicode="&#xe820;" d="M792 475h-63v146c0 126-103 229-229 229s-229-103-229-229v-146h-63c-114 0-208-93-208-208v-271c0-81 65-146 146-146h708c81 0 146 65 146 146v271c0 115-93 208-208 208z m-479 146c0 103 84 187 187 187s188-84 188-187v-146h-375v146z m-105-188h63v-62c0-12 9-21 21-21s21 9 21 21v62h375v-62c0-12 9-21 20-21s21 9 21 21v62h63c92 0 166-74 166-166v-168c-109-10-197-98-207-207h-502c-10 109-98 197-207 207v168c0 92 74 166 166 166z m-166-437v60c86-9 155-78 164-164h-60c-58 0-104 46-104 104z m812-104h-60c10 86 78 155 164 164v-60c0-58-46-104-104-104z m-750 333h792c11 0 21 9 21 21s-10 21-21 21h-792c-11 0-21-10-21-21s10-21 21-21z m84-21c-12 0-21-9-21-21v-41c0-12 9-21 21-21s20 9 20 21v41c0 12-9 21-20 21z" horiz-adv-x="1000" />

<glyph glyph-name="headphone" unicode="&#xe821;" d="M1000 225c0 50-36 92-83 102v23c0 58-47 104-104 104h-1c-11 163-147 292-312 292s-301-129-311-292h-1c-58 0-105-46-105-104v-23c-47-10-83-52-83-102s36-92 83-102v-23c0-57 47-104 105-104h83c11 0 21 9 21 21v416c0 12-10 21-21 21h-41c11 140 128 250 270 250 142 0 259-110 270-250h-41c-11 0-21-9-21-21v-416c0-12 10-21 21-21h84c57 0 104 47 104 104v23c47 10 83 52 83 102z m-958 0c0 27 17 50 41 59v-118c-24 9-41 32-41 59z m208-187h-62c-35 0-63 28-63 62v250c0 35 28 63 63 63h62v-375z m625 62c0-34-28-62-62-62h-63v375h63c34 0 62-28 62-63v-250z m42 66v118c24-9 41-32 41-59s-17-50-41-59z" horiz-adv-x="1000" />

<glyph glyph-name="heart" unicode="&#xe822;" d="M725 829c-86 0-180-52-225-167-44 113-136 165-220 165-118 0-238-102-238-296 0-353 428-640 447-652 3-3 7-4 11-4 5 0 9 2 13 5 18 14 445 348 445 675 0 180-117 274-233 274z m-226-907c-70 50-416 311-416 609 0 174 102 254 197 254 77 0 176-55 199-208 2-10 11-18 21-18s19 8 21 18c24 155 125 211 204 211 93 0 192-73 192-233 0-277-349-576-418-633z" horiz-adv-x="1000" />

<glyph glyph-name="home" unicode="&#xe823;" d="M854 288c-11 0-21-10-21-21v-375h-208v271c0 11-9 20-21 20h-208c-12 0-21-9-21-20v-271h-208v396c0 11-10 20-21 20s-21-9-21-20v-417c0-12 9-21 21-21h250c11 0 21 9 21 21v271h166v-271c0-12 10-21 21-21h250c12 0 21 9 21 21v396c0 11-9 21-21 21z m140 35l-479 479c-8 8-22 8-30 0l-479-479c-8-8-8-21 0-29s21-8 30 0l464 464 464-464c5-4 10-6 15-6 6 0 11 2 15 6 8 8 8 21 0 29z m-327 402h125v-125c0-11 9-21 21-21s20 10 20 21v146c0 11-9 21-20 21h-146c-12 0-21-10-21-21s9-21 21-21z" horiz-adv-x="1000" />

<glyph glyph-name="hotdog" unicode="&#xe824;" d="M312 162c-4 4-6 9-6 14 0 6 2 11 6 15 4 4 9 6 15 6 5 0 10-2 14-6 25-24 64-24 89 0 11 12 18 28 18 44 0 17-7 33-18 44-8 9-8 22 0 30 4 4 9 6 14 6 6 0 11-2 15-6 24-24 64-24 88 0 12 12 19 27 19 44 0 17-7 33-19 44-8 8-8 22 0 30 9 8 22 8 30 0 12-12 27-19 44-19h0c17 0 33 7 44 19 25 24 25 64 0 88-8 8-8 22 0 30 8 8 22 8 30 0 24-25 64-25 88 0 12 11 19 27 18 44 0 17-6 32-18 44-8 8-8 21 0 30 8 8 21 8 30 0 8-9 21-9 29 0 8 8 8 21 0 29-24 24-64 24-88 0-25-24-25-64 0-89 4-3 6-9 6-14 0-6-2-11-6-15-8-8-22-8-30 0-23 24-65 24-88 0-24-24-24-64 0-88 8-8 8-22 0-30-4-4-9-6-15-6-5 0-11 2-15 6-24 25-64 25-88 0-24-24-24-64 0-88 4-4 6-9 6-15 0-5-2-11-6-15-8-7-22-7-29 0-12 12-28 19-45 19h0c-16 0-32-7-44-19-24-24-24-64 0-88 4-4 6-9 6-15 0-5-2-11-6-14-8-9-21-9-29 0-12 11-28 18-45 18-16 0-32-7-44-18-11-12-18-28-18-45 0-16 7-32 18-44 8-8 8-21 0-29-8-8-21-8-29 0-12 12-28 18-44 18h0c-17 0-33-6-45-18-11-12-18-28-18-44s7-33 18-45c5-4 10-6 15-6 6 0 11 2 15 6 8 8 8 22 0 30-4 4-6 9-6 15 0 5 2 10 6 14 4 4 9 6 15 6 5 0 10-2 14-6 25-24 64-24 89 0 24 25 24 64 0 89z m629 460c8 45-5 94-40 129-33 33-82 46-127 39-95 78-195 81-271 5l-442-442c-61-61-85-170 4-268-1-9-2-18-2-26 0-39 15-76 43-104 27-27 64-42 103-42 9 0 18 1 27 2 40-38 87-59 136-59h1c48 0 95 20 130 55l442 442c63 63 85 170-4 269z m-850-298l442 442c54 54 123 56 194 8-12-6-23-14-32-23l-589-589c-10-10-17-21-24-32-54 73-37 148 9 194z m44-339c-20 19-31 46-31 73 0 28 11 54 31 74l589 589c20 20 46 31 74 31 28 0 54-11 74-31 40-40 40-106 0-147l-590-589c-39-40-108-40-147 0z m781 398l-442-442c-28-28-66-42-102-43-32 0-64 12-92 34 11 6 22 14 32 23l589 590c10 9 17 20 23 32 58-78 34-152-8-194z" horiz-adv-x="1000" />

<glyph glyph-name="icecream" unicode="&#xe825;" d="M458 850c-114 0-208-93-208-208v-521c0-12 9-21 21-21h146v-229c0-12 9-21 21-21s20 9 20 21v229h188c11 0 21 9 21 21v521c0 115-94 208-209 208z m167-708h-333v500c0 92 74 166 166 166s167-74 167-166v-500z m-83 250v166c0 35-28 63-63 63s-62-28-62-63c0-11-10-20-21-20s-21 9-21 20v84c0 11-9 21-21 21s-21-10-21-21v-84c0-34 28-62 63-62s62 28 62 62c0 12 10 21 21 21s21-9 21-21v-166c0-35 28-63 63-63 11 0 20 10 20 21s-9 21-20 21c-12 0-21 9-21 21z" horiz-adv-x="1000" />

<glyph glyph-name="image" unicode="&#xe826;" d="M979 850h-958c-12 0-21-9-21-21v-958c0-12 9-21 21-21h958c12 0 21 9 21 21v958c0 12-9 21-21 21z m-21-42v-666h-28l-142 283c-15 31-47 50-81 50-32 0-62-17-78-45l-110-188c-33 39-102 108-186 108-102 0-179-158-201-208h-90v666h916z m-75-666h-705c30 64 92 166 155 166 92 0 170-114 171-115 4-6 8-9 18-10 7 1 13 5 17 11l126 215c8 15 25 24 42 24 19 0 35-10 44-27l132-264z m-841-250v208h916v-208h-916z m229 583h125c69 0 125 56 125 125s-56 125-125 125c-54 0-101-34-118-84-48 5-90-34-90-83 0-46 37-83 83-83z m0 125c5 0 10-1 15-3 6-2 12-2 18 1 5 4 9 9 10 15 6 41 41 70 82 70 46 0 83-37 83-83s-37-83-83-83h-125c-23 0-42 18-42 41s19 42 42 42z" horiz-adv-x="1000" />

<glyph glyph-name="iphone" unicode="&#xe827;" d="M729 850h-458c-58 0-104-47-104-104v-792c0-57 46-104 104-104h458c58 0 104 47 104 104v792c0 57-46 104-104 104z m-521-208h584v-584h-584v584z m63 166h458c35 0 63-28 63-62v-63h-584v63c0 34 28 62 63 62z m458-916h-458c-35 0-63 28-63 62v63h584v-63c0-34-28-62-63-62z m-333 833h208c12 0 21 9 21 21s-9 21-21 21h-208c-12 0-21-10-21-21s9-21 21-21z" horiz-adv-x="1000" />

<glyph glyph-name="ipod" unicode="&#xe828;" d="M729 850h-458c-58 0-104-47-104-104v-792c0-57 46-104 104-104h458c58 0 104 47 104 104v792c0 57-46 104-104 104z m63-896c0-34-28-62-63-62h-458c-35 0-63 28-63 62v792c0 34 28 62 63 62h458c35 0 63-28 63-62v-792z m-63 813h-458c-12 0-21-10-21-21v-333c0-12 9-21 21-21h458c12 0 21 9 21 21v333c0 11-9 21-21 21z m-21-334h-416v292h416v-292z m-208-83c-115 0-208-93-208-208s93-209 208-209 208 94 208 209-93 208-208 208z m0-375c-92 0-167 75-167 167s75 166 167 166 167-74 167-166-75-167-167-167z m0 292c-69 0-125-56-125-125s56-125 125-125 125 56 125 125-56 125-125 125z m0-209c-46 0-83 38-83 84s37 83 83 83 83-37 83-83-37-84-83-84z" horiz-adv-x="1000" />

<glyph glyph-name="layers" unicode="&#xe829;" d="M854 142c-11 0-21-10-21-21v-63h-666v417h21c11 0 20 9 20 21s-9 21-20 21h-42c-12 0-21-10-21-21v-458c0-12 9-21 21-21h708c12 0 21 9 21 21v83c0 11-9 21-21 21z m125 541h-708c-12 0-21-9-21-20v-459c0-11 9-21 21-21h708c12 0 21 10 21 21v459c0 11-9 20-21 20z m-21-458h-666v417h666v-417z m-229-250c-11 0-21-9-21-21v-62h-666v416h21c11 0 20 10 20 21s-9 21-20 21h-42c-12 0-21-9-21-21v-458c0-12 9-21 21-21h708c12 0 21 9 21 21v83c0 12-9 21-21 21z" horiz-adv-x="1000" />

<glyph glyph-name="layers-image" unicode="&#xe82a;" d="M958 621v-729h-729v-42h750c12 0 21 9 21 21v750h-42z m-41-667v792h-42v-771h-771v-42h792c11 0 21 10 21 21z m-84 84v791c0 12-9 21-20 21h-792c-12 0-21-9-21-21v-791c0-12 9-21 21-21h792c11 0 20 9 20 21z m-41 770v-583h-69l-120 320c-3 7-9 12-17 13-8 1-16-2-20-9l-151-227-86 104c-5 5-11 8-18 7-7 0-13-4-16-10l-119-198h-134v583h750z m-114-583h-454l91 152 86-103c4-5 10-8 17-7 6 0 12 4 16 9l144 216 100-267z m-636-167v125h750v-125h-750z m208 500c46 0 83 38 83 84s-37 83-83 83c-46 0-83-37-83-83s37-84 83-84z m0 125c23 0 42-18 42-41s-19-42-42-42-42 19-42 42 19 41 42 41z" horiz-adv-x="1000" />

<glyph glyph-name="link" unicode="&#xe82b;" d="M500 208l-133-132c-39-39-107-39-147 0l-29 29c-20 20-31 46-31 74 0 28 11 54 31 74l191 191c41 41 107 41 148 0l29-29c8-8 21-8 29 0 9 8 9 21 0 29l-29 30c-57 56-149 56-206 0l-192-192c-57-57-57-149 0-206l30-30c27-27 64-42 103-42 39 0 75 15 103 42l133 133c8 8 8 21 0 29-9 9-22 9-30 0z m339 487l-30 29c-56 57-149 57-206 0l-132-132c-8-9-8-22 0-30 8-8 21-8 29 0l133 133c40 40 106 40 147 0l29-30c20-20 31-46 31-74 0-27-11-54-31-73l-191-192c-39-39-108-39-147 0-8 8-22 8-30 0s-8-21 0-29c28-28 64-43 103-43 39 0 76 15 103 43l192 191c27 28 43 65 43 104 0 38-16 75-43 103z" horiz-adv-x="1000" />

<glyph glyph-name="location-pin" unicode="&#xe82c;" d="M500 850c-184 0-333-149-333-333 0-177 303-638 316-658 4-6 10-9 17-9s14 3 17 9c13 20 316 481 316 658 0 184-149 333-333 333z m0-941c-65 102-292 466-292 608 0 161 131 291 292 291s292-130 292-291c0-142-227-506-292-608z m0 754c-80 0-146-66-146-146s66-146 146-146 146 65 146 146-66 146-146 146z m0-250c-57 0-104 46-104 104s47 104 104 104 104-47 104-104-47-104-104-104z" horiz-adv-x="1000" />

<glyph glyph-name="location-user" unicode="&#xe82d;" d="M500 558c80 0 146 66 146 146s-66 146-146 146-146-65-146-146 66-146 146-146z m0 250c57 0 104-46 104-104s-47-104-104-104-104 47-104 104 47 104 104 104z m-83-564v-165c0-11 9-21 21-21h125c11 0 20 10 20 21v165c82 39 125 156 125 252 0 11-9 21-20 21h-375c-12 0-21-10-21-21 0-96 43-213 125-252z m249 231c-6-82-47-175-110-197-9-3-14-11-14-20v-158h-84v158c0 9-5 17-14 20-63 22-104 115-110 197h332z m-166-479c-167 0-265 34-271 52 2 4 24 25 108 39 11 2 19 13 17 24-2 12-13 20-24 17-95-16-142-43-142-80 0-74 196-94 312-94 116 0 313 20 313 94 0 37-48 64-142 80-11 3-22-5-24-17-2-11 6-22 17-24 83-14 106-35 107-39-6-18-104-52-271-52z m170 219c-12 1-22-7-24-18-1-12 7-22 18-24 193-25 294-87 294-135 0-70-188-146-458-146s-458 76-458 146c0 48 101 110 294 135 11 2 19 12 18 24-1 11-12 19-23 18-160-21-331-78-331-177 0-122 258-188 500-188s500 66 500 188c0 99-171 156-330 177z" horiz-adv-x="1000" />

<glyph glyph-name="lock-locked" unicode="&#xe82e;" d="M500 267c-23 0-42-19-42-42 0-15 9-28 21-35v-111c0-11 10-21 21-21s21 10 21 21v111c12 7 21 20 21 35 0 23-19 42-42 42z m354 208h-104v125c0 138-112 250-250 250s-250-112-250-250v-125h-104c-12 0-21-9-21-21v-583c0-12 9-21 21-21h708c12 0 21 9 21 21v583c0 12-9 21-21 21z m-562 125c0 115 93 208 208 208s208-93 208-208v-125h-416v125z m541-708h-666v541h666v-541z" horiz-adv-x="1000" />

<glyph glyph-name="lock-unlocked" unicode="&#xe82f;" d="M479 190v-111c0-11 10-21 21-21s21 10 21 21v111c12 7 21 20 21 35 0 23-19 42-42 42s-42-19-42-42c0-15 9-28 21-35z m375 285h-104v125c0 138-112 250-250 250s-250-112-250-250h42c0 115 93 208 208 208s208-93 208-208v-125h-562c-12 0-21-9-21-21v-583c0-12 9-21 21-21h708c12 0 21 9 21 21v583c0 12-9 21-21 21z m-21-583h-666v541h666v-541z" horiz-adv-x="1000" />

<glyph glyph-name="magic-wand" unicode="&#xe830;" d="M918 487l-79 79 40 120c2 8 0 16-5 22-6 5-14 7-21 5l-121-41-79 80c-6 6-16 7-24 4-8-4-13-13-12-21l14-119-121-67c-7-4-12-13-10-21 1-9 7-16 16-18l107-24-541-538c-8-8-8-21 0-29 4-5 9-7 15-7 5 0 10 2 14 7l541 537 25-107c2-8 9-14 17-16l3 0c8 0 15 4 18 11l67 120 119-13c9-1 17 4 21 12 4 8 2 17-4 24z m-145 20c-8 1-16-3-20-10l-48-86-21 91c-2 8-8 14-15 16l-91 21 85 47c7 4 12 12 11 21l-9 73 47-46c5-6 14-8 21-5l93 31-31-93c-2-8 0-16 5-22l47-46-74 8z" horiz-adv-x="1000" />

<glyph glyph-name="magnet" unicode="&#xe831;" d="M986 328l-117 118c-8 8-22 8-30 0l-309-309c-32-32-74-49-118-49-45 0-86 17-118 49-31 31-49 73-49 117 0 45 18 87 49 118l309 310c9 8 9 21 0 29l-117 118c-4 4-10 6-15 6s-11-2-15-6l-339-339c-146-146-146-384 0-530 71-71 165-110 266-110 100 0 194 39 265 110l339 339c8 8 8 21-1 29z m-515 457l88-89-59-58-88 88 59 59z m147-796c-63-63-146-97-235-97-90 0-173 34-236 97-130 130-130 342 0 472l235 235 89-88-206-206c-40-40-61-92-61-147 0-56 21-108 61-148 39-39 91-61 147-61 56 0 108 22 147 61l207 206 88-88-236-236z m265 265l-88 89 59 59 88-89-59-59z" horiz-adv-x="1000" />

<glyph glyph-name="microphone" unicode="&#xe832;" d="M813 433c-12 0-21-9-21-20v-63h-42v229c0 117-74 216-178 254l-4 2c-28 9-57 15-89 15-31 0-61-6-89-15l-3-2c-104-38-179-137-179-254v-229h-41v63c0 11-10 20-21 20s-21-9-21-20v-84c0-191 145-343 333-353v-105c0-12 10-21 21-21s21 9 21 21v105c189 10 333 162 333 353v84c0 11-9 20-20 20z m-563-41h146c11 0 21 9 21 21s-10 20-21 20h-146v42h146c11 0 21 9 21 21s-10 21-21 21h-146v41h146c11 0 21 10 21 21s-10 21-21 21h-145c7 80 56 148 124 183v-79c0-11 9-21 21-21s21 10 21 21v96c13 3 27 6 41 7v-103c0-11 10-21 21-21s21 10 21 21v103c14-1 28-4 42-7l0-96c0-11 9-21 21-21s20 10 20 21l0 79c69-35 117-103 124-183h-144c-12 0-21-9-21-21s9-21 21-21h145v-41h-145c-12 0-21-10-21-21s9-21 21-21h145v-42h-145c-12 0-21-9-21-20s9-21 21-21h145v-42h-458v42z m457-84c-10-116-108-208-228-208-119 0-217 92-228 208h456z m-228-291c-168 0-301 126-311 291h41c11-139 128-250 270-250 143 0 259 111 270 250h42c-11-165-144-291-312-291z" horiz-adv-x="1000" />

<glyph glyph-name="monocle" unicode="&#xe833;" d="M688 806c-127 0-230-103-230-229s103-229 230-229 229 102 229 229c0 126-103 229-229 229z m0-417c-104 0-188 84-188 188s84 187 188 187 187-84 187-187-84-188-187-188z m291 169c-11 0-21-9-21-20v-667c0-12 10-21 21-21s21 9 21 21v667c0 11-9 20-21 20z m-185-540c-10 6-22 3-28-6-16-24-42-38-71-38-47 0-85 39-85 86 0 83-64 127-127 127-30 0-59-10-81-27-22 17-50 27-80 27-63 0-127-44-127-127 0-47-39-86-86-86-28 0-55 14-71 38-6 9-18 12-27 6-10-5-14-16-9-26 39-88 115-139 208-139 75 0 147 33 192 85 46-52 118-85 192-85 93 0 169 51 209 139 4 10 0 21-9 26z m-200-123c-70 0-140 36-174 89-4 6-11 9-18 9-7 0-13-3-17-9-35-53-105-89-175-89-43 0-82 13-113 38l12 0c70 0 127 57 127 127 0 94 109 103 151 58 4-4 9-7 15-7 6 0 11 3 15 7 42 45 151 36 151-58 0-74 66-134 139-127-31-25-70-38-113-38z m198 682c0-58-47-104-104-104-12 0-21-10-21-21s9-21 21-21c80 0 145 65 145 146 0 11-9 21-20 21s-21-10-21-21z" horiz-adv-x="1000" />

<glyph glyph-name="mp3-player" unicode="&#xe834;" d="M292 183c-69 0-125-56-125-125s56-125 125-125 125 56 125 125-56 125-125 125z m0-208c-46 0-84 37-84 83s38 84 84 84 83-38 83-84-37-83-83-83z m-21 42l62 41-62 42z m667 583c-28 0-50-17-59-42h-4c-46 0-83-37-83-83s37-83 83-83h4c6-18 20-32 38-38v-296c0-46-38-83-84-83s-83 37-83 83v584c0 46-37 83-83 83h-84v42c0 46-37 83-83 83h-417c-46 0-83-37-83-83v-834c0-46 37-83 83-83h417c46 0 83 37 83 83v750h84c23 0 41-18 41-41v-584c0-69 56-125 125-125s125 56 125 125v296c25 9 42 31 42 59v125c0 34-28 62-62 62z m-855 208h417c23 0 42-18 42-41v-500h-500v500c0 23 18 41 41 41z m417-916h-417c-23 0-41 18-41 41v292h500v-292c0-23-19-41-42-41z m333 583c0 23 19 42 42 42v-84c-23 0-42 19-42 42z m125-62c0-12-9-21-20-21s-21 9-21 21v125c0 11 9 20 21 20s20-9 20-20v-125z m-833 229h83v-42h-83z m0-84h83v-41h-83z m0-83h83v-42h-83z m0-83h83v-42h-83z m250 166h83v-41h-83z m0-83h83v-42h-83z m0-83h83v-42h-83z m-125 83h83v-42h-83z m0-83h83v-42h-83z" horiz-adv-x="1000" />

<glyph glyph-name="music-note" unicode="&#xe835;" d="M866 826c-6 4-13 4-20 2l-458-188c-8-3-13-11-13-19v-479h-104c-81 0-146-66-146-146s65-146 146-146c78 0 146 68 146 146v465l416 171v-324h-104c-80 0-146-65-146-145s66-146 146-146c78 0 146 68 146 146v645c0 7-3 14-9 18z m-491-830c0-49-44-104-104-104-58 0-104 46-104 104s46 104 104 104h104v-104z m42 510v101l416 170v-100l-416-171z m416-343c0-50-44-105-104-105-57 0-104 47-104 105s47 104 104 104h104v-104z" horiz-adv-x="1000" />

<glyph glyph-name="notebook-1" unicode="&#xe836;" d="M317 25c4-5 10-8 16-8h334c6 0 12 3 16 8 4 5 5 11 4 18l-21 83c-2 9-11 16-20 16h-292c-9 0-18-7-20-16l-21-83c-1-7 0-13 4-18z m54 75h259l10-42h-280l11 42z m628-141l-82 310v456c0 46-38 83-84 83h-666c-46 0-84-37-84-83v-476l-82-289-1-6v-21c0-46 37-83 83-83h834c46 0 83 37 83 83v21l-1 5z m-832 808h666c23 0 42-19 42-42v-458h-750v458c0 23 19 42 42 42z m-47-542h765l67-250h-903l71 250z m797-333h-834c-23 0-41 18-41 41h916c0-23-18-41-41-41z m-729 416h625c11 0 20 10 20 21v375c0 12-9 21-20 21h-625c-12 0-21-9-21-21v-375c0-11 9-21 21-21z m20 375h584v-333h-584v333z" horiz-adv-x="1000" />

<glyph glyph-name="notebook-2" unicode="&#xe837;" d="M875 79v417c0 11-9 21-21 21h-708c-12 0-21-10-21-21v-417c0-11 9-21 21-21h708c12 0 21 10 21 21z m-42 21h-666v375h666v-375z m146-83h-21v500c0 46-37 83-83 83h-750c-46 0-83-37-83-83v-500h-21c-12 0-21-10-21-21v-84c0-34 28-62 63-62h875c34 0 62 28 62 62v84c0 11-9 21-21 21z m-896 500c0 23 19 41 42 41h750c23 0 42-18 42-41v-500h-313c-11 0-21-10-21-21v-21h-166v21c0 11-10 21-21 21h-313v500z m875-605c0-11-9-20-20-20h-875c-12 0-21 9-21 20v63h333v-21c0-11 9-21 21-21h208c12 0 21 10 21 21v21h333v-63z" horiz-adv-x="1000" />

<glyph glyph-name="paint-brush" unicode="&#xe838;" d="M833 433h-209c-7 0-13 4-17 10-4 5-5 13-2 19 13 34 20 69 20 105v158c0 69-56 125-125 125s-125-56-125-125v-158c0-36 7-71 20-105 3-6 2-14-2-19-4-6-10-10-17-10h-209c-46 0-84-37-84-83v-146c0-11 10-21 21-21h21v-312c0-12 9-21 21-21h125c8 0 15 4 19 11l43 88v-78c0-12 10-21 21-21h500c12 0 21 9 21 21v312h21c11 0 21 10 21 21v146c0 46-38 83-84 83z m0-541h-41v187c0 12-10 21-21 21s-21-9-21-21v-187h-42v146c0 11-9 20-20 20s-21-9-21-20v-146h-42v83c0 11-9 21-21 21s-21-10-21-21v-83h-208v146c0 9-7 18-16 20-9 2-19-2-23-11l-78-155h-91v291h666v-291z m42 333h-750v125c0 23 19 42 42 42h209c21 0 40 10 52 27 11 17 14 39 6 58-11 29-17 59-17 90v158c0 46 37 83 83 83s83-37 83-83v-158c0-31-5-61-17-90-8-19-5-41 6-58 12-17 31-27 52-27h209c23 0 42-19 42-42v-125z" horiz-adv-x="1000" />

<glyph glyph-name="paint-bucket" unicode="&#xe839;" d="M815 321c3 8 1 17-5 23l-375 375c-4 4-9 6-15 6v21c0 57-46 104-104 104s-104-47-104-104v-221l-161-160c-40-41-40-107 0-148l195-194c20-20 46-31 74-31 28 0 54 11 73 31l286 285h116c9 0 16 5 20 13z m-561 425c0 34 28 62 62 62s63-28 63-62v-54l-125-125v179z m416-396c-5 0-11-2-14-6l-292-292c-24-23-65-23-88 0l-195 195c-24 24-24 64 0 88l165 165 3 3 130 130v-220c0-12 9-21 20-21s21 9 21 21v262l325-325h-75z m185-135c-8 13-28 13-36 0-11-18-107-178-107-240 0-69 56-125 125-125s125 56 125 125c0 62-96 222-107 240z m-18-323c-46 0-83 37-83 83 0 32 45 123 83 188 38-65 83-156 83-188 0-46-37-83-83-83z" horiz-adv-x="1000" />

<glyph glyph-name="paint-palette" unicode="&#xe83a;" d="M854 672c-95 95-220 146-354 146-133 0-259-51-353-146-95-94-147-220-147-353 0-134 52-260 147-354 39-40 107-40 147 0 40 41 40 107 0 147-4 4-6 9-6 15s2 11 6 15c8 8 21 8 29 0l177-177c47-47 110-73 177-73 67 0 129 26 177 73 94 94 146 220 146 354 0 133-52 259-146 353z m-30-678c-39-39-91-61-147-61-56 0-108 22-147 61l-177 177c-12 12-28 18-44 18s-33-6-45-18c-11-12-18-27-18-44s7-32 18-44c25-25 25-64 0-89-23-23-64-23-88 0-87 87-134 202-134 325 0 122 47 237 134 324 87 86 202 134 324 134 122 0 238-48 324-134 87-87 134-202 134-324 0-123-47-238-134-325z m-147 447c22 0 43 9 59 25 15 16 24 36 24 59 0 22-9 43-24 59-16 15-37 24-59 24-22 0-43-9-59-24-16-16-25-37-25-59 0-23 9-43 25-59 16-16 37-25 59-25z m-30 113c8 8 19 12 30 12 11 0 21-4 29-12 8-8 13-18 13-29 0-11-5-22-13-30-15-15-43-15-59 0-8 8-12 19-12 30 0 11 4 21 12 29z m189-191c-24 23-65 23-88 0-25-25-25-64 0-89 11-11 27-18 44-18s32 7 44 18c24 25 24 64 0 89z m-30-59c-7-8-21-8-29 0-8 8-8 21 0 29 4 4 9 6 15 6s11-2 14-6c9-8 9-21 0-29z m-203-118c-19-20-30-46-30-74 0-28 11-54 30-73 20-20 46-31 74-31 28 0 54 11 74 31 19 19 30 46 30 73 0 28-11 54-30 74-40 39-109 39-148 0z m118-118c-24-24-65-24-88 0-12 12-19 28-19 44 0 17 7 33 19 44 11 12 27 19 44 19s32-7 44-19c12-11 18-27 18-44 0-16-6-32-18-44z m-353 560c-16-16-25-37-25-59s9-43 24-59c16-16 37-24 59-24 23 0 44 8 59 24 16 16 25 37 25 59 0 22-9 43-25 59-31 31-86 31-117 0z m88-88c-16-16-43-16-59 0-8 7-12 18-12 29s4 22 12 29c8 8 18 13 29 13 12 0 22-5 30-13 8-7 12-18 12-29s-4-22-12-29z" horiz-adv-x="1000" />

<glyph glyph-name="paint-roller" unicode="&#xe83b;" d="M854 725h-21v104c0 12-9 21-20 21h-625c-12 0-21-9-21-21v-104h-21c-35 0-63-28-63-62v-167c0-35 28-63 63-63h333c12 0 21-9 21-20v-105c-39-9-83-39-83-81v-313c0-39 59-64 90-64h41c35 0 77 29 77 64v313c0 42-44 72-83 81v105c0 34-28 62-63 62h-333c-12 0-21 9-21 21v167c0 11 10 20 21 20h21v-104c0-11 9-21 21-21h625c11 0 20 10 20 21v104h21c12 0 21 10 21 21s-9 21-21 21z m-271-498v-313c0-8-20-22-35-22h-41c-17 0-46 15-49 22v313c0 20 37 42 63 42s62-22 62-42z m209 373h-584v208h584v-208z" horiz-adv-x="1000" />

<glyph glyph-name="pencil-ruler" unicode="&#xe83c;" d="M415 525l-83 188c-7 15-32 15-38 0l-84-188 0 0-2-8v-563c0-57 47-104 105-104s104 47 104 104v563l-2 8 0 0z m-123-29v-396h-42v396h42z m83 0v-396h-42v396h42z m-125-438h125v-41h-125v41z m63 595l51-115h-103l52 115z m0-761c-35 0-63 28-63 62v21h125v-21c0-34-28-62-62-62z m458 958h-250c-12 0-21-9-21-21v-958c0-12 9-21 21-21h250c11 0 21 9 21 21v958c0 12-10 21-21 21z m-21-958h-208v125h62c12 0 21 9 21 21s-9 20-21 20h-62v125h62c12 0 21 10 21 21s-9 21-21 21h-62v125h62c12 0 21 9 21 21s-9 21-21 21h-62v125h62c12 0 21 9 21 21s-9 20-21 20h-62v125h62c12 0 21 10 21 21s-9 21-21 21h-62v83h208v-916z" horiz-adv-x="1000" />

<glyph glyph-name="pen-fountain" unicode="&#xe83d;" d="M984 706l-118 118c-8 7-22 7-30 0l-16-17c-40 27-95 23-131-13l-235-236c-9-8-9-21 0-29 4-4 9-6 14-6 6 0 11 2 15 6l236 236c19 19 47 22 70 11l-188-188-425-425c-7-7-8-16-3-24-31-1-61-13-84-35-43-43-75-211-78-229l0-2 0-6 1-3 4-8 7-4 8-2 4 0c19 4 186 35 229 79 22 22 35 51 36 83l9-2c5 0 10 2 14 6l425 425 236 235c8 8 8 22 0 30z m-749-748c-18-18-81-38-139-52l68 68c8 8 8 21 0 29-8 9-22 9-30 0l-68-67c15 58 34 120 53 139 15 15 36 24 58 24 22 0 42-9 58-24 15-16 24-37 24-58 0-23-9-43-24-59z m73 102l-88 88 396 396 88-89-396-395z m425 425l-88 88 191 192 1 0 0 0 14 14 89-88-207-206z" horiz-adv-x="1000" />

<glyph glyph-name="pen-point-tip" unicode="&#xe83e;" d="M957 684l-118 118c-8 8-21 8-30 0l-16-16c-40 27-95 22-131-13l-236-236c-8-8-8-21 0-29 4-4 10-6 15-6 5 0 11 2 15 6l236 235c19 19 47 23 70 12l-188-188-413-413c-8-8-8-21 0-29l15-15-74-74c-8-8-8-21 0-29l15-15-74-74c-8-8-8-21 0-29 4-4 10-6 15-6 5 0 11 2 15 6l74 74 14-15c4-4 10-6 15-6 5 0 11 2 15 6l73 74 15-15c4-4 9-6 15-6 5 0 11 2 15 6l412 412 236 236c8 8 8 21 0 29z m-781-692l-15 15 0 0 0 0-14 14 58 59 30-29-59-59z m118 59l-15 15 0 0-59 59 0 0-15 14 383 383 45-44 44-44-383-383z m412 412l-44 45-44 44 191 191 0 0 1 1 14 14 89-88-207-207z" horiz-adv-x="1000" />

<glyph glyph-name="picture-frame" unicode="&#xe83f;" d="M979 642h-221l-217 182c-8 7-19 7-27 0l-209-182h-284c-12 0-21-10-21-21v-750c0-12 9-21 21-21h958c12 0 21 9 21 21v750c0 11-9 21-21 21z m-451 139l165-139h-325l160 139z m430-889h-916v708h916v-708z m-854 41h792c11 0 21 10 21 21v584c0 11-10 20-21 20h-792c-11 0-21-9-21-20v-584c0-11 10-21 21-21z m168 125h206c21-34 41-63 56-83h-318c15 20 35 49 56 83z m24 42c30 54 60 117 79 185 19-68 49-131 79-185h-158z m454-125h-42v125h42v-125z m42 0v250h83v-250h-83z m-667 542h750v-250h-104c-12 0-21-10-21-21v-104h-62c-12 0-21-10-21-21v-146h-80c-32 40-191 252-191 450 0 11-9 20-21 20s-21-9-21-20c0-198-159-410-191-450h-38v542z" horiz-adv-x="1000" />

<glyph glyph-name="quill-ink" unicode="&#xe840;" d="M376 97v45h21c11 0 20 9 20 21v83c0 11-9 21-20 21h-209c-11 0-21-10-21-21v-83c0-12 10-21 21-21h21v-45c-130-22-199-96-208-225-1-5 1-11 5-15 4-5 10-7 16-7h544c6 0 12 2 16 7 4 4 5 10 5 15-10 129-79 203-211 225z m-331-205c14 100 73 152 188 167 10 1 18 10 18 20v84c0 11-10 20-21 20h-21v42h167v-42h-21c-12 0-21-9-21-20v-84c0-10 8-19 18-20 115-15 176-69 191-167h-498z m925 940c-9 8-22 8-30 0l-1-1-105-105v103c0 7-4 14-10 18-6 4-14 4-20 1-44-22-114-68-179-133-60-60-106-129-131-195-21-59-23-107-5-139l-54-54c-8-8-8-22 0-30 4-4 9-6 15-6 5 0 10 2 14 6l54 54c19-11 44-16 72-16 69 0 160 33 237 104 7 6 9 15 6 23-3 8-11 13-20 13h-171l42 42h192c11 0 21 9 21 21s-10 20-21 20h-150l41 42h169c8 0 15 4 18 11 54 94 60 177 16 221z m-437-327c23 60 67 126 122 181 47 47 98 84 137 108v-110l-48-48 0-1-223-222c-6 22-2 54 12 92z m220-72c-82-55-163-64-203-50l51 50h152z m171 209h-115l18 18 2 2 123 122c13-32 4-84-28-142z" horiz-adv-x="1000" />

<glyph glyph-name="refresh" unicode="&#xe841;" d="M284 422c-9 7-22 6-29-3l-106-126c-10 75 5 151 45 218 49 83 130 142 220 164 120 28 245-12 327-104 8-9 21-9 29-2 9 8 10 21 2 30-92 103-232 148-367 116-102-24-192-90-246-182-38-63-56-132-54-202l-67 99c-6 10-19 12-29 6-9-6-12-19-5-29l116-173c3-5 9-9 16-9l1 0c6 0 12 3 16 7l134 160c7 9 6 22-3 30z m695-171l-116 173c-4 5-10 9-17 9-4 1-9-1-13-5l-2-1-2-1-2-3-1-1-130-156c-8-9-6-22 2-29 9-8 22-7 30 2l100 120c4-151-106-297-260-333-113-27-229 6-311 87-8 8-22 8-30 0-8-8-8-22 1-30 71-70 165-108 262-108 29 0 58 3 87 10 169 40 288 190 293 353l74-110c4-6 11-9 17-9 4 0 8 1 12 3 10 7 12 19 6 29z" horiz-adv-x="1000" />

<glyph glyph-name="remote-control-hand" unicode="&#xe842;" d="M830-116l-101 140v183c0 67-48 105-108 154-12 9-25 19-38 30v85c0 46-37 83-83 83h-292c-46 0-83-37-83-83v-459c0-46 37-83 83-83h230c11 0 20 9 20 21s-9 21-20 21h-230c-23 0-41 18-41 41v459c0 23 18 41 41 41h292c23 0 42-18 42-41v-208c0-12 9-21 21-21s20 9 20 21v69l12-9c56-45 93-74 93-121v-190c0-4 1-8 3-12l105-146c4-5 10-8 17-8 4 0 8 1 12 4 9 6 11 19 5 29z m-305 367c-25 25-66 25-92 0-25-25-25-67-2-89l90-130v-58c0-30 9-60 27-85l22-30c4-6 10-9 17-9 4 0 8 1 12 4 9 7 12 20 5 29l-22 30c-13 18-19 39-19 61v64c0 5-2 9-4 12l-96 138c-9 10-9 24 0 33 9 10 24 10 33 0l114-114c8-8 22-8 30 0 8 8 8 21 0 29l-115 115z m-353 502c110 74 260 74 370 0 3-2 7-3 11-3 7 0 14 3 18 9 6 10 3 22-6 29-124 82-293 82-416 0-10-7-12-20-6-29 6-10 19-12 29-6z m352-63c7 9 4 22-5 28-96 65-228 65-324 0-10-6-12-19-6-28 4-6 11-10 18-10 4 0 8 1 11 4 83 55 195 55 277 0 10-7 23-4 29 6z m-283-41c-9-6-12-19-6-29 5-6 11-9 18-9 4 0 8 1 11 3 55 37 130 37 185 0 10-6 23-3 29 6 7 10 4 23-6 29-68 46-162 46-231 0z" horiz-adv-x="1000" />

<glyph glyph-name="remote-control-screen" unicode="&#xe843;" d="M917 850h-834c-46 0-83-37-83-83v-542c0-46 37-83 83-83h271c12 0 21 9 21 21s-9 20-21 20h-271c-23 0-41 19-41 42v542c0 23 18 41 41 41h834c23 0 41-18 41-41v-542c0-23-18-42-41-42h-63c-11 0-21-9-21-20s10-21 21-21h63c46 0 83 37 83 83v542c0 46-37 83-83 83z m-63-583c-11 0-21-10-21-21s10-21 21-21h42c11 0 21 9 21 21v500c0 11-10 21-21 21h-792c-11 0-21-10-21-21v-500c0-12 10-21 21-21h250c12 0 21 9 21 21s-9 21-21 21h-229v458h750v-458h-21z m-125 83h-250c-11 0-21-9-21-21v-417c0-11 10-20 21-20h250c12 0 21 9 21 20v417c0 12-9 21-21 21z m-21-417h-208v375h208v-375z m48 645c-89 55-202 57-293 6-10-6-14-18-8-28 5-10 18-14 28-8 79 43 175 41 252-6 3-2 7-3 11-3 7 0 13 4 17 10 6 10 3 23-7 29z m-54-110c7 0 14 4 18 10 6 10 3 23-7 29-64 39-144 41-210 4-10-5-14-18-8-28 6-10 18-14 28-8 53 29 117 28 168-4 4-2 7-3 11-3z m-158-30c-10-5-14-18-8-28 5-10 18-14 28-8 26 14 58 14 84-2 3-2 7-3 11-3 7 0 13 4 17 10 6 10 3 23-7 29-38 23-86 24-125 2z" horiz-adv-x="1000" />

<glyph glyph-name="script" unicode="&#xe844;" d="M604 642h-229c-11 0-21-10-21-21s10-21 21-21h229c12 0 21 9 21 21s-9 21-21 21z m0-125h-229c-11 0-21-10-21-21s10-21 21-21h229c12 0 21 9 21 21s-9 21-21 21z m0-125h-229c-11 0-21-10-21-21s10-21 21-21h229c12 0 21 9 21 21s-9 21-21 21z m0-125h-229c-11 0-21-10-21-21s10-21 21-21h229c12 0 21 9 21 21s-9 21-21 21z m271 583l-14-1-7 1h-500c-80 0-146-65-146-146v-562h-62c-81 0-146-66-146-146s65-146 146-146h500c80 0 146 65 146 146v687h187c12 0 21 10 21 21 0 86-51 146-125 146z m-729-958c-58 0-104 46-104 104s46 104 104 104h398c-27-26-44-63-44-104s17-78 44-104h-398z m604 104c0-58-47-104-104-104s-104 46-104 104 46 104 104 104c11 0 21 9 21 21s-10 21-21 21h-396v562c0 58 47 104 104 104h429c-20-22-33-51-33-83v-729z m42 729c0 46 37 83 83 83 44 0 75-32 82-83h-165z" horiz-adv-x="1000" />

<glyph glyph-name="server" unicode="&#xe845;" d="M917 621c0 105-183 187-417 187-233 0-416-82-417-187l0 0v-542c0-105 183-187 417-187s417 82 417 187v542l0 0z m-42-354c0-69-154-146-375-146s-375 77-375 146v105c67-63 208-105 375-105s308 42 375 105v-105z m0 187c0-69-154-146-375-146s-375 77-375 146v84c67-62 208-105 375-105 167 0 308 43 375 105v-84z m-375 313c221 0 375-77 375-146l0 0v0c0-69-154-146-375-146-221 0-375 77-375 146s154 146 375 146z m0-834c-221 0-375 77-375 146v105c67-62 208-105 375-105s308 43 375 105v-105c0-69-154-146-375-146z" horiz-adv-x="1000" />

<glyph glyph-name="settings" unicode="&#xe846;" d="M938 850h-917c-12 0-21-9-21-21v-958c0-12 9-21 21-21h917c11 0 20 9 20 21v958c0 12-9 21-20 21z m-21-958h-875v916h875v-916z m-270 416h63v-62c0-12 9-21 21-21s20 9 20 21v62h63c11 0 21 10 21 21v84c0 11-10 20-21 20h-63v271c0 12-9 21-20 21s-21-9-21-21v-271h-63c-11 0-21-9-21-20v-84c0-11 10-21 21-21z m21 84h125v-42h-125v42z m-272 125h62v-271c0-12 10-21 21-21s21 9 21 21v271h63c11 0 20 9 20 21v83c0 11-9 21-20 21h-63v62c0 12-9 21-21 21s-21-9-21-21v-62h-62c-12 0-21-10-21-21v-83c0-12 9-21 21-21z m21 83h125v-42h-125v42z m-271-208h62v-146c0-12 10-21 21-21s21 9 21 21v146h63c11 0 20 9 20 21v83c0 11-9 21-20 21h-63v187c0 12-9 21-21 21s-21-9-21-21v-187h-62c-12 0-21-10-21-21v-83c0-12 9-21 21-21z m21 83h125v-42h-125v42z m564-333c-46 0-83-38-83-84s37-83 83-83 83 37 83 83-37 84-83 84z m0-125c-23 0-42 18-42 41s19 42 42 42c23 0 42-19 42-42s-19-41-42-41z m-252 125c-46 0-83-38-83-84s37-83 83-83 84 37 84 83-38 84-84 84z m0-125c-23 0-41 18-41 41s18 42 41 42c23 0 42-19 42-42s-19-41-42-41z m-250 125c-46 0-83-38-83-84s37-83 83-83 84 37 84 83-38 84-84 84z m0-125c-23 0-41 18-41 41s18 42 41 42c23 0 42-19 42-42s-19-41-42-41z" horiz-adv-x="1000" />

<glyph glyph-name="shield-cross" unicode="&#xe847;" d="M947 826c-7 4-15 3-21-1-74-52-135-75-197-75-75 0-144 34-192 92-7 10-25 10-33 0-47-58-116-92-191-92-62 0-123 23-197 75-6 4-15 5-21 1-7-4-12-11-12-18v-618l1-5c3-10 68-232 431-334l6-1 6 1c363 102 428 324 431 334l0 5v618c0 7-4 14-11 18z m-30-632c-8-24-81-211-396-302-315 91-388 278-396 302v575c67-42 126-60 188-60 79 0 154 32 208 89 54-57 129-89 208-89 61 0 121 18 188 60v-575z m-292 384c0 12-9 21-21 21h-166c-12 0-21-9-21-21v-104h-104c-12 0-21-9-21-21v-166c0-12 9-21 21-21h104v-104c0-12 9-21 21-21h166c12 0 21 9 21 21v104h104c12 0 21 9 21 21v166c0 12-9 21-21 21h-104v104z m83-145v-125h-104c-11 0-21-10-21-21v-104h-125v104c0 11-9 21-20 21h-105v125h105c11 0 20 9 20 20v105h125v-105c0-11 10-20 21-20h104z" horiz-adv-x="1000" />

<glyph glyph-name="shopping-cart-add" unicode="&#xe848;" d="M452 690l90 89v-241c0-12 9-21 21-21s20 9 20 21v241l90-89c4-5 9-7 15-7 5 0 10 2 14 7 8 8 8 21 0 29l-125 125-6 4c-6 3-11 3-16 0l-7-4-125-125c-8-8-8-21 0-29 8-9 21-9 29 0z m422-617l125 375c2 6 1 13-3 18-4 6-10 9-17 9h-737l-55 234c-2 9-11 16-20 16h-146c-12 0-21-9-21-21s9-21 21-21h129l158-671c-33-10-58-42-58-79 0-46 37-83 83-83s84 37 84 83c0 16-5 30-12 42h315c-7-12-12-26-12-42 0-46 38-83 84-83s83 37 83 83-37 84-83 84h-442l-10 41h514c9 0 17 6 20 15z m-499-140c0-23-19-41-42-41-23 0-41 18-41 41s18 42 41 42c23 0 42-19 42-42z m458 0c0-23-18-41-41-41-23 0-42 18-42 41s19 42 42 42c23 0 41-19 41-42z m-503 167l-78 333h698l-111-333h-509z" horiz-adv-x="1000" />

<glyph glyph-name="shopping-cart-remove" unicode="&#xe849;" d="M548 523l7-5 8-1 8 1 6 5 125 125c8 8 8 21 0 29s-21 8-29 0l-90-89v241c0 12-9 21-20 21s-21-9-21-21v-241l-90 89c-8 8-21 8-29 0s-8-21 0-29l125-125z m326-450l125 375c2 6 1 13-3 18-4 6-10 9-17 9h-737l-55 234c-2 9-11 16-20 16h-146c-12 0-21-9-21-21s9-21 21-21h129l158-671c-33-10-58-42-58-79 0-46 37-83 83-83s84 37 84 83c0 16-5 30-12 42h315c-7-12-12-26-12-42 0-46 38-83 84-83s83 37 83 83-37 84-83 84h-442l-10 41h514c9 0 17 6 20 15z m-499-140c0-23-19-41-42-41-23 0-41 18-41 41s18 42 41 42c23 0 42-19 42-42z m458 0c0-23-18-41-41-41-23 0-42 18-42 41s19 42 42 42c23 0 41-19 41-42z m-503 167l-78 333h698l-111-333h-509z" horiz-adv-x="1000" />

<glyph glyph-name="skull" unicode="&#xe84a;" d="M500 829c-208 0-381-154-411-354-3-20-6-41-6-62v-105c0-119 92-217 209-228v-188c0-12 9-21 21-21s20 9 20 21v208c0 12-9 21-20 21-104 0-188 84-188 187v105c0 14 1 28 3 41 80 2 161 60 161 188 0 11-9 21-21 21s-20-10-20-21c0-102-57-141-113-145 38 166 187 291 365 291s327-125 365-291c-56 4-112 43-112 145 0 11-10 21-21 21s-21-10-21-21c0-128 81-186 162-188 1-13 2-27 2-41v-105c0-103-84-187-187-187-12 0-21-9-21-21v-208c0-12 9-21 21-21s20 9 20 21v188c117 11 209 109 209 228v105c0 229-187 416-417 416z m-62-708c-12 0-21-9-21-21v-208c0-12 9-21 21-21s20 9 20 21v208c0 12-9 21-20 21z m125 0c-12 0-21-9-21-21v-208c0-12 9-21 21-21s20 9 20 21v208c0 12-9 21-20 21z m270 187c0 81-65 146-145 146s-146-65-146-146 65-145 146-145 145 65 145 145z m-250 0c0 58 47 105 105 105s104-47 104-105-47-104-104-104-105 47-105 104z m-270 146c-81 0-146-65-146-146s65-145 146-145 145 65 145 145-65 146-145 146z m0-250c-58 0-105 47-105 104s47 105 105 105 104-47 104-105-47-104-104-104z m224-7l-18 37c-7 15-31 15-38 0l-20-41c-4-7-3-14 0-21 4-6 11-9 18-9h43c11 0 21 9 21 20 0 6-2 11-6 14z" horiz-adv-x="1000" />

<glyph glyph-name="smart-device" unicode="&#xe84b;" d="M771 850h-542c-57 0-104-47-104-104v-792c0-57 47-104 104-104h542c57 0 104 47 104 104v792c0 57-47 104-104 104z m62-896c0-34-28-62-62-62h-542c-34 0-62 28-62 62v792c0 34 28 62 62 62h542c34 0 62-28 62-62v-792z m-62 771h-542c-11 0-21-9-21-21v-666c0-12 10-21 21-21h542c11 0 21 9 21 21v666c0 12-10 21-21 21z m-21-667h-500v625h500v-625z" horiz-adv-x="1000" />

<glyph glyph-name="smiley" unicode="&#xe84c;" d="M500 850c-276 0-500-224-500-500s224-500 500-500 500 224 500 500-224 500-500 500z m0-958c-253 0-458 205-458 458s205 458 458 458 458-205 458-458-205-458-458-458z m313 437c-12 0-21-9-21-21 0-160-131-291-292-291s-292 131-292 291c0 12-9 21-20 21s-21-9-21-21c0-183 149-333 333-333s333 150 333 333c0 12-9 21-20 21z m-584 84c12 0 21 9 21 20 0 35 28 63 63 63s62-28 62-63c0-11 9-20 21-20s21 9 21 20c0 58-47 105-104 105s-105-47-105-105c0-11 10-20 21-20z m375 0c12 0 21 9 21 20 0 35 28 63 63 63s62-28 62-63c0-11 9-20 21-20s21 9 21 20c0 58-47 105-104 105s-105-47-105-105c0-11 10-20 21-20z" horiz-adv-x="1000" />

<glyph glyph-name="sneakers" unicode="&#xe84d;" d="M959 150l-556 199c-6 2-14 1-19-3-6-4-9-10-9-17 0-17-40-41-125-41-71 0-125 27-125 41 0 12-9 21-21 21h-41c-35 0-63-28-63-62v-292c0-12 9-21 21-21h958c12 0 21 9 21 21v96c0 26-17 50-41 58z m-3-50h-435c0 23 19 42 42 42h125c26 0 46 18 56 41l201-72c5-2 8-6 11-11z m-893 208h25c20-39 93-62 162-62 82 0 140 21 160 56l55-20-21-21c-9-9-8-22 0-30 4-4 9-6 14-6 6 0 11 2 15 6l36 36 33-12-15-15c-8-8-8-22 0-30 4-4 9-6 15-6 5 0 10 2 14 6l29 29 119-42c-4-8-10-14-16-14h-125c-46 0-84-37-84-83h-314c-10 64-60 114-123 123v65c0 11 9 20 21 20z m-21-127c40-8 73-40 81-81h-81v81z m0-164v41h916v-41h-916z m937 708h-958c-12 0-21-9-21-21v-95c0-27 17-50 42-59l370-133h0l77-27h0l108-39 7-1c4 0 9 1 12 4 6 4 9 10 9 17 0 17 40 42 125 42 71 0 125-28 125-42 0-12 9-21 21-21h42c34 0 62 28 62 63v291c0 12-9 21-21 21z m-21-206c-40 8-73 40-81 81h81v-81z m0 164v-41h-916v41h916z m-914-83h435c0-23-18-42-41-42h-125c-27 0-47-18-57-41l-200 72c-6 2-9 6-12 11z m894-208h-26c-20 39-93 62-162 62-82 0-140-21-160-56l-55 20 21 22c9 8 9 21 0 29-8 8-21 8-29 0l-36-36-33 12 15 15c8 8 8 22 0 30s-21 8-29 0l-29-29-119 42c4 8 10 14 17 14h125c46 0 83 37 83 83h314c10-64 60-114 123-123v-64c0-12-9-21-20-21z" horiz-adv-x="1000" />

<glyph glyph-name="sofa" unicode="&#xe84e;" d="M896 350c-28 0-54-7-77-19l32 207c12 78-10 158-62 218-51 60-126 94-205 94h-168c-79 0-154-34-205-94-52-61-74-140-62-218l32-207c-23 12-49 19-77 19-57 0-104-47-104-104 0-42 25-80 64-96 12-5 19-16 19-29v-83c0-81 66-146 146-146h21v-21c0-12 9-21 21-21s21 9 21 21v21h416v-21c0-12 10-21 21-21s21 9 21 21v21h21c80 0 146 65 146 146v83c0 13 7 24 19 29 39 16 64 54 64 96 0 57-47 104-104 104z m-654 378c44 51 107 80 174 80h168c67 0 130-29 174-80 43-50 62-117 52-184l-38-251c-26-29-43-67-43-110v-30c-37 13-108 30-229 30s-192-17-229-30v30c0 43-16 81-42 110l-39 251c-10 67 9 134 52 184z m678-540c-27-11-45-38-45-67v-83c0-58-47-105-104-105h-542c-57 0-104 47-104 105v83c0 29-18 56-45 67-23 10-38 33-38 58 0 34 28 62 62 62 69 0 125-56 125-125v-62c0-8 4-15 11-18 7-4 15-4 21 0 1 1 63 39 239 39s238-38 239-38c6-5 14-5 21-1 7 3 11 10 11 18v62c0 69 56 125 125 125 34 0 62-28 62-62 0-25-15-48-38-58z m-562 234c4-6 10-9 17-9 4 0 8 1 12 3l37 25c13-29 42-49 76-49s63 20 76 49l38-25c3-2 7-3 11-3 7 0 13 3 17 9 7 9 4 22-5 29l-37 24 37 24c9 7 12 20 5 29-6 10-19 12-28 6l-38-25c-13 29-42 49-76 49s-63-20-76-49l-37 25c-10 6-23 4-29-6-7-9-4-22 6-29l36-24-36-24c-10-7-13-20-6-29z m142 95c23 0 42-19 42-42s-19-42-42-42-42 19-42 42 19 42 42 42z" horiz-adv-x="1000" />

<glyph glyph-name="stamp" unicode="&#xe84f;" d="M896 185h-202c-137 95-74 234-23 346 21 46 37 83 37 112 0 136-104 207-208 207-103 0-208-71-208-207 0-29 16-66 38-113 50-111 113-250-24-345h-202c-57 0-104-47-104-104v-127c0-11 9-21 21-21h21v-62c0-12 9-21 21-21h875c11 0 20 9 20 21v62h21c12 0 21 10 21 21v127c0 57-47 104-104 104z m21-293h-834v41h834v-41z m41 83h-916v106c0 34 28 62 62 62h209c4 0 8 1 11 4 173 115 95 287 44 401-18 38-35 75-35 95 0 114 87 165 167 165 80 0 167-51 167-165 0-20-17-57-34-95-52-114-130-286 43-401 3-3 7-4 12-4h208c34 0 62-28 62-62v-106z" horiz-adv-x="1000" />

<glyph glyph-name="sub-woofer" unicode="&#xe850;" d="M500 454c-57 0-104-46-104-104s47-104 104-104 104 47 104 104-46 104-104 104z m0-166c-34 0-62 28-62 62s28 63 62 63 63-28 63-63-28-62-63-62z m0 437c-207 0-375-168-375-375s168-375 375-375 375 168 375 375-168 375-375 375z m0-708c-184 0-333 149-333 333s149 333 333 333 333-149 333-333-149-333-333-333z m400 110c38 68 58 145 58 223 0 78-20 155-58 223l63 64c49 48 49 128 0 176-47 48-129 48-176 0l-64-63c-137 77-309 76-446 0l-64 63c-47 48-129 48-176 0-49-48-49-128 0-176l63-64c-38-68-58-145-58-223 0-78 20-155 58-223l-63-64c-49-48-49-128 0-176 47-48 129-48 176 0l64 63c137-76 309-77 446 0l64-63c23-24 55-37 88-37 33 0 65 13 88 37 49 48 49 128 0 176l-63 64z m34-211c-32-31-86-31-118 0l-75 75c-4 4-9 6-14 6-4 0-8-1-11-3-131-79-301-79-432 0-8 5-18 4-25-3l-75-75c-32-31-86-31-118 0-32 33-32 86 0 118l75 75c7 7 8 17 3 25-40 66-61 140-61 216 0 76 21 150 61 216 5 8 4 18-3 25l-75 75c-32 33-32 86 0 118 32 31 86 31 118 0l75-75c7-7 17-8 25-3 131 79 301 79 432 0 8-5 18-4 25 3l75 75c32 31 86 31 118 0 32-32 32-85 0-118l-75-75c-7-7-8-17-3-25 40-66 61-140 61-216 0-76-21-150-61-216-5-8-4-18 3-25l75-75c32-32 32-86 0-118z" horiz-adv-x="1000" />

<glyph glyph-name="syringe" unicode="&#xe851;" d="M729 642h-187v166h62c12 0 21 10 21 21s-9 21-21 21h-250c-11 0-21-9-21-21s10-21 21-21h63v-166h-188c-11 0-21-10-21-21s10-21 21-21h104v-396c0-103 50-174 125-185v-148c0-12 10-21 21-21s21 9 21 21v148c76 11 125 82 125 185v396h104c12 0 21 9 21 21s-9 21-21 21z m-271 166h42v-166h-42v166z m125-604c0-72-32-146-104-146-77 0-104 79-104 146v104h42c11 0 21 10 21 21s-10 21-21 21h-42v42h42c11 0 21 9 21 21s-10 20-21 20h-42v42h42c11 0 21 9 21 21s-10 21-21 21h-42v83h208v-396z" horiz-adv-x="1000" />

<glyph glyph-name="target" unicode="&#xe852;" d="M996 737c-4 6-10 9-17 9h-83v83c0 7-3 13-9 17-5 4-12 5-18 3-8-2-198-63-225-172-10-39 2-79 36-118l-55-55c-67 60-154 96-250 96-207 0-375-168-375-375 0-96 37-183 96-250l-90-89c-8-9-8-22 0-30 4-4 10-6 15-6s11 2 15 6l89 90c67-60 154-96 250-96s183 36 250 96l90-90c4-4 9-6 14-6s11 2 15 6c8 8 8 21 0 29l-90 90c60 67 96 154 96 250s-36 183-96 250l55 55c30-25 61-39 92-39 125 0 195 219 198 228 2 6 1 13-3 18z m-142-3l-62-63v100c22 12 44 22 62 29v-66z m-169-67c7 29 33 56 65 78v-115l-41-41c-22 27-31 53-24 78z m23-442c0-91-37-174-96-234l-2-1-1-2c-60-59-143-96-234-96s-174 37-234 96l-1 2-2 1c-59 60-96 143-96 234 0 184 149 333 333 333 84 0 161-31 220-83l-59-59c-43 37-99 59-161 59-138 0-250-112-250-250s112-250 250-250 250 112 250 250c0 62-22 118-59 161l59 59c52-59 83-136 83-220z m-250 0c0-46-37-83-83-83s-83 37-83 83 37 83 83 83c15 0 30-4 42-11l-32-32-10 2c-23 0-42-19-42-42s19-42 42-42 42 19 42 42l-2 10 32 32c7-12 11-27 11-42z m-11 102c-20 14-45 23-72 23-69 0-125-56-125-125s56-125 125-125 125 56 125 125c0 27-9 52-23 72l59 59c29-36 47-81 47-131 0-115-93-208-208-208s-208 93-208 208 93 208 208 208c50 0 95-18 131-47l-59-59z m354 206c-20 0-41 9-62 26l145 145h66c-25-65-81-171-149-171z" horiz-adv-x="1000" />

<glyph glyph-name="teapot" unicode="&#xe853;" d="M854 454c-24 0-47-6-68-17-47 79-126 137-218 156 9 14 15 31 15 49 0 46-37 83-83 83s-83-37-83-83c0-18 6-35 16-49-145-30-255-153-265-303-48 9-85 51-85 102v62c0 35-28 63-62 63-12 0-21-10-21-21s9-21 21-21 21-9 21-21v-62c0-74 55-135 126-144 4-66 26-128 66-181 4-6 10-9 17-9h499c6 0 12 3 16 9 24 31 41 65 52 101 12-3 24-5 36-5 81 0 146 65 146 145s-65 146-146 146z m-150 21h-408c53 52 125 83 204 83 79 0 151-31 204-83z m-246 167c0 23 19 41 42 41 23 0 42-18 42-41s-19-42-42-42c-23 0-42 19-42 42z m281-542h-478c-34 49-53 107-53 167 0 62 20 119 53 166h478c33-47 53-104 53-166 0-60-18-118-53-167z m115 104c-9 0-18 2-26 4 3 19 5 39 5 59 0 47-10 92-28 133 15 8 32 13 49 13 58 0 104-47 104-105s-46-104-104-104z" horiz-adv-x="1000" />

<glyph glyph-name="trash-can" unicode="&#xe854;" d="M958 725h-291v104c0 12-10 21-21 21h-333c-12 0-21-9-21-21v-104h-250c-12 0-21-9-21-21s9-21 21-21h83v-812c0-12 9-21 21-21h667c11 0 20 9 20 21v812h125c12 0 21 10 21 21s-9 21-21 21z m-625 83h292v-83h-292v83z m459-916h-625v791h625v-791z m-479 687c-12 0-21-9-21-21v-500c0-11 9-20 21-20s20 9 20 20v500c0 12-9 21-20 21z m166 0c-11 0-21-9-21-21v-500c0-11 10-20 21-20s21 9 21 20v500c0 12-9 21-21 21z m146-21v-500c0-11 9-20 21-20s21 9 21 20v500c0 12-10 21-21 21s-21-9-21-21z" horiz-adv-x="1000" />

<glyph glyph-name="umbrella" unicode="&#xe855;" d="M821 622c-85 88-198 139-321 144v63c0 12-10 21-21 21s-21-9-21-21v-63c-123-5-237-56-321-144-94-98-144-235-138-377 1-11 10-21 22-20 11 0 20 10 20 21 0 0 1 23 18 41 14 14 36 21 65 21 80 0 84-56 84-62 0-11 8-20 18-21l3 0c9 0 18 6 20 16 0 0 18 67 105 67 79 0 101-55 104-65v-310c0-44 37-67 73-67s73 23 73 67c0 12-10 21-21 21s-21-9-21-21c0-25-28-26-31-26-3 0-31 1-31 26v307c8 15 44 68 104 68 69 0 106-71 106-71 4-8 12-13 21-12 9 1 16 7 18 16 0 0 18 67 84 67 66 0 83-64 84-67 2-10 11-16 22-16 10 1 18 10 19 20 6 142-44 280-137 377z m12-272c-54 0-89-31-108-62-23 28-63 62-121 62-59 0-100-35-122-63-21 31-62 63-128 63-59 0-98-25-120-52-17 28-51 52-110 52-32 0-59-7-80-21 12 101 54 193 123 264 81 85 192 132 312 132 120 0 230-47 311-131 71-74 114-169 124-274-19 17-46 30-81 30z" horiz-adv-x="1000" />

<glyph glyph-name="user" unicode="&#xe856;" d="M820 87l-195 69v96c60 49 99 131 99 223 0 149-103 271-229 271s-229-122-229-271c0-97 44-183 109-230v-89l-195-69c-58-21-97-76-97-138v-78c0-12 10-21 21-21h792c11 0 21 9 21 21v78c0 62-39 117-97 138z m-325 617c92 0 168-81 184-188l-1 0c-60-11-98 8-133 71-4 6-10 10-19 10-7 0-14-4-18-11-19-37-84-69-138-69-21 0-40 3-57 11 19 101 93 176 182 176z m-188-229l1 10c19-7 40-10 62-10 57 0 120 27 155 65 34-47 73-68 123-68 11 0 22 1 34 3 0-126-84-229-187-229s-188 103-188 229z m568-583h-750v57c0 44 28 84 69 99l209 74c8 3 14 11 14 20v79c24-11 50-17 78-17 31 0 61 8 88 21v-83c0-9 6-17 14-20l209-74c41-15 69-55 69-99v-57z" horiz-adv-x="1000" />

<glyph glyph-name="user-chat" unicode="&#xe857;" d="M979 850h-625c-11 0-21-9-21-21v-166h42v145h583v-333h-125c-5 0-10-2-14-6l-131-131v116c0 12-10 21-21 21h-84v-42h63v-145c0-9 5-16 13-20l8-1c5 0 10 2 14 6l161 160h137c12 0 21 10 21 21v375c0 12-9 21-21 21z m-391-805l-150 54v73c46 39 77 103 77 176 0 120-84 218-186 218s-185-98-185-218c0-77 34-144 85-183v-66l-150-54c-47-16-79-62-79-112v-62c0-12 9-21 21-21h625c11 0 21 9 21 21v62c0 50-32 96-79 112z m-259 479c69 0 127-60 141-140-44-7-71 8-97 54-4 7-9 11-19 11-8-1-14-5-18-12-14-27-65-52-105-52-15 0-28 3-40 8 16 75 72 131 138 131z m-143-176l0 2c14-4 29-7 45-7 44 0 92 21 122 49 26-35 57-51 97-51 7 0 15 1 23 2-3-95-66-172-144-172-79 0-143 79-143 177z m439-456h-583v41c0 33 20 62 51 73l164 59c8 3 14 11 14 20v57c18-7 38-12 58-12 24 0 46 5 67 15v-60c0-9 5-17 14-20l164-59c31-11 51-40 51-73v-41z m167 750h41v-42h-41z m-125 0h41v-42h-41z m-125 0h41v-42h-41z" horiz-adv-x="1000" />

<glyph glyph-name="vector" unicode="&#xe858;" d="M979 642c12 0 21 9 21 21v166c0 12-9 21-21 21h-166c-12 0-21-9-21-21v-62h-584v62c0 12-9 21-20 21h-167c-12 0-21-9-21-21v-166c0-12 9-21 21-21h62v-584h-62c-12 0-21-9-21-20v-167c0-12 9-21 21-21h167c11 0 20 9 20 21v62h584v-62c0-12 9-21 21-21h166c12 0 21 9 21 21v167c0 11-9 20-21 20h-62v584h62z m-146 166h125v-125h-125v125z m-791 0h125v-125h-125v125z m125-916h-125v125h125v-125z m791 0h-125v125h125v-125z m-83 166h-62c-12 0-21-9-21-20v-63h-584v63c0 11-9 20-20 20h-63v584h63c11 0 20 9 20 21v62h584v-62c0-12 9-21 21-21h62v-584z" horiz-adv-x="1000" />

<glyph glyph-name="windows-1" unicode="&#xe859;" d="M896 767h-792c-57 0-104-47-104-104v-584c0-57 47-104 104-104h792c57 0 104 47 104 104v584c0 57-47 104-104 104z m-792-42h792c34 0 62-28 62-62v-105h-916v105c0 34 28 62 62 62z m792-708h-792c-34 0-62 28-62 62v438h916v-438c0-34-28-62-62-62z" horiz-adv-x="1000" />

<glyph glyph-name="wrenches" unicode="&#xe85a;" d="M750 215l-132 132 132 132c66-23 142-5 192 45 55 54 70 132 40 203-3 6-8 11-15 12-7 1-14-1-19-6l-74-77h-58v65l73 74c5 5 7 12 6 19-1 7-6 12-12 15-70 29-153 13-206-40-51-51-68-125-45-192l-132-132-132 132c23 67 6 141-45 192-54 55-132 70-202 40-7-3-12-8-13-15-1-7 1-14 6-19l77-74v-65h-65l-74 77c-5 5-12 7-19 6-7-1-12-6-15-12-30-71-14-151 40-205 51-50 125-67 192-44l132-131-132-132c-66 22-142 5-192-45-54-54-70-135-40-206 3-6 8-11 15-12 7-1 14 1 19 6l74 73h65v-58l-77-74c-5-5-7-12-6-19 1-7 6-13 13-15 23-10 47-15 72-15 50 0 96 19 132 55 50 50 66 124 43 192l132 132 132-132c-23-67-6-141 45-192 36-36 84-55 132-55 25 0 50 5 74 15 6 2 11 8 12 15 1 7-1 14-6 19l-73 73v59h59l73-73c5-5 12-7 19-6 7 1 12 6 15 12 30 71 14 152-40 206-51 51-125 68-192 45z m-480 302c-6 6-15 8-23 4-55-23-118-11-160 31-33 34-48 81-40 126l55-57c4-4 9-6 15-6h94c12 0 21 9 21 21v94c0 6-2 11-6 15l-57 55c45 8 91-6 125-40 42-43 54-105 31-160-4-8-2-17 4-23l142-142-60-59-141 141z m55-423c23-55 12-118-30-160-33-33-81-48-126-40l57 55c4 4 6 9 6 15v88c0 12-9 21-21 21h-94c-6 0-11-2-15-6l-55-55c-8 46 6 94 40 129 42 41 107 53 160 31 8-4 17-2 23 4l401 401c6 6 8 15 4 22-23 55-11 118 31 161 34 33 83 48 129 40l-55-55c-4-4-6-9-6-15v-94c0-12 9-21 21-21h88c6 0 11 2 15 6l55 57c8-45-6-91-40-125-42-41-107-54-160-31-8 4-17 2-23-4l-401-401c-6-6-8-15-4-23z m628-82l-55 55c-4 4-9 6-15 6h-88c-12 0-21-9-21-21v-88c0-6 2-11 6-15l55-55c-46-9-94 6-129 40-42 42-54 105-31 160 4 8 2 17-4 23l-141 142 58 59 142-142c6-6 15-8 23-4 55 23 117 11 160-31 34-35 48-83 40-129z" horiz-adv-x="1000" />

<glyph glyph-name="write" unicode="&#xe85b;" d="M813 413c-12 0-21-10-21-21v-500h-750v833h646c11 0 20 9 20 21s-9 21-20 21h-667c-12 0-21-10-21-21v-875c0-12 9-21 21-21h792c11 0 20 9 20 21v521c0 11-9 21-20 21z m182 396c-16 40-70 54-102 22l-398-398-4-5-59-118c-4-8-2-18 4-24 4-4 9-6 15-6 3 0 6 1 9 2l118 59 5 4 398 398c19 18 24 43 14 66z m-439-432l-59-30 30 59 322 322 29-29-322-322z m396 395l-44-44-30 30 44 44c12 12 29 5 35-9 3-7 1-14-5-21z" horiz-adv-x="1000" />

<glyph glyph-name="backpack" unicode="&#xe85c;" d="M833 183h-41v213c24 8 41 31 41 58v250c0 81-65 146-145 146h-375c-81 0-146-65-146-146v-250c0-27 17-50 41-58v-213h-41c-46 0-84-37-84-83v-188c0-34 28-62 63-62h708c35 0 63 28 63 62v188c0 46-38 83-84 83z m0-41c23 0 42-19 42-42v-42h-83v84h41z m-625 562c0 58 47 104 105 104h375c57 0 104-46 104-104v-250c0-11-10-21-21-21h-63v105c0 11-9 20-20 20h-84c-11 0-21-9-21-20v-105h-166v105c0 11-10 20-21 20h-83c-12 0-21-9-21-20v-105h-63c-11 0-21 10-21 21v250z m417-187h42v-167h-42v167z m-292 0h42v-167h-42v167z m-166-375h41v-84h-83v42c0 23 19 42 42 42z m-42-230v105h83v-125h-62c-12 0-21 9-21 20z m125 251v229h42v-63c0-11 9-21 21-21h83c11 0 21 10 21 21v63h166v-63c0-11 10-21 21-21h84c11 0 20 10 20 21v63h42v-500h-42v208c0 46-37 83-83 83h-250c-46 0-83-37-83-83v-208h-42v271z m417-105h-334v42c0 23 19 42 42 42h250c23 0 42-19 42-42v-42z m-334-166v125h334v-125h-334z m521 0h-62v125h83v-105c0-11-9-20-21-20z" horiz-adv-x="1000" />

<glyph glyph-name="bomb" unicode="&#xe85d;" d="M854 746c-34 0-62-28-62-63s-28-62-63-62-62 28-62 62c0 69-56 125-125 125s-125-56-125-125v-83h-63c-11 0-21-9-21-21v-45c-125-51-208-173-208-309 0-184 150-333 333-333s334 149 334 333c0 136-83 258-209 309v45c0 12-9 21-20 21h-105v83c0 46 38 84 84 84 46 0 83-38 83-84 0-57 47-104 104-104s104 47 104 104c0 12 10 21 21 21 12 0 21 10 21 21s-9 21-21 21z m-298-246c116-41 194-152 194-275 0-161-131-292-292-292s-291 131-291 292c0 123 78 234 194 275 8 3 14 11 14 19v39h167v-39c0-8 5-16 14-19z m-241-70c-113-79-141-235-62-348 4-6 11-9 17-9 5 0 9 1 12 4 10 7 12 20 5 29-65 94-42 224 52 290 10 7 12 20 5 29-6 9-19 12-29 5z" horiz-adv-x="1000" />

<glyph glyph-name="book" unicode="&#xe85e;" d="M949 764c-7 3-14 4-21 1l-407-204-407 204c-7 3-15 2-21-1-6-4-10-11-10-18v-646c0-8 5-15 12-19l417-208 0 0 9-2 9 2 0 0 417 208c7 4 11 11 11 19v646c0 7-3 14-9 18z m-824-52l375-187v-600l-375 188v599z m792-599l-375-188v600l375 187v-599z m-739 678l333-169c3-1 7-2 10-2 3 0 6 1 9 2l334 169c10 5 14 18 9 28-5 10-18 14-28 9l-324-164-324 164c-10 5-23 1-28-9-5-10-1-23 9-28z" horiz-adv-x="1000" />

<glyph glyph-name="briefcase" unicode="&#xe85f;" d="M938 558h-271v125c0 23-19 42-42 42h-250c-23 0-42-19-42-42v-125h-270c-35 0-63-28-63-62v-584c0-34 28-62 63-62h875c34 0 62 28 62 62v584c0 34-28 62-62 62z m-313 125v-41h-250v41h250z m-250-83h250v-42h-250v42z m583-688c0-11-9-20-20-20h-875c-12 0-21 9-21 20v584c0 11 9 21 21 21h875c11 0 20-10 20-21v-584z m-833 480h750v-42h-750z m0-167h750v-42h-750z m0-167h750v-41h-750z" horiz-adv-x="1000" />

<glyph glyph-name="bubble-chat" unicode="&#xe860;" d="M938 767h-875c-35 0-63-28-63-63v-541c0-35 28-63 63-63h62v-146c0-8 5-16 13-19l8-2c5 0 11 2 15 6l160 161h617c34 0 62 28 62 63v541c0 35-28 63-62 63z m20-604c0-12-9-21-20-21h-625c-6 0-11-2-15-6l-131-131v116c0 11-10 21-21 21h-83c-12 0-21 9-21 21v541c0 12 9 21 21 21h875c11 0 20-9 20-21v-541z" horiz-adv-x="1000" />

<glyph glyph-name="bubble-heart" unicode="&#xe861;" d="M500 850c-276 0-500-185-500-412 0-107 49-208 139-284l-101-201c-4-8-2-17 4-24 4-4 9-6 15-6l9 2 268 125c53-16 109-24 166-24 276 0 500 185 500 412s-224 412-500 412z m0-782c-56 0-110 8-162 24-5 1-10 1-15-1l-221-103 81 162c5 8 2 19-5 25-88 70-136 164-136 263 0 204 205 370 458 370s458-166 458-370-205-370-458-370z m137 574c-40 0-87-21-116-75-30 54-76 75-116 75-66 0-134-55-134-148 0-132 228-300 238-307 3-2 8-4 12-4s8 2 12 4c10 7 238 175 238 307 0 93-68 148-134 148z m-116-412c-68 52-208 178-208 264 0 67 47 106 92 106 45 0 81-36 96-96 4-19 36-19 40 0 15 60 50 96 96 96 45 0 92-39 92-106 0-86-140-212-208-264z" horiz-adv-x="1000" />

<glyph glyph-name="camera-photo" unicode="&#xe862;" d="M188 183c-58 0-105-46-105-104s47-104 105-104 104 47 104 104-47 104-104 104z m0-166c-35 0-63 28-63 62s28 63 63 63 62-28 62-63-28-62-62-62z m243 1c11-4 23 2 26 13l37 111h54l36-111c3-9 12-14 20-14l7 1c11 3 17 15 13 26l-42 125c-3 9-10 14-19 14h-84c-9 0-17-5-20-14l-41-125c-4-11 2-23 13-26z m-98 624h42v-167h-42z m84 0h41v-167h-41z m83 0h42v-167h-42z m83 0h42v-167h-42z m84 0h41v-167h-41z m229-500h-125c-12 0-21-10-21-21v-83c0-12 9-21 21-21h125c11 0 21 9 21 21v83c0 11-10 21-21 21z m-21-84h-83v42h83v-42z m-21 209h-146v21c0 11-9 20-20 20h-21v84h21c57 0 104 46 104 104v208c0 12-10 21-21 21h-500c-12 0-21-9-21-21v-208c0-58 47-104 104-104h21v-84h-21c-11 0-21-9-21-20v-21h-187c-81 0-146-66-146-146v-83c0-81 65-146 146-146h187v-21c0-12 10-21 21-21h334c11 0 20 9 20 21v21h146c81 0 146 65 146 146v83c0 80-65 146-146 146z m-708-334c-58 0-104 47-104 105v83c0 57 46 104 104 104h187v-292h-187z m146 563v187h458v-187c0-35-28-63-62-63h-334c-34 0-62 28-62 63z m125-104h208v-84h-208v84z m250-500h-292v375h292v-375z m291 146c0-58-46-105-104-105h-146v292h146c58 0 104-47 104-104v-83z" horiz-adv-x="1000" />

<glyph glyph-name="camera-polaroid" unicode="&#xe863;" d="M994 261l-77 77v366c0 81-66 146-146 146h-542c-80 0-146-65-146-146v-366l-77-77c-4-4-6-10-6-15v-146c0-46 37-83 83-83h93c-18-43-45-90-86-131-6-6-8-15-5-23 3-8 11-13 19-13h792c9 0 16 5 19 14 3 8 1 17-6 23-43 36-71 84-88 130h96c46 0 83 37 83 83v146c0 5-2 11-6 15z m-119 443v-354h-292v131c38 26 63 70 63 119s-25 93-63 119v89h188c57 0 104-46 104-104z m-375 42c-15 0-28-3-42-7v69h84v-69c-14 4-27 7-42 7z m0-42c58 0 104-47 104-104s-46-104-104-104-104 47-104 104 47 104 104 104z m0-250c15 0 28 3 42 7v-111h-84v111c14-4 27-7 42-7z m-271 354h188v-89c-38-26-63-70-63-119s25-93 63-119v-131h-292v354c0 58 47 104 104 104z m-116-500h774l42-41h-858l42 41z m136-166h502c2-33 11-100 42-167h-590c33 70 43 135 46 167z m-98-250c11 13 20 27 29 41h636c8-14 18-28 29-41h-694z m766 166h-109c-10 35-13 65-15 84h124v41h-834v-41h124c-2-19-6-49-17-84h-107c-23 0-41 19-41 42v125h916v-125c0-23-18-42-41-42z m-677 374c17 0 31 14 31 31s-14 32-31 32-32-14-32-32c0-17 14-31 32-31z m0 42c5 0 10-5 10-11 0-11-21-11-21 0 0 6 5 11 11 11z m448 168h125c11 0 20 9 20 21v82c0 11-9 20-20 20h-125c-12 0-21-9-21-20v-82c0-12 9-21 21-21z m20 82h84v-41h-84v41z" horiz-adv-x="1000" />

<glyph glyph-name="camera-video" unicode="&#xe864;" d="M542 350h-292c-46 0-83-37-83-83s37-84 83-84c46 0 83 38 83 84 0 15-4 29-11 41h148c-7-12-12-26-12-41 0-46 38-84 84-84 46 0 83 38 83 84s-37 83-83 83z m-250-83c0-23-19-42-42-42s-42 19-42 42 19 41 42 41 42-18 42-41z m250-42c-23 0-42 19-42 42s19 41 42 41 41-18 41-41-18-42-41-42z m439 190c-12 8-28 9-41 4l-190-79v73c0 34-28 62-62 62h-21v104c0 12 9 21 21 21h66c9-24 31-42 59-42h125c34 0 62 28 62 63s-28 62-62 62h-125c-28 0-50-17-59-41h-66c-35 0-63-28-63-63v-104h-125v63c0 34-28 62-62 62h-417c-12 0-21-9-21-21s9-21 21-21h417c11 0 20-9 20-20v-63h-354c-34 0-62-28-62-62v-334c0-34 28-62 62-62h584c34 0 62 28 62 62v73l190-79c6-2 11-3 17-3 8 0 17 2 24 7 12 8 19 22 19 36v266c0 14-7 28-19 36z m-168 227h125c11 0 20-10 20-21s-9-21-20-21h-125c-12 0-21 9-21 21s9 21 21 21z m-125-584h-584c-11 0-21 10-21 21v334c0 11 10 20 21 20h584c11 0 20-9 20-20v-334c0-11-9-21-20-21z m268 53l-206 86v97l208 85-2-268z" horiz-adv-x="1000" />

<glyph glyph-name="twitter" unicode="&#xf099;" d="M904 622q-37-54-90-93 0-8 0-23 0-73-21-145t-64-139-103-117-144-82-181-30q-151 0-276 81 19-2 43-2 126 0 224 77-59 1-105 36t-64 89q19-3 34-3 24 0 48 6-63 13-104 62t-41 115v2q38-21 82-23-37 25-59 64t-22 86q0 49 25 91 68-83 164-133t208-55q-5 21-5 41 0 75 53 127t127 53q79 0 132-57 61 12 115 44-21-64-80-100 52 6 104 28z" horiz-adv-x="928.6" />

<glyph glyph-name="github" unicode="&#xf09b;" d="M429 779q116 0 215-58t156-156 57-215q0-140-82-252t-211-155q-15-3-22 4t-7 17q0 1 0 43t0 75q0 54-29 79 32 3 57 10t53 22 45 37 30 58 11 84q0 67-44 115 21 51-4 114-16 5-46-6t-51-25l-21-13q-52 15-107 15t-108-15q-8 6-23 15t-47 22-47 7q-25-63-5-114-44-48-44-115 0-47 12-83t29-59 45-37 52-22 57-10q-21-20-27-58-12-5-25-8t-32-3-36 12-31 35q-11 18-27 29t-28 14l-11 1q-12 0-16-2t-3-7 5-8 7-6l4-3q12-6 24-21t18-29l6-13q7-21 24-34t37-17 39-3 31 1l13 3q0-22 0-50t1-30q0-10-8-17t-22-4q-129 43-211 155t-82 252q0 117 58 215t155 156 216 58z m-267-616q2 4-3 7-6 1-8-1-1-4 4-7 5-3 7 1z m18-19q4 3-1 9-6 5-9 2-4-3 1-9 5-6 9-2z m16-25q6 4 0 11-4 7-9 3-5-3 0-10t9-4z m24-23q4 4-2 10-7 7-11 2-5-5 2-11 6-6 11-1z m32-14q1 6-8 9-8 2-10-4t7-9q8-3 11 4z m35-3q0 7-10 6-9 0-9-6 0-7 10-6 9 0 9 6z m32 5q-1 7-10 5-9-1-8-8t10-4 8 7z" horiz-adv-x="857.1" />

<glyph glyph-name="linkedin" unicode="&#xf0e1;" d="M195 501v-553h-184v553h184z m12 171q0-41-29-68t-75-27h-1q-46 0-74 27t-28 68q0 41 29 68t75 27 74-27 29-68z m650-407v-317h-183v296q0 59-23 92t-71 33q-35 0-58-19t-36-48q-6-17-6-45v-309h-184q1 223 1 361t0 165l-1 27h184v-80h-1q11 18 23 31t31 29 49 24 64 9q95 0 153-63t58-186z" horiz-adv-x="857.1" />

<glyph glyph-name="arrow-left" unicode="&#xf104;" d="M350 546q0-7-6-12l-219-220 219-219q6-6 6-13t-6-13l-28-28q-5-5-12-5t-13 5l-260 261q-6 5-6 12t6 13l260 260q5 6 13 6t12-6l28-28q6-5 6-13z" horiz-adv-x="357.1" />

<glyph glyph-name="arrow-right" unicode="&#xf105;" d="M332 314q0-7-5-12l-261-261q-5-5-12-5t-13 5l-28 28q-6 6-6 13t6 13l219 219-219 220q-6 5-6 12t6 13l28 28q5 6 13 6t12-6l261-260q5-5 5-13z" horiz-adv-x="357.1" />

<glyph glyph-name="arrow-up" unicode="&#xf106;" d="M600 189q0-7-6-12l-28-28q-5-6-12-6t-13 6l-220 219-219-219q-5-6-13-6t-12 6l-28 28q-6 5-6 12t6 13l260 260q5 6 12 6t13-6l260-260q6-5 6-13z" horiz-adv-x="642.9" />

<glyph glyph-name="arrow-down" unicode="&#xf107;" d="M600 439q0-7-6-12l-260-261q-5-5-13-5t-12 5l-260 261q-6 5-6 12t6 13l28 28q5 6 12 6t13-6l219-219 220 219q5 6 13 6t12-6l28-28q6-5 6-13z" horiz-adv-x="642.9" />

<glyph glyph-name="youtube" unicode="&#xf167;" d="M542 156v-118q0-37-22-37-13 0-25 12v168q12 12 25 12 22 0 22-37z m189-1v-25h-51v25q0 38 25 38t26-38z m-540 122h60v52h-174v-52h59v-318h55v318z m161-318h50v276h-50v-211q-17-23-32-23-10 0-11 11-1 2-1 20v203h-50v-218q0-28 5-41 7-21 32-21 27 0 57 34v-30z m240 83v110q0 41-5 55-10 31-40 31-28 0-52-30v121h-50v-370h50v27q25-31 52-31 30 0 40 31 5 15 5 56z m188 6v7h-51q0-29-1-34-4-20-22-20-26 0-26 38v49h100v57q0 44-15 65-22 28-59 28-38 0-60-28-15-21-15-65v-96q0-44 16-65 22-29 60-29 40 0 60 30 10 15 12 30 1 5 1 33z m-339 509v117q0 39-24 39t-24-39v-117q0-39 24-39t24 39z m401-419q0-131-14-195-8-33-33-56t-57-25q-102-12-309-12t-310 12q-32 3-57 25t-32 56q-15 62-15 195 0 131 15 195 7 33 32 56t57 26q103 11 310 11t309-11q33-4 58-26t32-56q14-62 14-195z m-557 712h57l-67-223v-151h-56v151q-8 42-34 119-21 57-37 104h60l39-147z m207-186v-97q0-46-16-66-21-29-59-29-37 0-59 29-15 21-15 66v97q0 45 15 66 22 28 59 28 38 0 59-28 16-21 16-66z m187 91v-279h-51v31q-30-35-58-35-25 0-33 21-4 13-4 42v220h51v-205q0-19 0-20 2-12 12-12 15 0 32 24v213h51z" horiz-adv-x="857.1" />

<glyph glyph-name="xing" unicode="&#xf168;" d="M333 478q-5-10-143-255-15-25-36-25h-134q-12 0-17 9t0 20l141 250q1 0 0 1l-90 156q-7 12 0 20 5 9 17 9h134q22 0 37-26z m450 358q6-9 0-21l-295-521v0l188-344q6-11 0-20-5-9-17-9h-134q-23 0-37 25l-189 348q10 18 296 525 14 25 36 25h135q12 0 17-8z" horiz-adv-x="785.7" />

<glyph glyph-name="dropbox" unicode="&#xf16b;" d="M224 456l276-171-191-159-273 178z m551-310v-60l-274-164v-1l0 1-1-1v1l-273 164v60l82-54 191 159v1l1-1 0 1v-1l192-159z m-466 638l191-159-276-169-188 150z m467-328l188-152-273-178-191 159z m-85 328l273-178-188-150-276 169z" horiz-adv-x="1000" />

<glyph glyph-name="stackoverflow" unicode="&#xf16c;" d="M719-61h-624v268h-89v-357h803v357h-90v-268z m-525 293l18 87 437-92-18-87z m57 208l38 82 404-189-37-81z m112 199l57 69 343-287-57-68z m222 211l266-358-71-53-267 357z m-401-821v89h447v-89h-447z" horiz-adv-x="857.1" />

<glyph glyph-name="instagram" unicode="&#xf16d;" d="M571 350q0 59-41 101t-101 42-101-42-42-101 42-101 101-42 101 42 41 101z m77 0q0-91-64-156t-155-64-156 64-64 156 64 156 156 64 155-64 64-156z m61 229q0-21-15-36t-37-15-36 15-15 36 15 36 36 15 37-15 15-36z m-280 123q-4 0-43 0t-59 0-54-2-57-5-40-11q-28-11-49-32t-33-49q-6-16-10-40t-6-58-1-53 0-59 0-43 0-43 0-59 1-53 6-58 10-40q12-28 33-49t49-32q16-6 40-11t57-5 54-2 59 0 43 0 42 0 59 0 54 2 58 5 39 11q28 11 50 32t32 49q6 16 10 40t6 58 1 53 0 59 0 43 0 43 0 59-1 53-6 58-10 40q-11 28-32 49t-50 32q-16 6-39 11t-58 5-54 2-59 0-42 0z m428-352q0-128-3-177-5-116-69-180t-179-69q-50-3-177-3t-177 3q-116 6-180 69t-69 180q-3 49-3 177t3 177q5 116 69 180t180 69q49 3 177 3t177-3q116-6 179-69t69-180q3-49 3-177z" horiz-adv-x="857.1" />

<glyph glyph-name="flickr" unicode="&#xf16e;" d="M696 779q67 0 114-48t47-113v-536q0-66-47-113t-114-48h-535q-67 0-114 48t-47 113v536q0 66 47 113t114 48h535z m-306-429q0 49-35 84t-84 34-83-34-35-84 35-84 83-34 84 34 35 84z m314 0q0 49-34 84t-84 34-84-34-34-84 34-84 84-34 84 34 34 84z" horiz-adv-x="857.1" />

<glyph glyph-name="bitbucket" unicode="&#xf171;" d="M455 371q4-35-28-57t-63-3q-21 9-29 32t-1 46 29 32q20 11 41 7t36-20 15-37z m62 11q-8 60-63 92t-110 7q-35-15-56-49t-20-72q3-51 44-87t92-31q51 4 85 47t28 93z m133 303q-11 15-31 25t-32 12-40 7q-162 26-316-1-24-4-37-7t-30-12-28-24q16-16 42-26t41-12 49-6q127-16 250-1 35 5 50 7t40 12 42 26z m32-578q-4-14-9-42t-7-47-16-39-33-32q-48-27-106-40t-112-12-113 10q-25 5-45 10t-43 15-41 25-29 34q-14 54-31 163l3 9 10 5q124-83 283-83t283 83q12-3 13-13t-3-25-4-21z m101 537q-15-94-62-366-3-17-15-31t-24-23-31-17q-140-70-340-49-139 15-220 78-8 6-14 14t-10 20-5 19-3 22-3 20q-5 27-15 83t-16 90-13 83-12 88q2 14 10 27t17 21 26 17 25 12 27 10q70 26 175 36 211 21 377-28 86-25 120-68 9-11 9-28t-3-30z" horiz-adv-x="785.7" />

<glyph glyph-name="tumblr" unicode="&#xf173;" d="M527 108l44-132q-12-19-61-37t-99-18q-58-1-107 15t-79 41-53 59-31 67-9 66v304h-94v120q40 14 72 39t51 50 32 57 19 55 8 49q1 3 3 5t4 2h136v-237h186v-140h-186v-289q0-17 3-31t13-30 28-23 45-8q44 1 75 16z" horiz-adv-x="571.4" />

<glyph glyph-name="apple" unicode="&#xf179;" d="M777 172q-21-70-68-139-72-110-144-110-27 0-78 18-48 18-84 18-34 0-79-19-45-19-74-19-85 0-168 145-82 146-82 281 0 127 63 208 63 81 159 81 40 0 98-17 58-17 77-17 25 0 80 19 57 19 97 19 66 0 119-36 29-20 58-56-44-37-64-66-36-52-36-115 0-69 38-125t88-70z m-209 655q0-34-17-76-16-42-52-77-30-30-60-40-20-7-58-10 2 83 44 143 41 60 139 83 1-2 2-6t1-6q0-2 0-6t1-5z" horiz-adv-x="785.7" />

<glyph glyph-name="windows" unicode="&#xf17a;" d="M381 289v-364l-381 53v311h381z m0 414v-367h-381v315z m548-414v-439l-507 70v369h507z m0 490v-443h-507v373z" horiz-adv-x="928.6" />

<glyph glyph-name="android" unicode="&#xf17b;" d="M275 581q9 0 16 6t6 15-6 16-16 6-15-6-6-16 6-15 15-6z m236 0q9 0 15 6t6 15-6 16-15 6-16-6-6-16 6-15 16-6z m-453-103q23 0 40-17t16-40v-240q0-24-16-41t-40-17-41 17-17 41v240q0 23 17 40t41 17z m591-11v-371q0-26-18-44t-43-18h-42v-127q0-24-16-40t-41-17-41 17-17 40v127h-77v-127q0-24-16-40t-41-17q-24 0-40 17t-17 40l-1 127h-41q-26 0-43 18t-18 44v371h512z m-129 226q59-30 95-85t36-121h-516q0 66 35 121t96 85l-39 73q-4 8 2 12 8 3 12-4l40-74q53 24 112 24t112-24l40 74q4 7 11 4 7-4 3-12z m266-272v-240q0-24-17-41t-41-17q-23 0-40 17t-17 41v240q0 24 17 40t40 17q24 0 41-17t17-40z" horiz-adv-x="785.7" />

<glyph glyph-name="dribbble" unicode="&#xf17d;" d="M571 13q-23 134-78 278h-1l-1-1q-9-3-24-9t-56-27-77-46-73-64-57-82l-9 6q103-84 234-84 73 0 142 29z m-103 339q-11 27-29 62-174-52-376-52 0-4 0-12 0-69 24-132t69-112q28 49 69 93t80 69 73 45 55 27l21 7q2 1 7 2t7 3z m-59 118q-67 119-137 211-77-36-130-104t-72-152q169 0 339 45z m381-178q-117 33-228 16 49-133 71-262 62 42 104 106t53 140z m-449 414q-1 0-1-1 0 1 1 1z m329-81q-103 91-241 91-43 0-87-10 73-95 137-214 39 15 73 34t54 34 36 32 21 23z m125-271q-2 129-83 229l-1-1q-5-7-11-13t-24-25-40-34-55-36-74-36q14-30 25-53 1-3 3-10t5-9q20 2 41 4t41 1 39-1 35-2 32-3 27-4 20-3 14-3z m62-4q0-117-57-215t-156-156-215-58-216 58-155 156-58 215 58 215 155 156 216 58 215-58 156-156 57-215z" horiz-adv-x="857.1" />

<glyph glyph-name="skype" unicode="&#xf17e;" d="M655 257q0 28-11 51t-27 38-41 27-46 19-49 13l-58 14q-17 4-25 6t-19 6-17 9-9 12-4 16q0 43 80 43 24 0 43-6t30-16 21-19 23-16 27-7q26 0 42 18t16 43q0 31-32 55t-79 38-101 13q-38 0-74-9t-67-26-49-48-19-72q0-34 10-60t32-42 44-27 58-18l81-20q51-12 63-20 18-11 18-34 0-21-23-36t-58-14q-29 0-51 9t-37 22-25 25-26 21-30 9q-28 0-42-17t-14-41q0-52 68-88t162-37q41 0 78 10t69 30 49 52 19 74z m202-121q0-89-63-152t-151-63q-73 0-131 45-43-9-83-9-80 0-153 31t-126 84-83 125-31 153q0 41 9 84-45 58-45 130 0 89 63 152t151 63q73 0 131-45 43 9 84 9 79 0 152-31t126-84 84-125 30-153q0-41-8-84 44-58 44-130z" horiz-adv-x="857.1" />

<glyph glyph-name="foursquare" unicode="&#xf180;" d="M558 608l21 108q3 13-5 22t-20 10h-397q-13 0-22-10t-8-20v-615q0-4 3 0l162 196q13 15 22 19t26 4h134q12 0 20 8t11 17q13 72 20 106 2 12-6 23t-21 10h-164q-16 0-26 11t-11 27v23q0 16 11 27t26 10h193q10 0 20 7t11 17z m127 124q-9-41-30-149t-39-195-19-97q-4-12-5-18t-8-18-14-19-21-12-33-5h-151q-7 0-12-6-5-5-238-275-12-14-33-16t-27 3q-30 12-30 54v787q0 31 21 58t67 26h495q53 0 71-30t6-88z m0 0l-88-441q2 9 19 97t39 195 30 149z" horiz-adv-x="714.3" />

<glyph glyph-name="trello" unicode="&#xf181;" d="M393 100v571q0 8-5 13t-13 5h-268q-8 0-13-5t-5-13v-571q0-8 5-13t13-5h268q8 0 13 5t5 13z m375 214v357q0 8-5 13t-13 5h-268q-8 0-13-5t-5-13v-357q0-7 5-12t13-6h268q8 0 13 6t5 12z m89 429v-786q0-14-10-25t-26-11h-785q-15 0-25 11t-11 25v786q0 14 11 25t25 11h785q15 0 26-11t10-25z" horiz-adv-x="857.1" />

<glyph glyph-name="vkontakte" unicode="&#xf189;" d="M1070 560q13-36-84-164-13-18-36-48-22-28-31-40t-17-27-7-24 8-19 18-24 32-30q2-1 2-2 79-73 107-123 2-3 4-7t4-15-1-19-14-15-33-7l-142-3q-14-2-32 3t-29 13l-11 6q-17 12-39 36t-38 43-34 33-32 8q-1 0-4-2t-10-8-12-16-9-29-4-44q0-8-2-15t-4-10l-2-3q-10-11-30-12h-64q-40-3-81 9t-74 29-57 37-40 32l-14 14q-5 5-15 17t-40 50-59 85-68 117-73 152q-4 9-4 15t2 9l2 3q9 11 32 11l153 1q7-1 13-3t9-5l3-2q9-6 13-18 11-28 26-57t23-46l9-16q16-34 31-58t27-38 23-22 19-8 15 3q1 1 3 3t7 12 7 26 5 46 0 69q-1 23-5 41t-7 26l-4 6q-14 19-47 24-8 2 3 14 8 10 21 17 29 14 133 13 46-1 75-7 12-3 19-8t12-13 5-18 2-25 0-31-2-40 0-46q0-6-1-23t0-27 2-22 6-22 13-14q4-1 9-2t15 6 21 19 29 38 38 60q33 58 60 125 2 6 5 10t6 6l3 2 2 1t8 2 11 0l160 1q22 3 36-1t17-10z" horiz-adv-x="1071.4" />

<glyph glyph-name="vimeo" unicode="&#xf194;" d="M721 494q6 121-90 124-129 4-174-146 25 11 46 11 47 0 41-54-2-32-41-93t-59-61q-24 0-46 94-7 30-25 142-16 106-89 99-33-4-91-56l-46-40-45-40 29-37q43 29 49 29 32 0 59-100 9-31 26-92t25-92q38-100 91-100 88 0 214 164 123 158 126 248z m136 124v-536q0-66-47-113t-114-48h-535q-67 0-114 48t-47 113v536q0 66 47 113t114 48h535q67 0 114-48t47-113z" horiz-adv-x="857.1" />

<glyph glyph-name="slack" unicode="&#xf198;" d="M848 417q34 0 57-23t24-56q0-54-52-73l-96-33 31-93q4-12 4-26 0-33-24-57t-56-24q-26 0-48 15t-29 40l-31 92-173-59 31-91q4-14 4-27 0-33-23-57t-57-24q-27 0-48 15t-29 41l-31 91-85-30q-17-5-28-5-34 0-57 22t-23 57q0 26 16 47t40 30l87 29-59 175-87-30q-14-5-27-5-33 0-56 23t-23 56q0 26 15 48t40 29l88 30-30 88q-4 14-4 27 0 33 23 57t57 24q26 0 48-16t29-40l30-89 173 59-30 89q-4 13-4 26 0 33 23 57t57 24q26 0 48-15t30-40l29-90 91 31q11 3 24 3 33 0 57-22t24-55q0-25-17-45t-41-29l-88-30 59-177 91 32q13 4 26 4z m-443-146l173 58-59 176-173-60z" horiz-adv-x="928.6" />

<glyph glyph-name="google" unicode="&#xf1a0;" d="M429 411h404q7-37 7-71 0-121-51-216t-145-149-215-54q-88 0-167 34t-137 91-91 137-34 167 34 167 91 137 137 91 167 34q167 0 287-113l-117-112q-68 67-170 67-72 0-133-37t-97-98-36-136 36-136 97-98 133-37q48 0 89 14t67 33 46 46 28 49 13 43h-243v147z" horiz-adv-x="857.1" />

<glyph glyph-name="reddit" unicode="&#xf1a1;" d="M611 199q9-9 0-17-34-35-111-35t-111 35q-9 8 0 17 3 3 8 3t9-3q27-28 94-28 67 0 94 28 4 3 9 3t8-3z m-171 101q0-21-15-35t-35-15-35 15-15 35q0 21 15 36t35 14 35-15 15-35z m220 0q0-21-15-35t-35-15-35 15-15 35 15 35 35 15 35-14 15-36z m140 67q0 27-19 47t-48 19-48-20q-72 50-173 54l35 158 112-26q0-20 14-35t35-14 36 15 14 35-14 35-36 15q-30 0-44-28l-124 28q-10 3-14-9l-38-174q-101-4-173-54-19 20-48 20-28 0-48-19t-19-47q0-20 10-36t28-24q-4-16-4-32 0-79 79-135t188-57q110 0 188 57t78 135q0 18-4 32 17 8 27 24t10 36z m200-17q0-102-40-194t-106-160-160-106-194-40-194 40-160 106-106 160-40 194 40 194 106 160 160 106 194 40 194-40 160-106 106-160 40-194z" horiz-adv-x="1000" />

<glyph glyph-name="stumbleupon" unicode="&#xf1a4;" d="M593 453v66q0 23-17 40t-40 16-40-16-17-40v-342q0-98-70-167t-170-69q-99 0-169 70t-70 169v149h183v-146q0-24 17-41t40-16 40 16 17 41v346q0 95 71 163t168 67q98 0 168-68t71-164v-76l-109-32z m295-124h183v-149q0-99-70-169t-169-70q-99 0-169 69t-70 168v150l73-34 109 32v-151q0-23 16-40t41-16 40 16 16 40v154z" horiz-adv-x="1071.4" />

<glyph glyph-name="delicious" unicode="&#xf1a5;" d="M821 82v268h-392v393h-268q-52 0-89-37t-36-88v-268h393v-393h267q52 0 89 37t36 88z m36 536v-536q0-66-47-113t-114-48h-535q-67 0-114 48t-47 113v536q0 66 47 113t114 48h535q67 0 114-48t47-113z" horiz-adv-x="857.1" />

<glyph glyph-name="digg" unicode="&#xf1a6;" d="M183 693h114v-549h-297v389h183v160z m0-457v206h-69v-206h69z m160 297v-389h114v389h-114z m0 160v-114h114v114h-114z m160-160h297v-526h-297v91h183v46h-183v389z m183-297v206h-69v-206h69z m160 297h297v-526h-297v91h183v46h-183v389z m183-297v206h-69v-206h69z" horiz-adv-x="1142.9" />

<glyph glyph-name="behance" unicode="&#xf1b4;" d="M1031 661h-285v-69h285v69z m-140-238q-51 0-82-29t-34-80h227q-10 109-111 109z m9-326q35 0 68 18t42 48h123q-55-171-238-171-119 0-190 73t-70 194q0 116 72 193t188 77q77 0 134-38t86-100 28-139q0-9-1-26h-367q0-62 32-96t93-33z m-745 28h165q114 0 114 93 0 100-111 100h-168v-193z m0 299h156q44 0 69 21t26 63q0 80-106 80h-145v-164z m-155 284h332q48 0 86-8t71-26 50-54 17-86q0-101-96-147 64-17 96-64t33-114q0-41-14-76t-37-58-55-39-67-24-75-7h-341v703z" horiz-adv-x="1142.9" />

<glyph glyph-name="spotify" unicode="&#xf1bc;" d="M629 175q0 18-17 28-107 64-249 64-74 0-160-19-24-5-24-29 0-11 8-19t20-8q2 0 20 5 74 15 136 15 126 0 221-58 11-6 19-6 10 0 18 8t8 19z m54 120q0 22-20 34-132 79-306 79-85 0-169-24-27-7-27-36 0-14 10-23t24-10q4 0 20 4 69 19 141 19 155 0 272-69 13-8 21-8 14 0 24 10t10 24z m60 138q0 26-23 39-70 41-163 62t-191 21q-114 0-204-26-12-4-21-15t-9-27q0-17 12-29t28-11q7 0 23 4 74 21 171 21 89 0 173-19t141-53q12-7 23-7 16 0 28 11t12 29z m114-83q0-117-57-215t-156-156-215-58-216 58-155 156-58 215 58 215 155 156 216 58 215-58 156-156 57-215z" horiz-adv-x="857.1" />

<glyph glyph-name="soundcloud" unicode="&#xf1be;" d="M438 84l8 135-8 292q-1 5-5 9t-9 4q-5 0-9-4t-4-9l-7-292 7-135q1-5 5-9t8-3q12 0 14 12z m165 17l6 117-7 327q0 9-7 14-5 3-9 3t-9-3q-7-5-7-14l-1-3-5-323q0-1 6-132v0q0-6 3-10 5-6 13-6 6 0 11 5 5 4 5 11z m-583 189l11-71-11-70q-2-5-5-5t-5 5l-10 70 10 71q1 5 5 5t5-5z m48 44l14-115-14-113q-2-5-6-5-5 0-5 5l-13 113 13 115q0 5 5 5 4 0 6-5z m156-252z m-105 274l14-137-14-132q0-6-6-6-6 0-7 6l-12 132 12 137q1 6 7 6 6 0 6-6z m52 4l13-141-13-136q-1-8-7-8-8 0-8 8l-11 136 11 141q0 7 8 7 6 0 7-7z m53-11l12-130-12-137q-1-9-9-9-3 0-6 2t-2 7l-12 137 12 130q0 4 2 6t6 3q8 0 9-9z m214-265z m-162 347l12-212-12-137q0-4-3-7t-6-3q-9 0-10 10l-10 137 10 212q1 10 10 10 4 0 6-3t3-7z m53 48l10-261-10-136q0-5-3-8t-8-3q-10 0-11 11l-9 136 9 261q1 11 11 11 5 0 8-4t3-7z m54 22l10-282-10-135q-1-12-12-12-10 0-12 12l-9 135 9 282q0 5 4 9t8 4q5 0 9-4t3-9z m219-414z m-110 417l8-285-8-133q0-6-5-10t-9-4-10 3-4 11l-8 133 8 285q0 6 4 10t10 3 9-3 5-10z m55-11l8-275-8-131q0-6-5-11t-10-4-11 4-5 11l-6 131 6 275q1 7 5 11t11 5 10-5 5-11z m118-275l-8-129q0-7-5-12t-12-5-12 5-6 12l-3 64-3 65 6 355v2q1 8 7 13 5 4 11 4 5 0 8-3 8-4 9-14z m621 11q0-65-47-111t-111-46h-439q-7 1-12 6t-5 12v502q0 13 16 18 47 19 101 19 108 0 188-73t89-181q30 12 62 12 65 0 111-46t47-112z" horiz-adv-x="1285.7" />

<glyph glyph-name="codeopen" unicode="&#xf1cb;" d="M121 198l336-225v201l-186 124z m-35 80l108 72-108 72v-144z m457-305l337 225-151 100-186-124v-201z m-43 275l152 102-152 102-152-102z m-229 154l186 124v201l-336-225z m535-52l108-72v144z m-77 52l151 100-337 225v-201z m271 100v-304q0-23-19-36l-457-305q-12-7-24-7t-24 7l-457 305q-19 13-19 36v304q0 23 19 36l457 305q12 7 24 7t24-7l457-305q19-13 19-36z" horiz-adv-x="1000" />

<glyph glyph-name="git" unicode="&#xf1d3;" d="M332 5q0 56-92 56-88 0-88-58 0-57 96-57 84 0 84 59z m-33 422q0 34-17 56t-49 23q-69 0-69-81 0-75 69-75 66 0 66 77z m150 180v-112q-20-7-44-13 9-24 9-47 0-70-41-120t-110-63q-22-5-33-15t-11-33q0-17 13-28t32-18 44-12 48-15 44-21 32-35 13-55q0-170-203-170-38 0-72 7t-65 23-49 46-18 71q0 92 102 125v3q-38 22-38 70 0 61 35 76v3q-40 13-66 60t-27 93q0 77 53 129t131 51q54 0 100-26 54 0 121 26z m178-491h-124q2 25 2 74v340q0 53-2 72h124q-3-19-3-69v-343q0-49 3-74z m335 124v-110q-40-22-97-22-35 0-60 12t-39 27-22 44-10 51-2 58v196h1v2q-4 0-11 0t-10 1q-12 0-33-3v106h54v42q0 30-4 50h127q-3-23-3-92h95v-106q-8 0-24 1t-24 1h-47v-204q0-73 48-73 34 0 61 19z m-321 528q0-32-22-57t-54-24q-32 0-54 24t-23 57q0 33 22 57t55 25q33 0 54-25t22-57z" horiz-adv-x="1000" />

<glyph glyph-name="slideshare" unicode="&#xf1e7;" d="M487 437q0-46-35-79t-85-34-85 34-36 79q0 47 36 80t85 33 85-33 35-80z m280 0q0-46-35-79t-85-34q-50 0-85 34t-36 79q0 47 36 80t85 33q50 0 85-33t35-80z m126-100v372q0 48-18 69t-62 20h-620q-47 0-63-19t-17-70v-376q24-13 50-22t45-16 45-10 40-6 39-2 32-1 32 2 25 1q38 0 53-15 3-4 5-5 15-14 34-29 4 51 66 49 3 0 21-1t24-1 25-1 30 1 30 2 34 5 35 7 37 11 38 15 40 20z m91 2q-68-83-208-140 47-159-13-260-36-63-102-82-58-18-101 8-48 28-46 92l-1 182v0q-4 1-13 3t-13 3l-1-188q2-64-46-92-44-26-102-8-66 20-102 83-58 101-12 259-140 57-208 140-14 21-2 36t33-1q3-1 7-4t6-4v387q0 40 26 69t64 28h701q37 0 64-28t26-69v-387l12 8q21 15 33 1t-2-36z" horiz-adv-x="1000" />

<glyph glyph-name="twitch" unicode="&#xf1e8;" d="M500 608v-242h-81v242h81z m222 0v-242h-81v242h81z m0-424l141 141v444h-666v-585h182v-121l121 121h222z m222 666v-565l-242-242h-182l-121-122h-121v122h-222v646l61 161h827z" horiz-adv-x="1000" />

<glyph glyph-name="lastfm" unicode="&#xf202;" d="M721 457q0-3 6-23 5-16 14-27t22-19 25-11 31-10q181-50 181-185 0-81-59-135t-142-54q-33 0-62 10t-51 26-43 41-35 49-30 58-24 57-22 60-20 53q-18 45-35 74t-41 54-58 36-79 11q-53 0-102-31t-77-81-28-103q0-89 59-156t147-67q99 0 144 53 31 36 46 65l47-85q-8-19-24-39l0 0q-73-85-216-85-82 0-151 44t-106 116-38 153q0 59 24 115t65 98 96 68 114 26q49 0 89-11t69-28 53-44 40-56 33-65 28-69 28-73 31-71q53-112 130-112 45 0 77 27t32 72q0 24-11 40t-28 26-40 18-47 15-49 19-45 29-37 45-21 69q-2 9-2 18 0 62 49 107t111 44q43-2 67-8t50-30h0q6-6 13-14t14-20 11-15l-72-55q-15 27-30 39v0q-13 12-55 12-27 0-46-18t-20-47z" horiz-adv-x="1000" />

<glyph glyph-name="forumbee" unicode="&#xf211;" d="M521 766q-177-67-310-202t-200-313q-11 50-11 98 0 117 57 215t156 156 214 57q46 0 94-11z m150-66q52-36 92-87-217-63-377-223t-221-378q-52 41-86 91 62 215 220 374t372 223z m-409-745q65 199 212 348t346 214q22-51 30-109-163-67-288-192t-191-290q-58 8-109 29z m595-32q-108 28-205 64-75-47-161-59 60 114 152 206t206 154q-11-85-56-158 36-98 64-207z" horiz-adv-x="857.1" />

<glyph glyph-name="sellsy" unicode="&#xf213;" d="M837 85v409q0 12-8 20t-20 8h-52q-11 0-19-8t-9-20v-409q0-11 9-20t19-8h52q11 0 20 8t8 20z m-158 0v296q0 11-9 20t-19 8h-57q-11 0-19-8t-9-20v-296q0-11 9-20t19-8h57q11 0 19 8t9 20z m-163 0v239q0 12-9 20t-19 8h-57q-11 0-19-8t-8-20v-239q0-11 8-20t19-8h57q11 0 19 8t9 20z m-163 0v202q0 11-9 20t-19 8h-57q-11 0-19-8t-8-20v-202q0-11 8-20t19-8h57q11 0 19 8t9 20z m790 81q0-92-66-158t-158-66h-695q-92 0-158 66t-66 158q0 65 35 120t94 83q-6 19-6 41 0 63 45 108t108 45q57 0 101-38 25 102 108 168t189 65q83 0 153-41t111-111 41-154q0-37-7-68 75-18 123-79t48-139z" horiz-adv-x="1142.9" />

<glyph glyph-name="shirtsinbulk" unicode="&#xf214;" d="M0 850h857v-777l-433-188-424 188v777z m801-740v516h-745v-516l369-165z m0 572v112h-745v-112h745z m-700-166v-64h-21v64h21z m0-83v-64h-21v64h21z m0-82v-65h-21v65h21z m0-83v-64h-21v64h21z m0-83v-64h-21v64h21z m15-79l8 19 59-27-9-18z m75-34l9 19 58-26-8-19z m76-33l8 19 59-26-9-19z m76-33l8 18 58-26-8-19z m102-8l58 26 9-18-59-27z m75 34l59 26 8-19-58-26z m76 33l59 26 8-19-59-26z m75 33l59 27 8-19-58-26z m-526 670v-20h-64v20h64z m90 0v-20h-64v20h64z m90 0v-20h-64v20h64z m90 0v-20h-63v20h63z m91 0v-20h-64v20h64z m90 0v-20h-64v20h64z m90 0v-20h-64v20h64z m90 0v-20h-63v20h63z m-675-190v-44h-21v64h65v-20h-44z m134 20v-20h-64v20h64z m90 0v-20h-64v20h64z m90 0v-20h-63v20h63z m91 0v-20h-64v20h64z m90 0v-20h-64v20h64z m90 0v-20h-64v20h64z m70-64v44h-43v20h64v-64h-21z m0-82v64h21v-64h-21z m0-83v64h21v-64h-21z m0-83v65h21v-65h-21z m0-82v64h21v-64h-21z m0-83v64h21v-64h-21z m-332 20q-72 0-123 51t-52 123q0 72 52 124t123 51q73 0 124-51t51-124q0-72-51-123t-124-51z m-92 212q0-20 11-31t28-14 35-4 36-1 28-5 11-17q0-27-63-27-54 0-69 28h-1l-18-35q38-24 91-24 16 0 31 3t31 9 26 19 9 29q0 26-15 39t-38 15-44 2-37 2-16 15q0 11 12 18t22 8 23 2q19 0 40-6t28-19h2l17 32q-2 1-12 5t-13 5-10 4-13 4-11 2-13 3-13 0q-16 0-32-3t-30-9-24-19-9-30z" horiz-adv-x="857.1" />

<glyph glyph-name="skyatlas" unicode="&#xf216;" d="M798 525z m145-114q83 0 141-55t59-137q0-87-61-145t-149-59q-47 0-90 16t-77 41-66 59-61 70-58 74-60 71-66 59-75 41-89 15q-86 0-141-51t-54-136q0-88 58-140t147-52q56 0 116 21t108 55q2 2 11 10t17 14 12 5q8 0 14-6t6-13q0-14-34-43-56-50-130-80t-146-30q-74 0-137 33t-100 92-38 134q0 115 79 190t194 76q67 0 126-24t104-63 84-85 78-94 74-86 84-63 96-24q57 0 94 34t37 91q0 53-36 89t-89 36q-16 0-45-11t-38-10q-12 0-20 8t-9 20q0 10 5 32t5 33q0 88-60 146t-149 58q-32 0-62-10t-47-23-31-22-19-10q-8 0-14 5t-6 15q0 10 14 25 33 38 82 58t102 20q106 0 177-70t71-176q0-20-2-36 32 8 64 8z" horiz-adv-x="1142.9" />

<glyph glyph-name="pinterest" unicode="&#xf231;" d="M0 517q0 60 21 113t58 93 85 69 103 44 113 14q88 0 164-37t123-108 47-160q0-54-10-105t-34-99-56-83-80-58-106-21q-38 0-75 18t-54 49q-5-22-15-63t-14-53-11-40-15-39-17-35-26-44-35-48l-7-3-5 6q-9 88-9 105 0 51 12 115t37 161 29 113q-18 36-18 94 0 47 29 87t74 41q34 0 53-23t19-57q0-37-24-106t-25-105q0-35 25-58t61-23q31 0 57 14t44 38 31 53 21 61 11 62 4 56q0 96-61 150t-160 54q-111 0-186-72t-75-183q0-25 7-48t15-36 15-26 7-17q0-15-8-40t-21-25q-1 0-9 1-29 9-51 31t-34 53-18 60-6 60z" horiz-adv-x="714.3" />

<glyph glyph-name="whatsapp" unicode="&#xf232;" d="M550 307q7 0 54-25t50-30q1-2 1-8 0-18-9-42-9-22-40-37t-57-15q-32 0-106 35-55 25-95 66t-82 103q-41 60-40 108v5q2 50 41 88 14 12 29 12 4 0 10-1t11-1q11 0 15-3t8-16q5-11 19-49t14-41q0-12-19-33t-20-26q0-3 3-8 19-41 57-76 31-30 84-57 7-4 13-4 8 0 30 27t29 28z m-114-296q71 0 136 28t112 74 75 112 28 136-28 136-75 112-112 75-136 28-135-28-112-75-75-112-28-136q0-113 67-205l-44-130 135 43q88-58 192-58z m0 771q86 0 164-34t134-89 90-135 33-163-33-163-90-134-134-90-164-34q-108 0-203 53l-233-75 76 226q-60 99-60 217 0 86 33 163t90 135 134 89 163 34z" horiz-adv-x="857.1" />

<glyph glyph-name="facebook" unicode="&#xf308;" d="M696 779q67 0 114-48t47-113v-536q0-66-47-113t-114-48h-104v333h111l16 129h-127v83q0 31 13 46t51 16l68 1v115q-35 5-100 5-75 0-121-44t-45-127v-95h-112v-129h112v-333h-297q-67 0-114 48t-47 113v536q0 66 47 113t114 48h535z" horiz-adv-x="857.1" />
</font>
</defs>
</svg>
