<?xml version="1.0" encoding="UTF-8"?><svg id="Layer_1" xmlns="http://www.w3.org/2000/svg" viewBox="0 0 450 200"><defs><style>.cls-1{stroke-width:0px;}</style></defs><path class="cls-1" d="m36.61,46h8.9L10.99,153.22H2.09L36.61,46Z"/><path class="cls-1" d="m67,46h8.9l-34.52,107.22h-8.9l34.52-107.22Z"/><path class="cls-1" d="m408.63,46h8.9l-34.52,107.22h-8.9l34.52-107.22Z"/><path class="cls-1" d="m439.01,46h8.9l-34.52,107.22h-8.9l34.52-107.22Z"/><path class="cls-1" d="m109.83,75.99v47.27c0,.95.26,1.66.78,2.12s1.34.72,2.48.72h3.39v14.77h-10.33c-6.98,0-11.9-1.47-14.83-4.37s-4.37-6.78-4.37-11.57v-50.59c0-4.79,1.47-8.64,4.37-11.57s7.86-4.37,14.83-4.37h10.33v14.77h-3.39c-1.14,0-1.96.23-2.48.72s-.78,1.17-.78,2.12h0Zm11.12,13.23v-13.23c0-.95-.26-1.66-.78-2.12-.52-.46-1.37-.72-2.48-.72h-3.39v-14.77h10.33c6.98,0,11.9,1.47,14.83,4.37,2.93,2.9,4.37,6.78,4.37,11.57v14.9h-22.88Zm0,34.03v-12.71h22.88v14.38c0,4.79-1.47,8.64-4.37,11.57s-7.86,4.37-14.83,4.37h-10.33v-14.77h3.39c1.14,0,1.96-.23,2.48-.72s.78-1.17.78-2.12Z"/><path class="cls-1" d="m174.8,77.26v15.55h-22.88v-18.48c0-4.79,1.47-8.64,4.37-11.57s7.86-4.37,14.83-4.37h11.25v16.04h-4.3c-1.14,0-1.96.23-2.48.72s-.78,1.17-.78,2.12Zm0,13.89v30.81c0,.95.26,1.66.78,2.12.52.49,1.34.72,2.48.72h4.3v16.04h-11.25c-6.98,0-11.9-1.47-14.83-4.37s-4.37-6.78-4.37-11.57v-33.77h22.88v.03Zm12.03,1.66v-15.55c0-.95-.26-1.63-.78-2.12-.52-.46-1.37-.72-2.48-.72h-4.3v-16.04h11.25c6.98,0,11.9,1.47,14.83,4.37s4.37,6.78,4.37,11.57v18.48h-22.88Zm0,29.14v-30.81h22.88v33.77c0,4.79-1.47,8.64-4.37,11.57-2.9,2.93-7.86,4.37-14.83,4.37h-11.25v-16.04h4.3c1.14,0,1.96-.23,2.48-.72.52-.46.78-1.17.78-2.12v-.03Z"/><path class="cls-1" d="m221.06,58.39h22.88v82.44h-22.88V58.39Zm34.91,34.42v-16.82c0-.95-.26-1.66-.78-2.12-.52-.46-1.37-.72-2.48-.72h-24.06v-14.77h30.97c6.98,0,11.9,1.47,14.83,4.37s4.37,6.78,4.37,11.57v18.48h-22.88.03Zm0,30.45v-32.11h22.88v33.77c0,4.79-1.47,8.64-4.37,11.57-2.9,2.93-7.86,4.37-14.83,4.37h-30.97v-14.77h24.06c1.14,0,1.96-.23,2.48-.72s.78-1.17.78-2.12h-.03Z"/><path class="cls-1" d="m289.28,68.82v-10.4h9.55v10.4h-9.55Zm9.29,71.94h-9.03v-62.3h9.03v62.3Z"/><path class="cls-1" d="m309.69,58.39h22.88v82.44h-22.88V58.39Zm50.33,0v16.04h-42.21v-16.04h42.21Zm1.17,66.4v16.04h-43.39v-16.04h43.39Zm-4.95-33.51v16.04h-36.74v-16.04h36.74Z"/><path class="cls-1" d="m173.69,156.41h7.86l-7.6,43.09h-9.98l-4.86-30.38-4.79,30.38h-9.98l-7.6-43.09h8.12l4.43,34.98,5.67-34.98h8.28l5.61,34.98,4.79-34.98h.03Z"/><path class="cls-1" d="m185.69,156.41h7.86v43.09h-7.86v-43.09Z"/><path class="cls-1" d="m216.98,156.41h7.17v43.09h-7.37l-9.23-28.56v28.56h-7.24v-43.09h7.6l9.09,28.13v-28.13h-.03Z"/><path class="cls-1" d="m247.23,156.41h7.17v43.09h-7.37l-9.23-28.56v28.56h-7.24v-43.09h7.6l9.09,28.13v-28.13h-.03Z"/><path class="cls-1" d="m260.83,156.41h7.92v43.09h-7.92v-43.09Zm20.47,0v6h-16.95v-6h16.95Zm.55,37.1v6h-17.47v-6h17.47Zm-2.54-19.14v6.06h-14.54v-6.06h14.54Z"/><path class="cls-1" d="m286.15,156.41h7.86v43.09h-7.86v-43.09Zm15.42,18.65v-10.79c0-.72-.13-1.21-.39-1.47-.26-.26-.75-.39-1.53-.39h-11.74v-6h14.08c2.64,0,4.53.59,5.7,1.76,1.17,1.17,1.73,2.84,1.73,4.99v12.78c0,2.15-.59,3.81-1.73,4.99-1.17,1.17-3.06,1.76-5.7,1.76h-12.49v-5.8h10.17c.78,0,1.27-.13,1.53-.42.26-.26.39-.75.39-1.43l-.03.03Zm-6.23,4.56h7.86l8.41,19.88h-8.48l-7.79-19.88Z"/><path class="cls-1" d="m180.7,8.35v6.42h-7.86v-7.5c0-2.15.59-3.81,1.73-4.99s3.06-1.76,5.7-1.76h6.55c2.64,0,4.56.59,5.74,1.76s1.76,2.84,1.76,4.99v4.86c0,1.99-.23,3.75-.72,5.18-.49,1.47-1.27,3-2.35,4.63l-8.93,15.65h12.22v6h-21.51v-5.67l11.15-18.03c.95-1.47,1.6-2.74,1.92-3.88s.49-2.48.49-4.04v-3.62c0-.72-.13-1.21-.42-1.47s-.78-.39-1.5-.39h-1.99c-.78,0-1.3.13-1.56.39s-.39.75-.39,1.47h-.03Z"/><path class="cls-1" d="m222.03,7.24v29.57c0,2.15-.59,3.81-1.73,4.99-1.17,1.17-3.06,1.76-5.7,1.76h-7.92c-2.61,0-4.5-.59-5.67-1.76s-1.76-2.84-1.76-4.99V7.24c0-2.15.59-3.81,1.76-4.99s3.06-1.76,5.67-1.76h7.92c2.64,0,4.53.59,5.7,1.76s1.73,2.84,1.73,4.99Zm-7.86,28.49V8.35c0-.72-.13-1.21-.42-1.47s-.78-.39-1.56-.39h-3.13c-.72,0-1.24.13-1.5.39s-.42.75-.42,1.47v27.38c0,.68.13,1.17.42,1.43.26.26.78.42,1.5.42h3.13c.78,0,1.3-.13,1.56-.42.26-.26.42-.75.42-1.43Z"/><path class="cls-1" d="m234.39,8.35v6.42h-7.86v-7.5c0-2.15.59-3.81,1.73-4.99s3.06-1.76,5.7-1.76h6.55c2.64,0,4.56.59,5.74,1.76s1.76,2.84,1.76,4.99v4.86c0,1.99-.23,3.75-.72,5.18-.49,1.47-1.27,3-2.35,4.63l-8.93,15.65h12.22v6h-21.51v-5.67l11.15-18.03c.95-1.47,1.6-2.74,1.92-3.88s.49-2.48.49-4.04v-3.62c0-.72-.13-1.21-.42-1.47s-.78-.39-1.5-.39h-1.99c-.78,0-1.3.13-1.56.39s-.39.75-.39,1.47h-.03Z"/><path class="cls-1" d="m260.53,29.44v6.29c0,.68.13,1.17.42,1.43.26.26.78.42,1.5.42h2.61c.78,0,1.3-.13,1.56-.42.26-.26.39-.75.39-1.43v-11.67c0-.72-.13-1.21-.39-1.47s-.81-.39-1.56-.39h-7.43v-6h9.78c2.64,0,4.53.59,5.7,1.76s1.73,2.84,1.73,4.99v13.85c0,2.15-.59,3.81-1.73,4.99-1.17,1.17-3.06,1.76-5.7,1.76h-7.3c-2.64,0-4.53-.59-5.7-1.76s-1.73-2.84-1.73-4.99v-7.37h7.92-.07Zm.13-7.24h-7.79V.49h21.65v6h-13.85v15.71Z"/></svg>